<svg width="41" height="40" viewBox="0 0 41 40" fill="none" xmlns="http://www.w3.org/2000/svg">
<g clip-path="url(#clip0_344_244)">
<path d="M36.9723 8.95327L28.2766 0.393841C28.196 0.314198 28.1002 0.251039 27.9947 0.208001C27.8891 0.164963 27.776 0.142895 27.6618 0.143067H6.79227C5.35398 0.143067 4.18359 1.29519 4.18359 2.71086V36.9484C4.18359 38.3641 5.35406 39.5162 6.79227 39.5162H34.6184C36.0558 39.5162 37.2262 38.3649 37.227 36.9501V9.5584C37.227 9.33155 37.1358 9.1133 36.9723 8.95327ZM11.1401 10.4143V6.99054H25.0531V10.4143H11.1401ZM35.4879 36.9484C35.4879 37.4209 35.0984 37.8043 34.6184 37.8043H6.79227C6.31313 37.8043 5.92273 37.4209 5.92273 36.9484V2.71086C5.92273 2.23923 6.3132 1.85495 6.79227 1.85495H25.0531V5.27873H10.2705C9.79055 5.27873 9.40102 5.66215 9.40102 6.13463V11.2703C9.40102 11.7428 9.79055 12.1262 10.2705 12.1262H35.488L35.4879 36.9484ZM35.4879 10.4143H26.7923V1.85495H27.3018L35.4879 9.91276V10.4143Z" fill="#17282F"/>
<path d="M10.272 17.2619H20.7067C21.1867 17.2619 21.5763 16.8784 21.5763 16.406C21.5763 15.9335 21.1867 15.55 20.7067 15.55H10.272C9.79195 15.55 9.40242 15.9335 9.40242 16.406C9.40242 16.8784 9.79195 17.2619 10.272 17.2619ZM10.272 27.5331H20.7067C21.1867 27.5331 21.5763 27.1505 21.5763 26.6772C21.5763 26.2039 21.1867 25.8213 20.7067 25.8213H10.272C9.79195 25.8213 9.40242 26.2039 9.40242 26.6772C9.40234 27.1505 9.79195 27.5331 10.272 27.5331ZM9.40234 21.5415C9.40234 22.0149 9.79187 22.3974 10.2719 22.3974H31.1414C31.2556 22.3975 31.3687 22.3755 31.4743 22.3325C31.5798 22.2895 31.6757 22.2265 31.7565 22.147C31.8373 22.0675 31.9013 21.9731 31.945 21.8692C31.9886 21.7653 32.011 21.654 32.0109 21.5415C32.011 21.4291 31.9886 21.3178 31.945 21.2139C31.9013 21.11 31.8373 21.0156 31.7565 20.9361C31.6757 20.8566 31.5798 20.7936 31.4743 20.7506C31.3687 20.7076 31.2556 20.6855 31.1414 20.6856H10.2719C9.79195 20.6856 9.40234 21.0682 9.40234 21.5415ZM31.1415 30.9569H10.272C9.79195 30.9569 9.40242 31.3395 9.40242 31.8128C9.40242 32.2861 9.79195 32.6687 10.272 32.6687H31.1415C31.6223 32.6687 32.011 32.2861 32.011 31.8128C32.011 31.3395 31.6223 30.9569 31.1415 30.9569Z" fill="#17282F"/>
</g>
<defs>
<clipPath id="clip0_344_244">
<rect width="40" height="39.3732" fill="white" transform="translate(0.705078 0.143066)"/>
</clipPath>
</defs>
</svg>
