<svg width="89" height="45" viewBox="0 0 89 45" fill="none" xmlns="http://www.w3.org/2000/svg">
<path fill-rule="evenodd" clip-rule="evenodd" d="M83.9948 6.15645C81.6414 5.39691 76.1428 2.60809 74.3427 1.28465C73.1304 0.379293 72.7107 0.151328 72.3974 0.228098C70.9015 0.526963 72.8781 2.66232 76.8173 5.04877L79.3296 6.56145L77.8415 6.34589C72.0726 5.50935 68.8984 5.76101 69.7684 7.02376C70.6749 8.35572 71.0301 8.47463 74.4581 8.75596C76.2302 8.90345 77.7409 9.03244 77.779 9.05315C77.8172 9.07387 77.2736 9.34668 76.5346 9.66149C72.7117 11.2895 71.3539 13.2438 73.8709 13.4748C74.7422 13.5529 77.1051 12.8853 80.1062 11.7247C81.3956 11.215 83.6718 10.5249 85.1503 10.1672C89.7137 9.04018 89.3738 7.89256 83.9948 6.15645ZM63.9463 5.46683C61.8555 5.26969 56.7816 5.69973 56.3892 6.10398C55.11 7.45893 57.7555 8.77222 61.0681 8.44758C62.3253 8.31542 64.2336 8.16656 65.3229 8.1161C68.9129 7.91739 67.8178 5.84089 63.9463 5.46683ZM51.4883 6.30688C49.1485 6.29551 44.0748 7.86152 43.7662 8.65704C43.2629 10.0383 45.5727 10.6507 48.0289 9.81149L51.7522 8.54928C52.8911 8.18005 53.8288 7.72622 53.8632 7.57202C53.9456 7.14754 52.4011 6.3087 51.4883 6.30688ZM40.0492 10.3178C38.0662 10.3768 33.5575 15.0403 33.6993 16.8707C33.8923 19.1981 37.427 17.1914 42.0076 12.1224C42.5919 11.5013 41.2545 10.281 40.0492 10.3178ZM44.4122 15.3793C41.5324 14.6796 40.9472 14.7568 41.3508 15.7416C41.6656 16.4806 42.8948 17.1728 44.239 17.335C46.2209 17.5964 50.3725 20.5921 51.0456 20.2168C52.4124 19.428 48.063 16.2508 44.4122 15.3793ZM52.2494 22.2289C52.1094 22.3504 51.8575 22.905 51.7217 23.4734C51.1453 25.5804 48.6735 28.3127 46.5171 29.1912C44.8626 29.8731 44.7209 30.0431 45.3055 30.5582C47.7256 32.7863 53.0228 29.4895 54.0247 25.144C54.3684 23.602 53.1193 21.4912 52.2494 22.2289ZM27.826 15.6811C25.411 15.3079 18.3888 19.6435 19.2468 20.9738C20.0317 22.1657 21.6731 21.8718 25.4209 19.8819C27.0128 19.0425 28.7033 18.1579 29.1965 17.9319C30.5583 17.2886 29.7489 15.9599 27.826 15.6811ZM32.654 20.2049C30.9277 20.4279 31.844 24.3336 34.3015 27.1747C35.8531 28.9558 41.0017 31.4805 41.7522 30.8262C42.4024 30.2656 41.8298 29.683 39.3578 28.4144C36.676 27.032 35.8619 26.1206 35.4961 24.0204C34.9747 21.0701 34.176 19.9943 32.654 20.2049ZM14.3899 23.596C12.6042 23.5646 7.06114 29.8148 7.68534 31.1663C8.67285 33.2585 10.5694 32.3129 13.6016 28.2304C16.4005 24.4411 16.5445 23.6303 14.3899 23.596ZM5.60849 34.8539C4.21242 34.7872 0.347488 41.9488 1.05126 43.2447C2.35967 45.61 4.08948 44.4257 6.10934 39.8428C7.95148 35.6325 7.89658 34.9606 5.60849 34.8539Z" fill="#3C8B24"/>
</svg>
