<svg width="80" height="80" viewBox="0 0 80 80" fill="none" xmlns="http://www.w3.org/2000/svg">
<circle cx="40" cy="40" r="40" fill="white"/>
<rect x="22.0078" y="24" width="34" height="26" stroke="#3C8B24" stroke-width="2" stroke-linecap="round" stroke-linejoin="round"/>
<path d="M52.1462 48.818L51.5668 49.559L50.8258 50.1384C49.5318 51.1501 47.905 51.7512 46.1334 51.7512C41.9209 51.7512 38.5078 48.3381 38.5078 44.1256C38.5078 39.9131 41.9209 36.5 46.1334 36.5C50.3459 36.5 53.759 39.9131 53.759 44.1256C53.759 45.8972 53.158 47.524 52.1462 48.818ZM51.6338 50.5323V49.626H52.5401H53.1769C53.2961 49.626 53.4067 49.6722 53.4874 49.753L57.3804 53.6459C57.3807 53.6462 57.3809 53.6465 57.3812 53.6467C57.5506 53.8189 57.5503 54.0969 57.3784 54.2689L56.2728 55.3744L56.2709 55.3763C56.1043 55.5447 55.8286 55.5475 55.6556 55.3745L51.7608 51.4796C51.68 51.3989 51.6338 51.2883 51.6338 51.1691V50.5323ZM40.633 44.1256C40.633 47.1678 43.0956 49.626 46.1334 49.626C49.1756 49.626 51.6338 47.1634 51.6338 44.1256C51.6338 41.0834 49.1712 38.6252 46.1334 38.6252C43.0912 38.6252 40.633 41.0878 40.633 44.1256Z" fill="#3C8B24" stroke="#3C8B24"/>
<line x1="21" y1="28.5" x2="57.0139" y2="28.5" stroke="#3C8B24" stroke-width="2"/>
<path d="M26.0078 33H41.0078" stroke="#3C8B24" stroke-width="2" stroke-linecap="round"/>
<path d="M26.0078 36H38.0078" stroke="#3C8B24" stroke-width="2" stroke-linecap="round"/>
<line x1="26.0078" y1="45" x2="30.0078" y2="45" stroke="#3C8B24" stroke-width="2" stroke-linecap="round"/>
<line x1="26.0078" y1="42" x2="32.0078" y2="42" stroke="#3C8B24" stroke-width="2" stroke-linecap="round"/>
<path d="M26.0078 39H35.0078" stroke="#3C8B24" stroke-width="2" stroke-linecap="round"/>
</svg>
