<svg width="82" height="86" viewBox="0 0 82 86" fill="none" xmlns="http://www.w3.org/2000/svg">
<rect x="0.257812" y="0.912613" width="81.4805" height="84.6084" rx="10" fill="#77C360"/>
<path d="M55.2578 42.306C55.2578 49.7024 48.9889 55.6994 41.2578 55.6994C40.3488 55.7006 39.4424 55.6166 38.5494 55.4489C37.9067 55.3281 37.5853 55.2678 37.361 55.3021C37.1366 55.3363 36.8187 55.5054 36.1828 55.8436C34.384 56.8002 32.2865 57.138 30.2694 56.7628C31.036 55.8198 31.5597 54.6883 31.7907 53.4753C31.9307 52.7334 31.5838 52.0126 31.0643 51.485C28.7045 49.0888 27.2578 45.8597 27.2578 42.306C27.2578 34.9096 33.5267 28.9126 41.2578 28.9126C48.9889 28.9126 55.2578 34.9096 55.2578 42.306Z" stroke="white" stroke-width="2.5" stroke-linejoin="round"/>
<path d="M41.2519 42.9126H41.2645M46.8456 42.9126H46.8582M35.6582 42.9126H35.6708" stroke="white" stroke-width="2.5" stroke-linecap="round" stroke-linejoin="round"/>
</svg>
