<svg width="62" height="62" viewBox="0 0 62 62" fill="none" xmlns="http://www.w3.org/2000/svg">
<path fill-rule="evenodd" clip-rule="evenodd" d="M7.10368 31.0001C7.10368 17.8028 17.8022 7.10423 30.9995 7.10423C34.818 7.10423 38.422 7.99843 41.6188 9.58708C42.577 10.0633 43.7399 9.67251 44.2161 8.71427C44.6923 7.75602 44.3015 6.59317 43.3433 6.11696C39.6226 4.26797 35.4296 3.22923 30.9995 3.22923C15.6621 3.22923 3.22868 15.6627 3.22868 31.0001C3.22868 46.3375 15.6621 58.7709 30.9995 58.7709C46.3369 58.7709 58.7704 46.3375 58.7704 31.0001C58.7704 29.9586 58.7129 28.9298 58.601 27.9168C58.4834 26.8532 57.5259 26.0864 56.4623 26.2039C55.3987 26.3215 54.6319 27.279 54.7494 28.3426C54.8458 29.2145 54.8954 30.1011 54.8954 31.0001C54.8954 44.1974 44.1968 54.8959 30.9995 54.8959C17.8022 54.8959 7.10368 44.1974 7.10368 31.0001ZM58.2029 11.7034C58.9595 10.9468 58.9595 9.72002 58.2029 8.96338C57.4462 8.20674 56.2195 8.20674 55.4628 8.96338L30.9995 33.4267L24.6195 27.0467C23.8629 26.2901 22.6361 26.2901 21.8795 27.0467C21.1229 27.8034 21.1229 29.0301 21.8795 29.7868L29.6295 37.5368C30.3861 38.2934 31.6129 38.2934 32.3695 37.5368L58.2029 11.7034Z" fill="#3C8B24"/>
</svg>
