<svg width="41" height="40" viewBox="0 0 41 40" fill="none" xmlns="http://www.w3.org/2000/svg">
<path d="M8.20508 16.1746C8.5366 16.1746 8.85454 16.045 9.08896 15.8142C9.32338 15.5835 9.45508 15.2705 9.45508 14.9442V8.79212H15.7051C16.0366 8.79212 16.3545 8.66249 16.589 8.43174C16.8234 8.201 16.9551 7.88804 16.9551 7.56171C16.9551 7.23538 16.8234 6.92243 16.589 6.69168C16.3545 6.46093 16.0366 6.3313 15.7051 6.3313H8.20508C7.87356 6.3313 7.55562 6.46093 7.32119 6.69168C7.08677 6.92243 6.95508 7.23538 6.95508 7.56171V14.9442C6.95508 15.2705 7.08677 15.5835 7.32119 15.8142C7.55562 16.045 7.87356 16.1746 8.20508 16.1746ZM25.7051 8.79212H31.9551V14.9442C31.9551 15.2705 32.0868 15.5835 32.3212 15.8142C32.5556 16.045 32.8736 16.1746 33.2051 16.1746C33.5366 16.1746 33.8545 16.045 34.089 15.8142C34.3234 15.5835 34.4551 15.2705 34.4551 14.9442V7.56171C34.4551 7.23538 34.3234 6.92243 34.089 6.69168C33.8545 6.46093 33.5366 6.3313 33.2051 6.3313H25.7051C25.3736 6.3313 25.0556 6.46093 24.8212 6.69168C24.5868 6.92243 24.4551 7.23538 24.4551 7.56171C24.4551 7.88804 24.5868 8.201 24.8212 8.43174C25.0556 8.66249 25.3736 8.79212 25.7051 8.79212ZM15.7051 30.9395H9.45508V24.7875C9.45508 24.4611 9.32338 24.1482 9.08896 23.9174C8.85454 23.6867 8.5366 23.5571 8.20508 23.5571C7.87356 23.5571 7.55562 23.6867 7.32119 23.9174C7.08677 24.1482 6.95508 24.4611 6.95508 24.7875V32.1699C6.95508 32.4963 7.08677 32.8092 7.32119 33.04C7.55562 33.2707 7.87356 33.4004 8.20508 33.4004H15.7051C16.0366 33.4004 16.3545 33.2707 16.589 33.04C16.8234 32.8092 16.9551 32.4963 16.9551 32.1699C16.9551 31.8436 16.8234 31.5307 16.589 31.2999C16.3545 31.0692 16.0366 30.9395 15.7051 30.9395ZM33.2051 23.5571C32.8736 23.5571 32.5556 23.6867 32.3212 23.9174C32.0868 24.1482 31.9551 24.4611 31.9551 24.7875V30.9395H25.7051C25.3736 30.9395 25.0556 31.0692 24.8212 31.2999C24.5868 31.5307 24.4551 31.8436 24.4551 32.1699C24.4551 32.4963 24.5868 32.8092 24.8212 33.04C25.0556 33.2707 25.3736 33.4004 25.7051 33.4004H33.2051C33.5366 33.4004 33.8545 33.2707 34.089 33.04C34.3234 32.8092 34.4551 32.4963 34.4551 32.1699V24.7875C34.4551 24.4611 34.3234 24.1482 34.089 23.9174C33.8545 23.6867 33.5366 23.5571 33.2051 23.5571ZM38.2051 18.6354H3.20508C2.87356 18.6354 2.55562 18.765 2.32119 18.9958C2.08677 19.2265 1.95508 19.5395 1.95508 19.8658C1.95508 20.1922 2.08677 20.5051 2.32119 20.7359C2.55562 20.9666 2.87356 21.0962 3.20508 21.0962H38.2051C38.5366 21.0962 38.8545 20.9666 39.089 20.7359C39.3234 20.5051 39.4551 20.1922 39.4551 19.8658C39.4551 19.5395 39.3234 19.2265 39.089 18.9958C38.8545 18.765 38.5366 18.6354 38.2051 18.6354Z" fill="#77C360"/>
</svg>
