<svg width="41" height="40" viewBox="0 0 41 40" fill="none" xmlns="http://www.w3.org/2000/svg">
<g clip-path="url(#clip0_344_230)">
<path d="M38.9462 16.7905C38.1823 16.7905 37.5311 17.2726 37.2891 17.944H33.9462V17.2711C33.9462 16.9527 33.684 16.6943 33.3602 16.6943C33.0368 16.6943 32.7743 16.9527 32.7743 17.2711V20.0828C32.7743 22.959 31.7947 25.6674 30.0158 27.7085C27.5314 30.5583 24.3991 32.7254 20.704 34.1507C17.4005 32.8765 14.5383 31.0035 12.1958 28.5833C11.9724 28.3526 11.6016 28.3435 11.3672 28.5634C11.1332 28.783 11.124 29.148 11.3471 29.3787C12.1558 30.2141 13.0237 30.9861 13.9463 31.6953V36.0765C13.2645 36.3145 12.7744 36.9555 12.7744 37.7077C12.7744 38.6617 13.563 39.4379 14.5322 39.4379C15.5014 39.4379 16.29 38.6617 16.29 37.7077C16.29 36.9558 15.8002 36.3145 15.1181 36.0765V32.5403C16.7264 33.6295 18.483 34.5412 20.3775 35.2637C20.4831 35.3036 20.5936 35.3238 20.7043 35.3238C20.8148 35.3238 20.9253 35.3036 21.0303 35.2637C24.9496 33.7695 28.2721 31.4805 30.9054 28.4595C32.1237 27.0618 33.0014 25.3838 33.4921 23.5577H35.4727C35.7147 24.2291 36.3659 24.7112 37.1298 24.7112C38.099 24.7112 38.8876 23.935 38.8876 22.9809C38.8876 22.0269 38.099 21.2507 37.1298 21.2507C36.3659 21.2507 35.7147 21.7331 35.4727 22.4042H33.7469C33.8787 21.6472 33.9462 20.8704 33.9462 20.0828V19.0975H37.2891C37.5311 19.7689 38.1823 20.251 38.9462 20.251C39.9154 20.251 40.704 19.4748 40.704 18.5207C40.704 17.5667 39.9154 16.7905 38.9462 16.7905ZM14.5322 38.2841C14.209 38.2841 13.9463 38.0255 13.9463 37.7074C13.9463 37.3893 14.209 37.1306 14.5322 37.1306C14.8554 37.1306 15.1181 37.3893 15.1181 37.7074C15.1181 38.0255 14.8554 38.2841 14.5322 38.2841ZM37.1298 22.4042C37.4529 22.4042 37.7157 22.6628 37.7157 22.9809C37.7157 23.2991 37.4529 23.5577 37.1298 23.5577C36.8066 23.5577 36.5438 23.2991 36.5438 22.9809C36.5438 22.6628 36.8066 22.4042 37.1298 22.4042ZM38.9462 19.0975C38.623 19.0975 38.3602 18.8388 38.3602 18.5207C38.3602 18.2026 38.623 17.944 38.9462 17.944C39.2693 17.944 39.5321 18.2026 39.5321 18.5207C39.5321 18.8388 39.2693 19.0975 38.9462 19.0975Z" fill="#17282F"/>
<path d="M8.63473 20.0828V9.59074C10.7841 9.09058 13.017 8.15847 15.2759 6.81781C18.6246 4.83072 22.7854 4.83072 26.1341 6.81781C27.1393 7.41409 28.1391 7.92927 29.1287 8.36183C29.1397 8.36694 29.1507 8.37204 29.1623 8.37625C30.3854 8.90884 31.593 9.31558 32.7753 9.59074V14.8037C32.7753 15.1225 33.0374 15.3805 33.3612 15.3805C33.685 15.3805 33.9471 15.1225 33.9471 14.8037V9.37896C33.9471 8.96652 33.6584 8.60395 33.2605 8.51683C32.1844 8.28133 31.0822 7.92746 29.9628 7.46065V3.42609C30.6448 3.18788 31.1346 2.54684 31.1346 1.79496C31.1346 0.840911 30.3461 0.0646973 29.3768 0.0646973C28.4076 0.0646973 27.619 0.840911 27.619 1.79496C27.619 2.54684 28.1091 3.18788 28.7909 3.42609V6.93407C28.1119 6.60634 27.4274 6.23836 26.7392 5.83013C23.0173 3.62134 18.3927 3.62164 14.6711 5.83013C12.4397 7.15395 10.2454 8.05813 8.14951 8.51683C7.75156 8.60395 7.46286 8.96652 7.46286 9.37896V12.8686H4.11998C3.87798 12.1972 3.22674 11.7151 2.46288 11.7151C1.49365 11.7151 0.705078 12.4913 0.705078 13.4454C0.705078 14.3994 1.49365 15.1756 2.46288 15.1756C3.22674 15.1756 3.87798 14.6935 4.11998 14.0221H7.46286V17.3288H5.93638C5.69438 16.6575 5.04313 16.1753 4.27928 16.1753C3.31005 16.1753 2.52148 16.9515 2.52148 17.9056C2.52148 18.8596 3.31005 19.6359 4.27928 19.6359C5.04313 19.6359 5.69438 19.1537 5.93638 18.4823H7.46286V20.0828C7.46286 22.847 8.27402 25.4397 9.80813 27.5803C9.92227 27.7395 10.1035 27.8245 10.2876 27.8245C10.4041 27.8245 10.5222 27.7903 10.6248 27.7191C10.8891 27.5353 10.9522 27.1754 10.7658 26.9153C9.37173 24.9702 8.63473 22.6076 8.63473 20.0828ZM29.3768 1.2182C29.7 1.2182 29.9628 1.47684 29.9628 1.79496C29.9628 2.11307 29.7 2.37171 29.3768 2.37171C29.0537 2.37171 28.7909 2.11307 28.7909 1.79496C28.7909 1.47684 29.0537 1.2182 29.3768 1.2182ZM2.46288 14.0221C2.1397 14.0221 1.87695 13.7635 1.87695 13.4454C1.87695 13.1273 2.1397 12.8686 2.46288 12.8686C2.78606 12.8686 3.04882 13.1273 3.04882 13.4454C3.04882 13.7635 2.78606 14.0221 2.46288 14.0221ZM4.27928 18.4823C3.9561 18.4823 3.69335 18.2237 3.69335 17.9056C3.69335 17.5875 3.9561 17.3288 4.27928 17.3288C4.60246 17.3288 4.86522 17.5875 4.86522 17.9056C4.86522 18.2237 4.60246 18.4823 4.27928 18.4823Z" fill="#17282F"/>
<path d="M14.2591 9.99652C14.5491 9.85534 14.6681 9.50929 14.5246 9.22392C14.3812 8.93854 14.0296 8.82139 13.7394 8.96257C12.6307 9.50238 11.5174 9.95026 10.431 10.2939C10.0575 10.412 9.80664 10.7502 9.80664 11.1356V20.0828C9.80664 22.6839 10.6858 25.1252 12.2822 26.957C14.4676 29.464 17.1919 31.4202 20.3797 32.772C20.4829 32.8158 20.594 32.8377 20.705 32.8377C20.8161 32.8377 20.9272 32.8158 21.0307 32.772C24.2182 31.4205 26.9422 29.4643 29.1272 26.9576C30.7239 25.1252 31.6034 22.6839 31.6034 20.0828V11.1356C31.6034 10.7502 31.3526 10.412 30.979 10.2939C29.1938 9.72948 27.3603 8.89228 25.5292 7.80576C24.0742 6.94214 22.4061 6.48584 20.705 6.48584C19.0043 6.48584 17.3362 6.94214 15.8808 7.80576L15.7563 7.87936C15.4783 8.04247 15.3874 8.39663 15.5531 8.67029C15.7188 8.94395 16.0783 9.03347 16.3563 8.87035C16.3996 8.84482 16.443 8.81929 16.486 8.79375C17.7586 8.03857 19.2176 7.63935 20.705 7.63935C22.1928 7.63935 23.6518 8.03857 24.9244 8.79375C26.7685 9.88808 28.6203 10.7412 30.4316 11.3315V20.0825C30.4316 22.4084 29.6524 24.5833 28.238 26.2063C26.2015 28.5424 23.6677 30.3745 20.705 31.6533C17.7421 30.3742 15.2082 28.5421 13.1718 26.206C11.7573 24.583 10.9785 22.4084 10.9785 20.0825V11.3315C12.0597 10.9791 13.1623 10.5303 14.2591 9.99652Z" fill="#17282F"/>
<path d="M20.7051 13.5608C19.0898 13.5608 17.7754 14.8543 17.7754 16.4446V17.4058H17.5801C16.8263 17.4058 16.2129 18.0096 16.2129 18.7516V23.3656C16.2129 24.1076 16.8263 24.7114 17.5801 24.7114H23.83C24.5838 24.7114 25.1972 24.1076 25.1972 23.3656V18.7516C25.1972 18.0096 24.5838 17.4058 23.83 17.4058H23.6347V16.4446C23.6347 14.8543 22.3207 13.5608 20.7051 13.5608ZM18.9473 16.4446C18.9473 15.4905 19.7358 14.7143 20.7051 14.7143C21.6743 14.7143 22.4629 15.4905 22.4629 16.4446V17.4058H18.9473V16.4446ZM24.0254 18.7516V23.3656C24.0254 23.4716 23.9378 23.5578 23.83 23.5578H17.5801C17.4723 23.5578 17.3848 23.4716 17.3848 23.3656V18.7516C17.3848 18.6455 17.4723 18.5593 17.5801 18.5593H23.83C23.9378 18.5593 24.0254 18.6455 24.0254 18.7516Z" fill="#17282F"/>
<path d="M20.7051 18.7515C19.7358 18.7515 18.9473 19.5277 18.9473 20.4817C18.9473 21.2336 19.4374 21.8746 20.1191 22.1129V22.7887C20.1191 23.1072 20.3816 23.3655 20.7051 23.3655C21.0289 23.3655 21.291 23.1072 21.291 22.7887V22.1129C21.9731 21.8746 22.4629 21.2336 22.4629 20.4817C22.4629 19.5277 21.6743 18.7515 20.7051 18.7515ZM20.7051 21.0585C20.3819 21.0585 20.1191 20.7998 20.1191 20.4817C20.1191 20.1636 20.3819 19.905 20.7051 19.905C21.0283 19.905 21.291 20.1636 21.291 20.4817C21.291 20.7998 21.0283 21.0585 20.7051 21.0585Z" fill="#17282F"/>
</g>
<defs>
<clipPath id="clip0_344_230">
<rect width="40" height="39.3732" fill="white" transform="translate(0.705078 0.0646973)"/>
</clipPath>
</defs>
</svg>
