<svg width="42" height="34" viewBox="0 0 42 34" fill="none" xmlns="http://www.w3.org/2000/svg">
<path d="M1 15V2.2C1 1.53726 1.53726 1 2.2 1H14.5561C14.8425 1 15.1195 1.10248 15.337 1.2889L21.663 6.7111C21.8804 6.89752 22.1574 7 22.444 7H39.8C40.4628 7 41 7.53726 41 8.2V15M1 15V31.8C1 32.4628 1.53726 33 2.2 33H39.8C40.4628 33 41 32.4628 41 31.8V15M1 15H41" stroke="#3C8B24" stroke-width="2" stroke-linecap="round" stroke-linejoin="round"/>
<rect x="14.5" y="17.5" width="5" height="5" stroke="#3C8B24"/>
<rect x="22.5" y="17.5" width="5" height="5" stroke="#3C8B24"/>
<rect x="14.5" y="24.5" width="5" height="5" stroke="#3C8B24"/>
<rect x="22.5" y="24.5" width="5" height="5" stroke="#3C8B24"/>
</svg>
