<svg width="15" height="17" viewBox="0 0 15 17" fill="none" xmlns="http://www.w3.org/2000/svg">
<path d="M1.94531 16.0684C1.94531 16.3684 2.14531 16.5684 2.44531 16.5684H13.9453C14.2453 16.5684 14.4453 16.3684 14.4453 16.0684V3.76834C14.4453 3.66834 14.3453 3.46835 14.3453 3.36835L12.1453 1.16837C12.0453 1.06837 11.9453 1.06836 11.7453 1.06836H2.44531C2.14531 1.06836 1.94531 1.26836 1.94531 1.56836V9.56836" stroke="#19BAD7" stroke-width="0.4675" stroke-miterlimit="13.3333" stroke-linecap="round" stroke-linejoin="round"/>
<path d="M7.57344 11.8076H6.77344V13.8076" stroke="#19BAD7" stroke-width="0.4675" stroke-miterlimit="13.3333" stroke-linecap="round" stroke-linejoin="round"/>
<path d="M5.85507 12.7783C5.85507 13.2783 5.55507 13.7783 5.05507 13.7783C4.85507 13.7783 4.45508 13.7783 4.45508 13.7783C4.45508 13.7783 4.45508 13.0783 4.45508 12.7783C4.45508 12.5783 4.45508 11.7783 4.45508 11.7783H4.95508C5.55508 11.8783 5.85507 12.2783 5.85507 12.7783Z" stroke="#19BAD7" stroke-width="0.4675" stroke-miterlimit="13.3333" stroke-linecap="round" stroke-linejoin="round"/>
<path d="M2.44531 11.8428V13.8428" stroke="#19BAD7" stroke-width="0.4675" stroke-miterlimit="13.3333" stroke-linecap="round" stroke-linejoin="round"/>
<path d="M3.55353 12.3456C3.55353 12.6456 3.25352 12.9456 2.95352 12.9456C2.75352 12.9456 2.35352 12.9456 2.35352 12.9456C2.35352 12.9456 2.35352 12.5456 2.35352 12.3456C2.35352 12.2456 2.35352 11.7456 2.35352 11.7456H2.95352C3.25352 11.8456 3.55353 12.0456 3.55353 12.3456Z" stroke="#19BAD7" stroke-width="0.4675" stroke-miterlimit="13.3333" stroke-linecap="round" stroke-linejoin="round"/>
<path d="M5.35759 9.10376C4.55759 7.80376 11.4576 6.60375 11.0576 7.80375C10.4576 9.60375 5.95759 3.50376 7.95759 3.60376C9.05759 3.70376 6.25759 10.4038 5.35759 9.10376Z" stroke="#19BAD7" stroke-width="0.4675" stroke-miterlimit="13.3333" stroke-linecap="round" stroke-linejoin="round"/>
<path d="M0.449219 9.77177V14.2718C0.449219 14.6718 0.7492 14.9718 1.1492 14.9718H8.84921C9.14921 14.9718 9.34921 14.7718 9.34921 14.4718V10.9718C9.34921 10.6718 9.14921 10.4718 8.84921 10.4718H1.1492C0.7492 10.5718 0.449219 10.2718 0.449219 9.77177ZM0.449219 9.77177C0.449219 9.37177 0.7492 9.07178 1.1492 9.07178H1.84921" stroke="#19BAD7" stroke-width="0.4675" stroke-miterlimit="13.3333" stroke-linecap="round" stroke-linejoin="round"/>
</svg>
