<svg width="52" height="30" viewBox="0 0 52 30" fill="none" xmlns="http://www.w3.org/2000/svg">
<path d="M15.3105 28.578V26.9558C15.3105 20.6842 20.3947 15.6001 26.6662 15.6001C32.9378 15.6001 38.0219 20.6842 38.0219 26.9558V28.578" stroke="#3C8B24" stroke-width="2" stroke-linecap="round"/>
<path d="M34.7773 18.8446C34.7773 14.3649 38.4089 10.7334 42.8885 10.7334C47.3682 10.7334 50.9997 14.3649 50.9997 18.8446V19.6557" stroke="#3C8B24" stroke-width="2" stroke-linecap="round"/>
<path d="M34.7773 18.8446C34.7773 14.3649 38.4089 10.7334 42.8885 10.7334C47.3682 10.7334 50.9997 14.3649 50.9997 18.8446V19.6557" stroke="#3C8B24" stroke-width="2" stroke-linecap="round"/>
<path d="M26.6667 15.6002C30.2504 15.6002 33.1556 12.695 33.1556 9.11127C33.1556 5.52752 30.2504 2.62231 26.6667 2.62231C23.0829 2.62231 20.1777 5.52752 20.1777 9.11127C20.1777 12.695 23.0829 15.6002 26.6667 15.6002Z" stroke="#3C8B24" stroke-width="2" stroke-linecap="round" stroke-linejoin="round"/>
<path d="M42.8902 10.7334C45.578 10.7334 47.7569 8.55452 47.7569 5.86671C47.7569 3.17891 45.578 1 42.8902 1C40.2023 1 38.0234 3.17891 38.0234 5.86671C38.0234 8.55452 40.2023 10.7334 42.8902 10.7334Z" stroke="#3C8B24" stroke-width="2" stroke-linecap="round" stroke-linejoin="round"/>
<path d="M1 18.8446C1 14.3649 4.63154 10.7334 9.11119 10.7334C13.5908 10.7334 17.2224 14.3649 17.2224 18.8446V19.6557" stroke="#3C8B24" stroke-width="2" stroke-linecap="round"/>
<path d="M9.11085 10.7334C11.7987 10.7334 13.9776 8.55452 13.9776 5.86671C13.9776 3.17891 11.7987 1 9.11085 1C6.42297 1 4.24414 3.17891 4.24414 5.86671C4.24414 8.55452 6.42297 10.7334 9.11085 10.7334Z" stroke="#3C8B24" stroke-width="2" stroke-linecap="round" stroke-linejoin="round"/>
</svg>
