<svg width="1844" height="1844" viewBox="0 0 1844 1844" fill="none" xmlns="http://www.w3.org/2000/svg">
<rect width="1844" height="1844" fill="white"/>
<path d="M875.125 353.63C774.265 361.1 675.957 396.815 593.097 454.674C602.057 464.184 612.608 472.103 622.241 480.94C660.446 514.063 698.631 547.207 736.876 580.269C767.387 606.943 799.674 631.801 827.348 661.556C852.9 688.639 868.859 725.415 868.329 762.885C868.472 789.662 859.982 815.683 848.573 839.622C872.961 862.439 896.513 886.113 921.126 908.665C924.514 912.318 931.677 912.114 934.167 907.501C944.249 894.256 954.106 880.848 963.372 867.031C966.596 862.745 966.311 856.541 962.841 852.52C950.963 838.949 933.922 828.254 928.922 809.948C924.432 795.131 932.371 779.355 944.494 770.743C1001.41 727.64 1057.66 683.475 1117.03 643.74C1185.91 598.616 1260.64 561.513 1340.08 539.186C1341.12 536.798 1338.32 535.125 1337.18 533.451C1286.97 479.674 1226.44 435.49 1159.66 404.591C1071.33 363.406 972.229 345.814 875.125 353.63ZM563.239 477.409C553.464 484.919 544.239 493.144 535.137 501.45C597.077 563.207 658.813 625.168 720.733 686.945C726.795 692.986 735.285 699.496 744.305 696.006C751.958 692.129 759.142 683.924 757.387 674.781C754.346 664.516 745.305 657.965 738.264 650.515C680.406 592.82 622.853 534.798 564.811 477.287L563.239 477.409ZM482.605 556.452C521.912 596.33 561.75 635.678 601.281 675.353C625.017 698.557 647.691 722.864 671.814 745.681C682.283 756.457 701.61 747.803 704.202 734.191C704.855 724.803 697.549 717.742 691.447 711.639C630.139 650.556 569.219 589.085 507.708 528.206C499.054 537.37 490.605 546.717 482.605 556.452ZM437.338 618.433C489.054 670.822 541.117 722.884 592.914 775.172C602.343 784.294 610.935 794.478 621.914 801.805C635.139 811.764 655.548 793.499 648.874 778.988C645.242 770.335 637.69 764.375 631.343 757.804C574.321 700.557 516.953 643.678 460.074 586.289C451.053 595.841 444.828 607.678 437.338 618.433ZM1315.89 666.23C1210.44 771.927 1104.54 877.154 999.352 983.095C1069.62 1048.24 1137.85 1115.53 1207.46 1181.37C1251.07 1223.45 1296.79 1263.39 1339.4 1306.53C1351.71 1294.94 1361.89 1281.22 1372.4 1268C1414.89 1212.73 1446.98 1149.53 1466.69 1082.67C1491.43 998.422 1496.3 908.481 1481.04 822.03C1466.92 740.742 1434.3 662.944 1387.24 595.249C1363.38 618.841 1339.59 642.474 1315.89 666.23ZM379.684 1103.02C405.521 1180.37 448.441 1251.94 504.279 1311.35C504.993 1311.33 506.401 1311.31 507.116 1311.29C623.078 1194.61 739.917 1078.81 855.818 962.074C838.43 943.237 820.736 924.665 803.552 905.624C799.47 901.909 795.878 894.542 789.286 896.807C775.49 903.195 761.245 908.746 746.387 912.093C691.549 924.706 631.649 900.522 597.302 856.786C570.321 824.112 541.157 793.356 513.402 761.355C481.686 724.844 449.829 688.414 418.338 651.679C343.377 787.988 329.928 955.85 379.684 1103.02ZM927.004 1051.4C899.207 1080.71 870.574 1109.22 841.614 1137.36C813.899 1164.83 786.368 1192.49 759.142 1220.43C703.161 1275.98 647.997 1332.33 591.444 1387.31C652.67 1430.51 722.448 1461.64 795.633 1477.8C882.105 1497.03 973.025 1495.86 1058.95 1474.35C1129.76 1456.58 1197.11 1425.07 1255.93 1381.8C1231.56 1356.59 1207.64 1330.96 1183.46 1305.59C1106.66 1225.18 1029.46 1145.18 952.902 1064.55C947.616 1059.08 943.433 1052.48 937.412 1047.79C933.534 1045.14 929.494 1048.59 927.004 1051.4Z" fill="#B40000"/>
<path fill-rule="evenodd" clip-rule="evenodd" d="M1539.81 888.392C1540.55 902.119 1540.85 915.766 1540.71 929.319L1541.88 929.332L1610.55 930.124L1613.71 930.161C1613.87 915.012 1613.54 899.758 1612.7 884.414C1607.24 784.422 1580.88 690.531 1538.09 606.749L1535.05 608.302L1473.9 639.547L1473.06 639.975C1511.34 714.934 1534.92 798.934 1539.81 888.392ZM973.665 1541C1042.3 1535.05 1107.49 1518.06 1167.58 1491.89L1167.68 1492.12L1194.89 1554.93L1196.61 1558.9C1129.45 1588.13 1056.59 1607.1 979.888 1613.74L979.606 1610.44L973.753 1542.03L973.665 1541ZM1331.72 1387.93L1331.25 1387.39C1399.79 1326.66 1454.64 1251.12 1490.99 1166.12L1491.85 1166.49L1554.99 1193.5L1558.13 1194.85C1517.48 1289.84 1456.17 1374.26 1379.55 1442.14L1377.01 1439.26L1331.72 1387.93ZM436.43 1312.6C382.839 1246.37 342.492 1168.75 319.677 1083.56L319.065 1083.72L252.761 1101.58L249.173 1102.55C274.678 1197.77 319.782 1284.53 379.691 1358.54L381.983 1356.68L435.712 1313.18L436.43 1312.6ZM780.032 1527.63C708.123 1511.09 640.746 1481.99 580.486 1442.65L580.125 1443.21L542.47 1501.19L540.722 1503.88C607.997 1547.78 683.206 1580.27 763.469 1598.75L764.349 1594.98L779.924 1528.1L780.032 1527.63ZM299.252 890.523C302.57 824.04 316.44 760.082 339.294 700.399L338.984 700.281L276.557 676.543L271.041 674.446C245.529 741.11 230.044 812.545 226.339 886.798L229.918 886.981L298.496 890.484L299.252 890.523ZM1230.9 301.699C1297.47 335.171 1358.07 379.086 1410.43 431.412L1407.99 433.853L1359.49 482.465L1358.87 483.092C1312.03 436.269 1257.81 396.97 1198.26 367.012L1198.48 366.576L1229.17 305.152L1230.9 301.699ZM1024.04 235.876C977.854 228.897 930.267 226.502 881.789 229.147C825.971 232.193 772.055 241.753 720.738 257.05L721.839 260.705L741.646 326.454L741.8 326.965C787.677 313.303 835.873 304.764 885.766 302.041C929.189 299.672 971.812 301.821 1013.18 308.081L1013.2 307.964L1023.41 240.06L1024.04 235.876ZM566.698 411.013L566.637 410.925L527.482 354.515L525.065 351.033C470.153 389.039 421.094 434.714 379.358 486.417L383.581 489.815L435.617 531.682L436.236 532.181C473.605 485.902 517.531 445.023 566.698 411.013Z" fill="#B40000"/>
</svg>
