<svg width="571" height="555" viewBox="0 0 571 555" fill="none" xmlns="http://www.w3.org/2000/svg">
<path d="M48.1049 293.124C40.0886 373.246 87.5195 436.788 252.553 429.162C417.586 421.537 490.685 298.643 522.271 181.083C553.857 63.5232 489.689 -3.47884 417.921 23.3215C346.151 50.1218 380.65 110.83 242.537 153.673C104.425 196.515 56.3524 210.688 48.1049 293.124Z" fill="#BCE1B1"/>
<path d="M56.3046 270.843C43.1382 337.854 82.3701 426.794 221.42 432.204C360.47 437.614 518.14 246.213 533.933 147.637C549.727 49.0612 475.196 21.4328 433.43 30.2883C391.664 39.1438 373.957 84.3266 338.846 102.827C303.735 121.328 75.4481 173.409 56.3046 270.843Z" stroke="#0A2A42" stroke-miterlimit="10" stroke-linecap="round" stroke-linejoin="round"/>
<path d="M357.316 13.7622L364.373 0.999878" stroke="#0A2A42" stroke-miterlimit="10" stroke-linecap="round" stroke-linejoin="round"/>
<path d="M367.047 19.9841L381.245 5.1478" stroke="#0A2A42" stroke-miterlimit="10" stroke-linecap="round" stroke-linejoin="round"/>
<path d="M372.473 29.0772L385.553 26.6836" stroke="#0A2A42" stroke-miterlimit="10" stroke-linecap="round" stroke-linejoin="round"/>
<path d="M207.4 457.507L198.941 469.387" stroke="#0A2A42" stroke-miterlimit="10" stroke-linecap="round" stroke-linejoin="round"/>
<path d="M198.436 450.222L182.646 463.351" stroke="#0A2A42" stroke-miterlimit="10" stroke-linecap="round" stroke-linejoin="round"/>
<path d="M194.081 440.572L180.812 441.465" stroke="#0A2A42" stroke-miterlimit="10" stroke-linecap="round" stroke-linejoin="round"/>
<path d="M1.00195 279.477H339.562C351.111 279.477 360.473 270.115 360.473 258.566V48.7767C360.473 37.2292 351.111 27.8676 339.562 27.8676H89.6032C78.9895 27.8676 70.0606 35.8192 68.8334 46.3607L46.8749 235.087L1.00195 279.477Z" fill="#F2F9F1"/>
<path d="M1.00195 279.477H339.562C351.111 279.477 360.472 270.115 360.472 258.566V48.7767C360.472 37.2292 351.111 27.8676 339.562 27.8676H89.6032C78.9895 27.8676 70.0606 35.8192 68.8334 46.3607L46.8749 235.087L1.00195 279.477Z" stroke="#0A2A42" stroke-miterlimit="10" stroke-linecap="round" stroke-linejoin="round"/>
<path d="M88.3074 239.323C54.8549 236.958 31.2016 209.25 43.704 176.811C56.2064 144.372 80.1979 144.372 91.6857 113.624C103.175 82.8744 115.114 51.3367 151.382 51.1117C187.649 50.8866 173.007 97.5168 165.799 103.599C158.591 109.682 141.695 131.308 141.695 131.308L123.899 202.492L88.3074 239.323Z" fill="#0A2A42"/>
<path d="M201.417 120.792L197.384 114.831C197.384 114.831 191.55 113.716 189.337 109.258C187.124 104.801 190.63 98.274 193.109 99.3595C195.588 100.445 194.537 104.251 194.537 104.251L205.934 95.4502C205.934 95.4502 209.788 100.602 209.183 106.728L212.99 111.202L201.417 120.792Z" fill="#F6C199"/>
<path d="M210.989 88.696L210.182 104.052C210.122 105.182 209.159 106.049 208.028 105.991L176.974 104.357C175.844 104.297 174.978 103.333 175.036 102.203L175.844 86.8471C175.904 85.7181 176.868 84.8502 177.997 84.9099L209.052 86.5437C210.181 86.6022 211.049 87.567 210.989 88.696Z" fill="#F2F9F1"/>
<path d="M177.778 86.5827L176.932 102.675L204.248 104.111L205.094 88.0188L177.778 86.5827Z" fill="#0A2A42"/>
<path d="M207.233 94.9679C206.563 94.9331 205.991 95.4479 205.955 96.1181C205.92 96.7882 206.435 97.3602 207.105 97.3963C207.775 97.4311 208.347 96.9163 208.382 96.2461C208.418 95.5747 207.903 95.0027 207.233 94.9679Z" fill="#0A2A42"/>
<path d="M210.989 88.696L210.182 104.052C210.122 105.182 209.159 106.049 208.028 105.991L176.974 104.357C175.844 104.297 174.978 103.333 175.036 102.203L175.844 86.8471C175.904 85.7181 176.868 84.8502 177.997 84.9099L209.052 86.5437C210.181 86.6022 211.049 87.567 210.989 88.696Z" stroke="#0A2A42" stroke-miterlimit="10" stroke-linecap="round" stroke-linejoin="round"/>
<path d="M197.384 114.831C197.384 114.831 191.55 113.716 189.337 109.258C187.124 104.801 190.63 98.274 193.109 99.3595C195.588 100.445 194.537 104.251 194.537 104.251" fill="#F6C199"/>
<path d="M197.384 114.831C197.384 114.831 191.55 113.716 189.337 109.258C187.124 104.801 190.63 98.274 193.109 99.3595C195.588 100.445 194.537 104.251 194.537 104.251" stroke="#0A2A42" stroke-miterlimit="10" stroke-linecap="round" stroke-linejoin="round"/>
<path d="M194.537 104.251C194.275 106.058 194.105 106.344 194.105 106.344C194.105 106.344 196.725 104.946 200.652 106.673" stroke="#0A2A42" stroke-miterlimit="10" stroke-linecap="round" stroke-linejoin="round"/>
<path d="M144.568 316.414L149.835 319.804C149.835 319.804 152.288 317.524 159.351 319.055C166.414 320.587 167.657 319.557 168.631 322.076C169.604 324.595 165.537 325.953 162.777 326.336C160.017 326.72 159.625 329.328 161.123 330.641C162.622 331.954 171.902 338.042 175.153 338.998C178.405 339.955 178.697 343.769 175.814 344.12C175.814 344.12 178.385 345.161 177.874 347.212C177.363 349.264 174.626 349.363 173.099 348.859C173.099 348.859 174.304 349.99 173.43 351.42C172.556 352.85 168.897 353.05 162.571 350.158C156.246 347.266 153.093 344.729 153.093 344.729C153.093 344.729 157.161 349.505 158.665 351.505C160.169 353.504 159.034 356.182 156.056 353.876C153.079 351.57 142.432 339.439 139.442 333.864L135.887 331.743L144.568 316.414Z" fill="#F6C199"/>
<path d="M175.813 344.121C171.255 342.929 165.888 341.103 159.061 336.71" stroke="#0A2A42" stroke-miterlimit="10" stroke-linecap="round" stroke-linejoin="round"/>
<path d="M173.1 348.86C167.395 347.42 161.499 344.298 156.744 341.342" stroke="#0A2A42" stroke-miterlimit="10" stroke-linecap="round" stroke-linejoin="round"/>
<path d="M149.834 319.804C149.834 319.804 152.287 317.523 159.35 319.055C166.412 320.587 167.656 319.556 168.629 322.076C169.603 324.595 165.536 325.953 162.775 326.335C160.016 326.72 159.623 329.328 161.122 330.641C162.621 331.954 171.901 338.042 175.152 338.998C178.404 339.954 178.696 343.769 175.812 344.12C175.812 344.12 178.384 345.161 177.873 347.212C177.362 349.264 174.625 349.363 173.098 348.858C173.098 348.858 174.303 349.99 173.429 351.42C172.555 352.85 168.895 353.05 162.57 350.158C156.245 347.266 153.092 344.729 153.092 344.729" stroke="#0A2A42" stroke-miterlimit="10" stroke-linecap="round" stroke-linejoin="round"/>
<path d="M147.777 134.179C110.608 134.179 79.5207 161.21 68.7081 205.814C57.8954 250.417 63.64 279.138 80.5341 301.44C97.4295 323.742 134.214 334.697 134.214 334.697L144.567 316.414L107.227 279.477H195.42C195.42 279.477 198.461 228.792 195.42 200.745C195.42 200.745 257.932 232.17 275.164 213.248C292.396 194.326 212.99 111.202 212.99 111.202L201.163 121.001L229.209 177.769C229.212 177.769 194.069 134.179 147.777 134.179Z" fill="#77C360"/>
<path d="M275.167 213.248C275.618 212.752 275.989 212.202 276.312 211.62C270.754 211.975 255.893 212.366 240.052 208.084C219.987 202.66 193.768 185.653 193.768 185.653C194.79 189.054 195.326 197.448 195.503 200.786C197.87 201.965 258.272 231.798 275.167 213.248Z" fill="#89C75B"/>
<path d="M217.05 210.047C236.828 217.477 264.565 224.889 275.166 213.249C292.398 194.327 212.992 111.203 212.992 111.203L201.165 121.002L229.211 177.77C229.211 177.77 199.801 141.29 159.348 135.075" stroke="#0A2A42" stroke-miterlimit="10" stroke-linecap="round" stroke-linejoin="round"/>
<path d="M192.043 177.768C192.043 177.768 194.343 184.523 195.423 200.745" stroke="#0A2A42" stroke-miterlimit="10" stroke-linecap="round" stroke-linejoin="round"/>
<path d="M135.887 331.745C135.887 331.745 107.767 313.212 90.3783 297.897C73.0004 282.592 66.1393 239.724 66.4775 216.017C58.8779 254.874 64.9668 280.889 80.5355 301.44C97.4308 323.742 134.216 334.697 134.216 334.697L135.887 331.745Z" fill="#89C75B"/>
<path d="M104.262 191.179C104.262 191.179 113.51 241.672 117.339 279.477H107.23L104.262 191.179Z" fill="#89C75B"/>
<path d="M104.076 185.653L107.229 279.477" stroke="#0A2A42" stroke-miterlimit="10" stroke-linecap="round" stroke-linejoin="round"/>
<path d="M101.188 319.49C117.332 329.669 134.215 334.697 134.215 334.697L144.567 316.414L107.228 279.476H195.42C195.42 279.476 198.461 228.792 195.42 200.745" stroke="#0A2A42" stroke-miterlimit="10" stroke-linecap="round" stroke-linejoin="round"/>
<path d="M68.7081 205.814C57.8954 250.417 63.64 279.138 80.5341 301.44C85.9827 308.633 93.5015 314.645 101.187 319.491" stroke="#0A2A42" stroke-miterlimit="10" stroke-linecap="round" stroke-linejoin="round"/>
<path d="M132.143 135.832L131.515 107.963C131.515 107.963 116.877 103.965 124.161 95.2776C128.854 89.681 130.374 96.7274 134.035 96.6142C138.607 96.4737 133.334 80.7459 146.256 78.3113C157.915 76.1155 161.631 74.5376 166.024 68.4561C166.024 68.4561 173.019 82.6483 172.573 97.0656C172.122 111.641 161.125 120.888 150.988 122.07L150.823 134.245C150.823 134.245 145.278 146.133 132.143 135.832Z" fill="#F6C199"/>
<path d="M167.187 71.0896C166.183 68.5021 166.023 68.4561 166.023 68.4561C161.63 74.5388 157.914 76.1155 146.256 78.3113C143.304 78.8671 141.31 80.1205 139.922 81.7195C143.468 80.2634 148.428 79.2289 153.889 78.9442C160.769 78.5861 164.411 74.361 167.187 71.0896Z" fill="#DDA57F"/>
<path d="M144.396 122.072L150.934 125.848L150.985 122.072C150.985 122.072 150.704 122.477 144.396 122.072Z" fill="#DDA57F"/>
<path d="M166.024 68.4573C166.024 68.4573 173.019 82.6495 172.573 97.0668C172.121 111.642 161.125 120.889 150.987 122.072C150.987 122.072 147.214 122.635 144.398 122.072" stroke="#0A2A42" stroke-miterlimit="10" stroke-linecap="round" stroke-linejoin="round"/>
<path d="M142.262 92.3357C142.262 93.5157 143.218 94.4718 144.398 94.4718C145.578 94.4718 146.534 93.5157 146.534 92.3357" stroke="#0A2A42" stroke-miterlimit="10" stroke-linecap="round" stroke-linejoin="round"/>
<path d="M162.98 89.6822C162.98 90.8622 163.937 91.8184 165.117 91.8184C166.297 91.8184 167.253 90.8622 167.253 89.6822" stroke="#0A2A42" stroke-miterlimit="10" stroke-linecap="round" stroke-linejoin="round"/>
<path d="M154.984 91.3224C154.984 91.3224 160.052 93.0121 157.124 96.7287" stroke="#0A2A42" stroke-miterlimit="10" stroke-linecap="round" stroke-linejoin="round"/>
<path d="M143.702 108.434C144.515 104.367 148.484 106.362 150.968 105.925C153.911 105.405 156.421 103.069 158.671 105.405C160.922 107.741 157.373 113.194 150.796 113.194C144.217 113.194 143.182 111.03 143.702 108.434Z" fill="#0A2A42"/>
<path d="M125.661 102.486C124.594 99.7315 124.09 96.0871 129.071 96.3519" stroke="#0A2A42" stroke-miterlimit="10" stroke-linecap="round" stroke-linejoin="round"/>
<path d="M128.142 100.407L125.309 97.7882" stroke="#0A2A42" stroke-miterlimit="10" stroke-linecap="round" stroke-linejoin="round"/>
<path d="M261.087 63.5776C261.357 63.5776 261.593 63.6789 261.796 63.8815C262.01 64.0728 262.117 64.3148 262.117 64.6074V74.3657C262.117 74.6583 262.01 74.9059 261.796 75.1085C261.582 75.2999 261.335 75.3955 261.053 75.3955C260.738 75.3955 260.485 75.2999 260.293 75.1085C260.102 74.9059 260.006 74.6583 260.006 74.3657V64.6074C260.006 64.3148 260.108 64.0728 260.31 63.8815C260.513 63.6789 260.772 63.5776 261.087 63.5776ZM268.566 63.5776C268.881 63.5776 269.134 63.6789 269.326 63.8815C269.517 64.0728 269.613 64.3148 269.613 64.6074V74.3657C269.613 74.6583 269.511 74.9059 269.309 75.1085C269.118 75.2999 268.859 75.3955 268.532 75.3955C268.262 75.3955 268.02 75.2999 267.806 75.1085C267.604 74.9059 267.502 74.6583 267.502 74.3657V64.6074C267.502 64.3148 267.609 64.0728 267.823 63.8815C268.037 63.6789 268.285 63.5776 268.566 63.5776ZM261.036 68.4905H268.566V70.432H261.036V68.4905ZM273.88 74.3657C273.88 74.6583 273.784 74.9059 273.593 75.1085C273.402 75.2999 273.16 75.3955 272.867 75.3955C272.574 75.3955 272.332 75.2999 272.141 75.1085C271.95 74.9059 271.854 74.6583 271.854 74.3657V67.3931C271.854 67.1005 271.95 66.8585 272.141 66.6671C272.332 66.4645 272.574 66.3632 272.867 66.3632C273.16 66.3632 273.402 66.4645 273.593 66.6671C273.784 66.8585 273.88 67.1005 273.88 67.3931V74.3657ZM272.85 65.2659C272.467 65.2659 272.197 65.204 272.04 65.0801C271.882 64.9563 271.803 64.7369 271.803 64.4217V64.1009C271.803 63.7745 271.888 63.5551 272.057 63.4425C272.237 63.3187 272.507 63.2568 272.867 63.2568C273.261 63.2568 273.537 63.3187 273.694 63.4425C273.852 63.5663 273.931 63.7858 273.931 64.1009V64.4217C273.931 64.7481 273.846 64.9732 273.677 65.097C273.508 65.2096 273.233 65.2659 272.85 65.2659ZM278.528 75.2605C278.528 75.6319 278.421 76.0033 278.207 76.3747C278.005 76.7574 277.735 77.0726 277.397 77.3202C277.071 77.579 276.722 77.7085 276.35 77.7085C276.227 77.7085 276.091 77.6578 275.945 77.5565C275.81 77.4552 275.743 77.2808 275.743 77.0332C275.743 76.7743 275.821 76.6167 275.979 76.5605C276.148 76.5154 276.288 76.4648 276.401 76.4085C276.547 76.3297 276.66 76.2341 276.739 76.1215C276.829 76.0202 276.874 75.8908 276.874 75.7332C276.874 75.6094 276.812 75.4968 276.688 75.3955C276.575 75.3055 276.423 75.2605 276.232 75.2605C276.165 75.2605 276.086 75.2717 275.996 75.2942C275.906 75.3055 275.827 75.3336 275.759 75.3787C275.647 75.3224 275.546 75.2548 275.456 75.1761C275.377 75.086 275.337 74.9453 275.337 74.754C275.337 74.4051 275.495 74.1068 275.81 73.8592C276.136 73.6003 276.514 73.4709 276.941 73.4709C277.425 73.4709 277.808 73.6341 278.089 73.9605C278.382 74.2869 278.528 74.7202 278.528 75.2605Z" fill="#0A2A42"/>
<path d="M261.725 92.8216H342.28" stroke="#0A2A42" stroke-miterlimit="10" stroke-linecap="round" stroke-linejoin="round"/>
<path d="M261.725 104.955H342.28" stroke="#0A2A42" stroke-miterlimit="10" stroke-linecap="round" stroke-linejoin="round"/>
<path d="M261.725 117.089H308.765" stroke="#0A2A42" stroke-miterlimit="10" stroke-linecap="round" stroke-linejoin="round"/>
<path d="M569.867 448.484H231.307C219.758 448.484 210.396 439.122 210.396 427.574V217.785C210.396 206.236 219.758 196.875 231.307 196.875H481.266C491.88 196.875 500.808 204.826 502.036 215.368L523.994 404.094L569.867 448.484Z" fill="#F2F9F1"/>
<path d="M569.867 448.484H231.307C219.758 448.484 210.396 439.122 210.396 427.574V217.785C210.396 206.236 219.758 196.875 231.307 196.875H481.266C491.88 196.875 500.808 204.826 502.036 215.368L523.994 404.094L569.867 448.484Z" stroke="#0A2A42" stroke-miterlimit="10" stroke-linecap="round" stroke-linejoin="round"/>
<path d="M280.976 444.491L280.947 444.564L280.948 444.016C280.948 444.016 278.217 445.834 267.927 444.329C257.638 442.823 250.492 443.448 250.414 446.189C250.336 448.929 256.365 450.109 256.365 450.109C256.365 450.109 244.657 454.292 241.136 456.229C237.613 458.168 240.673 462.007 243.204 461.106C243.204 461.106 238.591 463.14 239.826 465.863C241.062 468.586 245.149 466.619 245.149 466.619C245.149 466.619 241.583 468.354 242.829 470.942C244.433 474.272 257.708 468.273 257.708 468.273C257.708 468.273 255.342 470.792 253.842 473.061C252.344 475.33 254.975 477.66 256.878 475.962C258.782 474.262 261.806 470.513 264.622 470.593C267.439 470.673 277.26 466.988 280.925 460.62L285.576 459.241L280.976 444.491Z" fill="#F6C199"/>
<path d="M256.365 450.109C259.322 450.868 260.523 450.885 260.523 450.885C260.523 450.885 261.344 456.306 267.404 457.975" stroke="#0A2A42" stroke-miterlimit="10" stroke-linecap="round" stroke-linejoin="round"/>
<path d="M243.203 461.107C243.203 461.107 250.655 457.65 257.043 456.224" stroke="#0A2A42" stroke-miterlimit="10" stroke-linecap="round" stroke-linejoin="round"/>
<path d="M245.148 466.62C245.148 466.62 254.082 462.784 258.743 461.637" stroke="#0A2A42" stroke-miterlimit="10" stroke-linecap="round" stroke-linejoin="round"/>
<path d="M257.709 468.273C257.709 468.273 259.271 467.442 260.829 466.873" stroke="#0A2A42" stroke-miterlimit="10" stroke-linecap="round" stroke-linejoin="round"/>
<path d="M256.725 454.98C256.725 454.98 257.191 456.683 257.451 457.328" stroke="#0A2A42" stroke-miterlimit="10" stroke-linecap="round" stroke-linejoin="round"/>
<path d="M258.598 460.656C258.598 460.656 258.682 461.572 258.979 462.478" stroke="#0A2A42" stroke-miterlimit="10" stroke-linecap="round" stroke-linejoin="round"/>
<path d="M260.482 466.061C260.482 466.061 260.879 467.193 261.115 467.667" stroke="#0A2A42" stroke-miterlimit="10" stroke-linecap="round" stroke-linejoin="round"/>
<path d="M278.14 464.066C273.66 468.295 266.885 470.658 264.624 470.593C261.808 470.513 258.784 474.262 256.88 475.962C254.977 477.662 252.345 475.33 253.844 473.061C255.344 470.792 257.71 468.273 257.71 468.273C257.71 468.273 244.435 474.272 242.831 470.942C241.584 468.355 245.151 466.619 245.151 466.619C245.151 466.619 241.066 468.586 239.828 465.863C238.591 463.14 243.206 461.106 243.206 461.106C240.675 462.007 237.615 458.168 241.138 456.229C244.66 454.291 256.367 450.109 256.367 450.109C256.367 450.109 250.336 448.929 250.416 446.189C250.494 443.448 257.641 442.821 267.929 444.328" stroke="#0A2A42" stroke-miterlimit="10" stroke-linecap="round" stroke-linejoin="round"/>
<path d="M373.368 424.737V448.484H485.38C486.553 418.381 487.982 379.247 487.982 367.122C487.982 336.667 482.255 308.807 421.312 308.683C378.313 308.596 364.52 326.791 353.819 356.011C343.119 385.229 340.65 412.803 340.65 412.803L280.977 444.492L286.462 462.077C286.462 462.077 353.202 450.253 373.368 424.737Z" fill="#77C360"/>
<path d="M486.766 411.329L420.566 405.101L374.703 390.984L374.152 403.818C374.152 403.818 405.526 450.11 485.463 446.274C486.061 430.87 486.275 426.255 486.766 411.329Z" fill="#77C360"/>
<path d="M373.369 424.737C374.157 403.624 375.041 379.145 375.48 366.93C375.474 366.92 375.46 366.897 375.46 366.897C375.46 366.897 368.917 415.47 359.196 423.765C347.658 433.611 321.279 450.451 309.723 456.696C330.995 450.926 360.975 440.419 373.369 424.737Z" fill="#77C360"/>
<path d="M373.367 424.737C373.367 424.737 375.219 371.649 376.042 352.1" stroke="#77C360" stroke-miterlimit="10" stroke-linecap="round" stroke-linejoin="round"/>
<path d="M401.915 310.165C373.746 315.049 362.714 331.721 353.819 356.011C343.119 385.229 340.65 412.803 340.65 412.803L280.977 444.493L286.462 462.077C286.462 462.077 353.202 450.253 373.368 424.739V448.485H485.38C486.553 418.382 487.982 379.249 487.982 367.123C487.982 342.928 484.368 320.368 452.318 312.056" stroke="#77C360" stroke-miterlimit="10" stroke-linecap="round" stroke-linejoin="round"/>
<path d="M442.551 310.12C436.342 309.204 429.314 308.699 421.311 308.682C416.55 308.672 412.165 308.899 408.084 309.328C410.193 313.53 415.293 320.697 425.735 321.132C434.141 321.482 439.491 315.427 442.551 310.12Z" fill="#77C360"/>
<path d="M465.564 360.269C465.564 361.545 464.313 411.642 464.313 411.642L451.072 408.93L465.564 360.269Z" fill="#77C360"/>
<path d="M356.566 401.661L314.701 394.575C311.642 394.057 309.582 391.157 310.099 388.098L320.744 325.203C321.262 322.143 324.162 320.082 327.221 320.601L369.086 327.687C372.145 328.206 374.205 331.105 373.688 334.164L363.043 397.059C362.525 400.119 359.625 402.179 356.566 401.661Z" fill="black"/>
<path d="M348.296 362.215C348.894 358.679 346.513 355.328 342.977 354.729C339.441 354.13 336.09 356.512 335.49 360.048C334.892 363.584 337.273 366.935 340.81 367.534C344.347 368.131 347.698 365.75 348.296 362.215Z" fill="white"/>
<path d="M348.296 362.215C348.894 358.679 346.513 355.328 342.977 354.729C339.441 354.13 336.09 356.512 335.49 360.048C334.892 363.584 337.273 366.935 340.81 367.534C344.347 368.131 347.698 365.75 348.296 362.215Z" stroke="#0A2A42" stroke-miterlimit="10" stroke-linecap="round" stroke-linejoin="round"/>
<path d="M372.497 341.203L363.043 397.059C362.526 400.119 359.625 402.178 356.566 401.661L314.701 394.575C311.642 394.057 309.582 391.157 310.099 388.098L320.744 325.203C321.262 322.143 324.162 320.082 327.221 320.601L369.086 327.687C372.145 328.206 374.205 331.105 373.688 334.164L373.366 336.07" stroke="#0A2A42" stroke-miterlimit="10" stroke-linecap="round" stroke-linejoin="round"/>
<path d="M377.4 395.637C377.4 395.637 375.631 393.226 368.662 391.946C361.692 390.665 358.613 390.708 356.648 391.094C354.684 391.481 351.915 388.325 355.698 386.842C358.446 385.765 363.732 386.494 363.732 386.494C363.732 386.494 357.279 384.583 351.713 380.46C346.148 376.336 348.559 373.305 350.098 373.309C350.098 373.309 346.951 370.364 348.27 368.021C349.591 365.677 352.259 366.898 352.259 366.898C352.259 366.898 350.194 363.931 351.971 361.922C353.748 359.912 363.148 365.041 368.269 366.934L369.247 361.145C369.247 361.145 373.242 360.587 379.252 366.941C385.263 373.295 382.892 375.329 386.744 379.88L377.4 395.637Z" fill="#F6C199"/>
<path d="M352.258 366.898C354.665 369.357 366.129 374.118 366.129 374.118" stroke="#0A2A42" stroke-miterlimit="10" stroke-linecap="round" stroke-linejoin="round"/>
<path d="M350.096 373.308C352.754 375.502 361.664 379.881 364.283 380.785" stroke="#0A2A42" stroke-miterlimit="10" stroke-linecap="round" stroke-linejoin="round"/>
<path d="M374.471 393.667C373.141 393.058 371.263 392.424 368.662 391.945C361.692 390.664 358.613 390.707 356.648 391.093C354.684 391.48 351.915 388.324 355.698 386.841C358.446 385.764 363.732 386.493 363.732 386.493C363.732 386.493 357.279 384.582 351.713 380.458C346.148 376.335 348.559 373.304 350.098 373.308C350.098 373.308 346.951 370.363 348.27 368.019C349.591 365.676 352.259 366.897 352.259 366.897C352.259 366.897 350.194 363.93 351.971 361.92C353.748 359.911 363.148 365.04 368.269 366.933L369.247 361.143C369.247 361.143 373.242 360.586 379.252 366.94C380.249 367.993 381.015 368.928 381.617 369.775" stroke="#0A2A42" stroke-miterlimit="10" stroke-linecap="round" stroke-linejoin="round"/>
<path d="M466.486 317.562C499.505 332.963 502.386 381.937 499.916 408.276C499.337 414.453 498.128 420.088 496.618 425.094C492.028 440.303 475.381 448.275 460.668 442.282C436.799 432.559 399.658 415.827 376.314 397.467L386.742 379.88L464.523 407.659L466.486 317.562Z" fill="#77C360"/>
<path d="M466.486 317.562C499.505 332.963 502.386 381.937 499.916 408.276C499.337 414.453 498.128 420.088 496.618 425.094C492.028 440.303 475.381 448.275 460.668 442.282C436.799 432.559 399.658 415.827 376.314 397.467L386.742 379.88L464.523 407.659L465.575 359.41" stroke="#0A2A42" stroke-miterlimit="10" stroke-linecap="round" stroke-linejoin="round"/>
<path d="M390.425 252.88C384.839 246.797 381.135 225.809 403.667 220.098C426.199 214.388 439.316 231.827 439.316 231.827C439.316 231.827 449.811 232.599 454.286 249.266C456.861 258.854 452.125 283.475 437.464 296.387C422.803 309.298 419.253 301.583 418.482 300.503C417.711 299.423 390.425 252.88 390.425 252.88Z" fill="#0A2A42"/>
<path d="M414.465 308.835V296.8C414.465 296.8 392.076 295.534 390.034 272.107C388.837 258.372 392.246 245.717 392.246 245.717C392.246 245.717 405.91 250.913 418.421 248.996C423.166 248.27 427.561 251.628 427.969 256.41C428.312 260.444 429.153 264.178 431.059 264.622C435.38 265.625 435.844 255.748 443.019 259.375C450.195 263.002 442.557 274.833 434.84 274.421C434.84 274.421 433.957 284.79 437.464 296.387L436.632 309.388C436.632 309.388 424.388 321.23 414.465 308.835Z" fill="#F6C199"/>
<path d="M426.809 252.872C425.127 250.105 421.87 248.467 418.421 248.996C405.91 250.913 392.246 245.717 392.246 245.717C392.246 245.717 392.103 246.253 391.887 247.21C391.887 247.21 398.349 254.139 407.76 252.568C416.305 251.142 421.429 249.972 426.809 252.872Z" fill="#DDA57F"/>
<path d="M412.385 296.529C413.677 296.755 414.465 296.8 414.465 296.8V300.907C416.487 300.474 419.446 299.493 422.29 297.264C422.29 297.264 415.334 296.993 412.385 296.529Z" fill="#DDA57F"/>
<path d="M392.246 245.717C392.246 245.717 388.837 258.372 390.034 272.107C392.076 295.533 414.465 296.8 414.465 296.8C414.465 296.8 418.843 297.16 422.289 297.262" stroke="#0A2A42" stroke-miterlimit="10" stroke-linecap="round" stroke-linejoin="round"/>
<path d="M399.757 262.527C399.019 261.536 397.847 260.885 396.516 260.885C395.185 260.885 394.014 261.536 393.275 262.527" stroke="#0A2A42" stroke-miterlimit="10" stroke-linecap="round" stroke-linejoin="round"/>
<path d="M420.568 262.527C419.829 261.536 418.658 260.885 417.326 260.885C415.996 260.885 414.825 261.536 414.086 262.527" stroke="#0A2A42" stroke-miterlimit="10" stroke-linecap="round" stroke-linejoin="round"/>
<path d="M406.828 263.003C406.828 263.003 403.897 265.182 406.828 268.424" stroke="#0A2A42" stroke-miterlimit="10" stroke-linecap="round" stroke-linejoin="round"/>
<path d="M415.446 281.778C417.605 281.778 419.356 280.581 419.356 279.104C419.356 277.626 417.605 276.429 415.446 276.429C413.287 276.429 411.537 277.626 411.537 279.104C411.537 280.581 413.287 281.778 415.446 281.778Z" fill="#0A2A42"/>
<path d="M439.906 277.287C433.609 276.803 428.912 270.872 429.436 264.066C429.96 257.259 435.509 252.117 441.806 252.6C448.104 253.085 452.801 259.015 452.278 265.823C451.753 272.628 446.204 277.771 439.906 277.287Z" fill="#FF7654"/>
<path d="M417.379 290.121C417.379 290.121 434.013 288.879 439.534 273.6" stroke="#FF7654" stroke-width="1.1774" stroke-miterlimit="10" stroke-linecap="round"/>
<path d="M411.066 292.679C409.895 292.59 408.953 291.633 408.91 290.431C408.863 289.139 409.872 288.054 411.163 288.006L417.294 287.783C418.583 287.728 419.671 288.744 419.719 290.036C419.766 291.327 418.756 292.413 417.466 292.46L411.334 292.684C411.244 292.688 411.154 292.687 411.066 292.679Z" fill="#FF7654"/>
<path d="M449.166 265.583C449.559 260.484 446.156 256.065 441.568 255.711C436.979 255.358 432.941 259.205 432.548 264.305C432.157 269.404 435.559 273.823 440.147 274.176C444.735 274.529 448.775 270.681 449.166 265.583Z" fill="#0A2A42"/>
<path d="M441.872 252.954C442.926 240.367 443.033 228.288 431.119 223.614" stroke="#FF7654" stroke-width="1.1774" stroke-miterlimit="10" stroke-linecap="round"/>
<path d="M247.834 245.031C248.126 245.031 248.368 245.127 248.56 245.318C248.762 245.498 248.864 245.735 248.864 246.027C248.864 246.309 248.762 246.545 248.56 246.736C248.368 246.916 248.126 247.007 247.834 247.007H242.347C242.054 247.007 241.807 246.911 241.604 246.72C241.413 246.517 241.317 246.269 241.317 245.977V236.218C241.317 235.926 241.418 235.684 241.621 235.492C241.823 235.29 242.082 235.189 242.397 235.189C242.668 235.189 242.904 235.29 243.107 235.492C243.32 235.684 243.427 235.926 243.427 236.218V245.318L243.056 245.031H247.834ZM254.883 247.175C253.926 247.175 253.093 246.978 252.384 246.584C251.686 246.179 251.146 245.633 250.763 244.947C250.392 244.26 250.206 243.484 250.206 242.617C250.206 241.604 250.409 240.743 250.814 240.034C251.23 239.314 251.771 238.762 252.435 238.379C253.099 237.997 253.802 237.805 254.545 237.805C255.119 237.805 255.659 237.924 256.166 238.16C256.684 238.396 257.139 238.723 257.533 239.139C257.927 239.544 258.237 240.017 258.462 240.557C258.698 241.098 258.816 241.672 258.816 242.279C258.805 242.549 258.698 242.769 258.496 242.938C258.293 243.107 258.057 243.191 257.787 243.191H251.337L250.831 241.503H257.027L256.655 241.84V241.385C256.633 241.058 256.515 240.766 256.301 240.507C256.098 240.248 255.839 240.045 255.524 239.899C255.22 239.741 254.894 239.662 254.545 239.662C254.207 239.662 253.892 239.708 253.6 239.798C253.307 239.888 253.054 240.04 252.84 240.253C252.626 240.467 252.457 240.754 252.333 241.114C252.21 241.475 252.148 241.93 252.148 242.482C252.148 243.09 252.272 243.607 252.519 244.035C252.778 244.452 253.104 244.772 253.498 244.997C253.904 245.211 254.331 245.318 254.781 245.318C255.198 245.318 255.53 245.284 255.778 245.217C256.025 245.149 256.222 245.071 256.368 244.981C256.526 244.879 256.667 244.795 256.79 244.727C256.993 244.626 257.184 244.575 257.364 244.575C257.612 244.575 257.815 244.66 257.972 244.829C258.141 244.997 258.226 245.194 258.226 245.42C258.226 245.723 258.068 245.999 257.753 246.247C257.46 246.494 257.049 246.714 256.52 246.905C255.991 247.085 255.445 247.175 254.883 247.175ZM260.688 238.143H264.689C264.959 238.143 265.184 238.233 265.364 238.413C265.544 238.593 265.634 238.818 265.634 239.088C265.634 239.347 265.544 239.567 265.364 239.747C265.184 239.916 264.959 240 264.689 240H260.688C260.418 240 260.193 239.91 260.012 239.73C259.832 239.55 259.742 239.325 259.742 239.055C259.742 238.796 259.832 238.582 260.012 238.413C260.193 238.233 260.418 238.143 260.688 238.143ZM262.494 236.033C262.787 236.033 263.023 236.134 263.203 236.337C263.395 236.528 263.49 236.77 263.49 237.063V244.575C263.49 244.733 263.518 244.862 263.575 244.964C263.642 245.065 263.727 245.138 263.828 245.183C263.941 245.228 264.059 245.251 264.183 245.251C264.318 245.251 264.441 245.228 264.554 245.183C264.666 245.127 264.796 245.099 264.942 245.099C265.1 245.099 265.24 245.172 265.364 245.318C265.499 245.465 265.567 245.667 265.567 245.926C265.567 246.241 265.392 246.5 265.044 246.703C264.706 246.905 264.34 247.007 263.946 247.007C263.71 247.007 263.445 246.99 263.153 246.956C262.871 246.911 262.601 246.815 262.342 246.669C262.095 246.511 261.886 246.275 261.718 245.96C261.549 245.645 261.464 245.211 261.464 244.66V237.063C261.464 236.77 261.56 236.528 261.751 236.337C261.954 236.134 262.202 236.033 262.494 236.033ZM276.97 237.805C277.871 237.805 278.535 238.025 278.963 238.464C279.39 238.892 279.672 239.449 279.807 240.135L279.52 239.983L279.655 239.713C279.79 239.454 279.998 239.179 280.279 238.886C280.561 238.582 280.898 238.329 281.292 238.126C281.698 237.912 282.148 237.805 282.643 237.805C283.453 237.805 284.067 237.98 284.483 238.329C284.911 238.678 285.204 239.145 285.361 239.73C285.519 240.304 285.598 240.946 285.598 241.655V245.977C285.598 246.269 285.502 246.517 285.311 246.72C285.119 246.911 284.877 247.007 284.585 247.007C284.292 247.007 284.05 246.911 283.859 246.72C283.667 246.517 283.572 246.269 283.572 245.977V241.655C283.572 241.283 283.527 240.951 283.437 240.659C283.346 240.355 283.183 240.113 282.947 239.933C282.711 239.753 282.373 239.662 281.934 239.662C281.506 239.662 281.14 239.753 280.837 239.933C280.533 240.113 280.302 240.355 280.144 240.659C279.998 240.951 279.925 241.283 279.925 241.655V245.977C279.925 246.269 279.829 246.517 279.638 246.72C279.447 246.911 279.205 247.007 278.912 247.007C278.619 247.007 278.377 246.911 278.186 246.72C277.995 246.517 277.899 246.269 277.899 245.977V241.655C277.899 241.283 277.854 240.951 277.764 240.659C277.674 240.355 277.511 240.113 277.274 239.933C277.038 239.753 276.7 239.662 276.261 239.662C275.834 239.662 275.468 239.753 275.164 239.933C274.86 240.113 274.629 240.355 274.472 240.659C274.325 240.951 274.252 241.283 274.252 241.655V245.977C274.252 246.269 274.157 246.517 273.965 246.72C273.774 246.911 273.532 247.007 273.239 247.007C272.947 247.007 272.705 246.911 272.513 246.72C272.322 246.517 272.226 246.269 272.226 245.977V239.004C272.226 238.711 272.322 238.469 272.513 238.278C272.705 238.076 272.947 237.974 273.239 237.974C273.532 237.974 273.774 238.076 273.965 238.278C274.157 238.469 274.252 238.711 274.252 239.004V239.73L273.999 239.679C274.1 239.488 274.241 239.285 274.421 239.072C274.601 238.846 274.821 238.638 275.08 238.447C275.338 238.256 275.625 238.104 275.941 237.991C276.256 237.867 276.599 237.805 276.97 237.805ZM292.045 247.175C291.088 247.175 290.255 246.978 289.546 246.584C288.848 246.179 288.308 245.633 287.925 244.947C287.554 244.26 287.368 243.484 287.368 242.617C287.368 241.604 287.571 240.743 287.976 240.034C288.392 239.314 288.933 238.762 289.597 238.379C290.261 237.997 290.964 237.805 291.707 237.805C292.281 237.805 292.821 237.924 293.328 238.16C293.845 238.396 294.301 238.723 294.695 239.139C295.089 239.544 295.399 240.017 295.624 240.557C295.86 241.098 295.978 241.672 295.978 242.279C295.967 242.549 295.86 242.769 295.658 242.938C295.455 243.107 295.219 243.191 294.948 243.191H288.499L287.993 241.503H294.189L293.817 241.84V241.385C293.795 241.058 293.677 240.766 293.463 240.507C293.26 240.248 293.001 240.045 292.686 239.899C292.382 239.741 292.056 239.662 291.707 239.662C291.369 239.662 291.054 239.708 290.762 239.798C290.469 239.888 290.216 240.04 290.002 240.253C289.788 240.467 289.619 240.754 289.495 241.114C289.372 241.475 289.31 241.93 289.31 242.482C289.31 243.09 289.433 243.607 289.681 244.035C289.94 244.452 290.266 244.772 290.66 244.997C291.065 245.211 291.493 245.318 291.943 245.318C292.36 245.318 292.692 245.284 292.939 245.217C293.187 245.149 293.384 245.071 293.53 244.981C293.688 244.879 293.829 244.795 293.952 244.727C294.155 244.626 294.346 244.575 294.526 244.575C294.774 244.575 294.977 244.66 295.134 244.829C295.303 244.997 295.387 245.194 295.387 245.42C295.387 245.723 295.23 245.999 294.915 246.247C294.622 246.494 294.211 246.714 293.682 246.905C293.153 247.085 292.607 247.175 292.045 247.175ZM301.957 245.605C301.844 245.448 301.794 245.245 301.805 244.997C301.816 244.75 301.962 244.536 302.244 244.356C302.424 244.243 302.615 244.198 302.818 244.221C303.02 244.232 303.217 244.333 303.409 244.525C303.735 244.851 304.078 245.104 304.439 245.284C304.799 245.465 305.249 245.555 305.789 245.555C305.958 245.543 306.144 245.521 306.346 245.487C306.549 245.442 306.723 245.352 306.87 245.217C307.027 245.071 307.106 244.851 307.106 244.559C307.106 244.311 307.022 244.114 306.853 243.968C306.684 243.821 306.459 243.697 306.178 243.596C305.907 243.495 305.604 243.399 305.266 243.309C304.917 243.208 304.557 243.095 304.185 242.972C303.825 242.848 303.493 242.69 303.189 242.499C302.885 242.296 302.638 242.032 302.446 241.705C302.255 241.379 302.159 240.968 302.159 240.473C302.159 239.91 302.317 239.432 302.632 239.038C302.947 238.644 303.352 238.34 303.848 238.126C304.354 237.912 304.883 237.805 305.435 237.805C305.784 237.805 306.149 237.85 306.532 237.94C306.915 238.019 307.281 238.154 307.629 238.346C307.978 238.526 308.271 238.768 308.507 239.072C308.631 239.24 308.704 239.443 308.727 239.679C308.749 239.916 308.642 240.13 308.406 240.321C308.237 240.456 308.04 240.518 307.815 240.507C307.59 240.484 307.404 240.405 307.258 240.27C307.067 240.023 306.808 239.826 306.481 239.679C306.166 239.533 305.8 239.46 305.384 239.46C305.215 239.46 305.03 239.482 304.827 239.527C304.636 239.561 304.467 239.646 304.32 239.781C304.174 239.904 304.101 240.107 304.101 240.388C304.101 240.647 304.185 240.856 304.354 241.013C304.523 241.159 304.748 241.283 305.03 241.385C305.322 241.475 305.632 241.565 305.958 241.655C306.296 241.745 306.639 241.852 306.988 241.975C307.337 242.099 307.658 242.262 307.95 242.465C308.243 242.668 308.479 242.932 308.659 243.259C308.839 243.574 308.929 243.979 308.929 244.474C308.929 245.048 308.761 245.538 308.423 245.943C308.085 246.348 307.663 246.658 307.157 246.871C306.65 247.074 306.133 247.175 305.604 247.175C304.939 247.175 304.275 247.063 303.611 246.838C302.947 246.601 302.396 246.191 301.957 245.605ZM314.879 247.175C313.923 247.175 313.09 246.978 312.381 246.584C311.683 246.179 311.143 245.633 310.76 244.947C310.388 244.26 310.203 243.484 310.203 242.617C310.203 241.604 310.405 240.743 310.811 240.034C311.227 239.314 311.767 238.762 312.431 238.379C313.095 237.997 313.799 237.805 314.542 237.805C315.116 237.805 315.656 237.924 316.162 238.16C316.68 238.396 317.136 238.723 317.53 239.139C317.924 239.544 318.233 240.017 318.458 240.557C318.695 241.098 318.813 241.672 318.813 242.279C318.802 242.549 318.695 242.769 318.492 242.938C318.29 243.107 318.053 243.191 317.783 243.191H311.334L310.827 241.503H317.023L316.652 241.84V241.385C316.629 241.058 316.511 240.766 316.297 240.507C316.095 240.248 315.836 240.045 315.521 239.899C315.217 239.741 314.891 239.662 314.542 239.662C314.204 239.662 313.889 239.708 313.596 239.798C313.304 239.888 313.05 240.04 312.836 240.253C312.623 240.467 312.454 240.754 312.33 241.114C312.206 241.475 312.144 241.93 312.144 242.482C312.144 243.09 312.268 243.607 312.516 244.035C312.775 244.452 313.101 244.772 313.495 244.997C313.9 245.211 314.328 245.318 314.778 245.318C315.194 245.318 315.526 245.284 315.774 245.217C316.022 245.149 316.219 245.071 316.365 244.981C316.523 244.879 316.663 244.795 316.787 244.727C316.99 244.626 317.181 244.575 317.361 244.575C317.609 244.575 317.811 244.66 317.969 244.829C318.138 244.997 318.222 245.194 318.222 245.42C318.222 245.723 318.065 245.999 317.749 246.247C317.457 246.494 317.046 246.714 316.517 246.905C315.988 247.085 315.442 247.175 314.879 247.175ZM324.838 247.175C323.881 247.175 323.048 246.978 322.339 246.584C321.641 246.179 321.101 245.633 320.718 244.947C320.347 244.26 320.161 243.484 320.161 242.617C320.161 241.604 320.364 240.743 320.769 240.034C321.185 239.314 321.725 238.762 322.39 238.379C323.054 237.997 323.757 237.805 324.5 237.805C325.074 237.805 325.614 237.924 326.121 238.16C326.638 238.396 327.094 238.723 327.488 239.139C327.882 239.544 328.192 240.017 328.417 240.557C328.653 241.098 328.771 241.672 328.771 242.279C328.76 242.549 328.653 242.769 328.45 242.938C328.248 243.107 328.011 243.191 327.741 243.191H321.292L320.786 241.503H326.982L326.61 241.84V241.385C326.588 241.058 326.47 240.766 326.256 240.507C326.053 240.248 325.794 240.045 325.479 239.899C325.175 239.741 324.849 239.662 324.5 239.662C324.162 239.662 323.847 239.708 323.554 239.798C323.262 239.888 323.009 240.04 322.795 240.253C322.581 240.467 322.412 240.754 322.288 241.114C322.164 241.475 322.103 241.93 322.103 242.482C322.103 243.09 322.226 243.607 322.474 244.035C322.733 244.452 323.059 244.772 323.453 244.997C323.858 245.211 324.286 245.318 324.736 245.318C325.153 245.318 325.485 245.284 325.732 245.217C325.98 245.149 326.177 245.071 326.323 244.981C326.481 244.879 326.621 244.795 326.745 244.727C326.948 244.626 327.139 244.575 327.319 244.575C327.567 244.575 327.769 244.66 327.927 244.829C328.096 244.997 328.18 245.194 328.18 245.42C328.18 245.723 328.023 245.999 327.708 246.247C327.415 246.494 327.004 246.714 326.475 246.905C325.946 247.085 325.4 247.175 324.838 247.175ZM333.107 246.871C333.107 247.243 333.001 247.614 332.787 247.986C332.584 248.368 332.314 248.684 331.976 248.931C331.65 249.19 331.301 249.319 330.93 249.319C330.806 249.319 330.671 249.269 330.524 249.168C330.389 249.066 330.322 248.892 330.322 248.644C330.322 248.385 330.401 248.228 330.558 248.171C330.727 248.126 330.868 248.076 330.98 248.019C331.127 247.941 331.239 247.845 331.318 247.732C331.408 247.631 331.453 247.502 331.453 247.344C331.453 247.22 331.391 247.108 331.267 247.007C331.155 246.916 331.003 246.871 330.811 246.871C330.744 246.871 330.665 246.883 330.575 246.905C330.485 246.916 330.406 246.945 330.339 246.99C330.226 246.933 330.125 246.866 330.035 246.787C329.956 246.697 329.917 246.556 329.917 246.365C329.917 246.016 330.074 245.718 330.389 245.47C330.716 245.211 331.093 245.082 331.52 245.082C332.004 245.082 332.387 245.245 332.669 245.571C332.961 245.898 333.107 246.331 333.107 246.871Z" fill="#0A2A42"/>
<path d="M242.537 301.303H302.559" stroke="#0A2A42" stroke-miterlimit="10" stroke-linecap="round" stroke-linejoin="round"/>
<path d="M242.537 264.903H354.027" stroke="#0A2A42" stroke-miterlimit="10" stroke-linecap="round" stroke-linejoin="round"/>
<path d="M242.537 277.036H354.027" stroke="#0A2A42" stroke-miterlimit="10" stroke-linecap="round" stroke-linejoin="round"/>
<path d="M242.537 289.17H354.027" stroke="#0A2A42" stroke-miterlimit="10" stroke-linecap="round" stroke-linejoin="round"/>
<rect x="87.002" y="499" width="200" height="56" rx="28" fill="#77C360"/>
<path d="M111.668 526.718C111.668 525.494 111.95 524.396 112.514 523.424C113.09 522.452 113.864 521.696 114.836 521.156C115.82 520.604 116.894 520.328 118.058 520.328C119.39 520.328 120.572 520.658 121.604 521.318C122.648 521.966 123.404 522.89 123.872 524.09H121.406C121.082 523.43 120.632 522.938 120.056 522.614C119.48 522.29 118.814 522.128 118.058 522.128C117.23 522.128 116.492 522.314 115.844 522.686C115.196 523.058 114.686 523.592 114.314 524.288C113.954 524.984 113.774 525.794 113.774 526.718C113.774 527.642 113.954 528.452 114.314 529.148C114.686 529.844 115.196 530.384 115.844 530.768C116.492 531.14 117.23 531.326 118.058 531.326C118.814 531.326 119.48 531.164 120.056 530.84C120.632 530.516 121.082 530.024 121.406 529.364H123.872C123.404 530.564 122.648 531.488 121.604 532.136C120.572 532.784 119.39 533.108 118.058 533.108C116.882 533.108 115.808 532.838 114.836 532.298C113.864 531.746 113.09 530.984 112.514 530.012C111.95 529.04 111.668 527.942 111.668 526.718ZM131.224 522.92C131.98 522.92 132.652 523.082 133.24 523.406C133.84 523.73 134.308 524.21 134.644 524.846C134.992 525.482 135.166 526.25 135.166 527.15V533H133.132V527.456C133.132 526.568 132.91 525.89 132.466 525.422C132.022 524.942 131.416 524.702 130.648 524.702C129.88 524.702 129.268 524.942 128.812 525.422C128.368 525.89 128.146 526.568 128.146 527.456V533H126.094V519.68H128.146V524.234C128.494 523.814 128.932 523.49 129.46 523.262C130 523.034 130.588 522.92 131.224 522.92ZM136.919 527.996C136.919 527 137.123 526.118 137.531 525.35C137.951 524.582 138.515 523.988 139.223 523.568C139.943 523.136 140.735 522.92 141.599 522.92C142.379 522.92 143.057 523.076 143.633 523.388C144.221 523.688 144.689 524.066 145.037 524.522V523.082H147.107V533H145.037V531.524C144.689 531.992 144.215 532.382 143.615 532.694C143.015 533.006 142.331 533.162 141.563 533.162C140.711 533.162 139.931 532.946 139.223 532.514C138.515 532.07 137.951 531.458 137.531 530.678C137.123 529.886 136.919 528.992 136.919 527.996ZM145.037 528.032C145.037 527.348 144.893 526.754 144.605 526.25C144.329 525.746 143.963 525.362 143.507 525.098C143.051 524.834 142.559 524.702 142.031 524.702C141.503 524.702 141.011 524.834 140.555 525.098C140.099 525.35 139.727 525.728 139.439 526.232C139.163 526.724 139.025 527.312 139.025 527.996C139.025 528.68 139.163 529.28 139.439 529.796C139.727 530.312 140.099 530.708 140.555 530.984C141.023 531.248 141.515 531.38 142.031 531.38C142.559 531.38 143.051 531.248 143.507 530.984C143.963 530.72 144.329 530.336 144.605 529.832C144.893 529.316 145.037 528.716 145.037 528.032ZM152.016 524.756V530.246C152.016 530.618 152.1 530.888 152.268 531.056C152.448 531.212 152.748 531.29 153.168 531.29H154.428V533H152.808C151.884 533 151.176 532.784 150.684 532.352C150.192 531.92 149.946 531.218 149.946 530.246V524.756H148.776V523.082H149.946V520.616H152.016V523.082H154.428V524.756H152.016ZM176.926 520.49L173.218 533H170.896L168.268 523.532L165.478 533L163.174 533.018L159.628 520.49H161.806L164.398 530.678L167.206 520.49H169.51L172.12 530.624L174.73 520.49H176.926ZM179.482 521.768C179.11 521.768 178.798 521.642 178.546 521.39C178.294 521.138 178.168 520.826 178.168 520.454C178.168 520.082 178.294 519.77 178.546 519.518C178.798 519.266 179.11 519.14 179.482 519.14C179.842 519.14 180.148 519.266 180.4 519.518C180.652 519.77 180.778 520.082 180.778 520.454C180.778 520.826 180.652 521.138 180.4 521.39C180.148 521.642 179.842 521.768 179.482 521.768ZM180.49 523.082V533H178.438V523.082H180.49ZM185.398 524.756V530.246C185.398 530.618 185.482 530.888 185.65 531.056C185.83 531.212 186.13 531.29 186.55 531.29H187.81V533H186.19C185.266 533 184.558 532.784 184.066 532.352C183.574 531.92 183.328 531.218 183.328 530.246V524.756H182.158V523.082H183.328V520.616H185.398V523.082H187.81V524.756H185.398ZM194.651 522.92C195.407 522.92 196.079 523.082 196.667 523.406C197.267 523.73 197.735 524.21 198.071 524.846C198.419 525.482 198.593 526.25 198.593 527.15V533H196.559V527.456C196.559 526.568 196.337 525.89 195.893 525.422C195.449 524.942 194.843 524.702 194.075 524.702C193.307 524.702 192.695 524.942 192.239 525.422C191.795 525.89 191.573 526.568 191.573 527.456V533H189.521V519.68H191.573V524.234C191.921 523.814 192.359 523.49 192.887 523.262C193.427 523.034 194.015 522.92 194.651 522.92ZM207.561 520.49V528.464C207.561 529.412 207.807 530.126 208.299 530.606C208.803 531.086 209.499 531.326 210.387 531.326C211.287 531.326 211.983 531.086 212.475 530.606C212.979 530.126 213.231 529.412 213.231 528.464V520.49H215.283V528.428C215.283 529.448 215.061 530.312 214.617 531.02C214.173 531.728 213.579 532.256 212.835 532.604C212.091 532.952 211.269 533.126 210.369 533.126C209.469 533.126 208.647 532.952 207.903 532.604C207.171 532.256 206.589 531.728 206.157 531.02C205.725 530.312 205.509 529.448 205.509 528.428V520.49H207.561ZM221.374 533.162C220.594 533.162 219.892 533.024 219.268 532.748C218.656 532.46 218.17 532.076 217.81 531.596C217.45 531.104 217.258 530.558 217.234 529.958H219.358C219.394 530.378 219.592 530.732 219.952 531.02C220.324 531.296 220.786 531.434 221.338 531.434C221.914 531.434 222.358 531.326 222.67 531.11C222.994 530.882 223.156 530.594 223.156 530.246C223.156 529.874 222.976 529.598 222.616 529.418C222.268 529.238 221.71 529.04 220.942 528.824C220.198 528.62 219.592 528.422 219.124 528.23C218.656 528.038 218.248 527.744 217.9 527.348C217.564 526.952 217.396 526.43 217.396 525.782C217.396 525.254 217.552 524.774 217.864 524.342C218.176 523.898 218.62 523.55 219.196 523.298C219.784 523.046 220.456 522.92 221.212 522.92C222.34 522.92 223.246 523.208 223.93 523.784C224.626 524.348 224.998 525.122 225.046 526.106H222.994C222.958 525.662 222.778 525.308 222.454 525.044C222.13 524.78 221.692 524.648 221.14 524.648C220.6 524.648 220.186 524.75 219.898 524.954C219.61 525.158 219.466 525.428 219.466 525.764C219.466 526.028 219.562 526.25 219.754 526.43C219.946 526.61 220.18 526.754 220.456 526.862C220.732 526.958 221.14 527.084 221.68 527.24C222.4 527.432 222.988 527.63 223.444 527.834C223.912 528.026 224.314 528.314 224.65 528.698C224.986 529.082 225.16 529.592 225.172 530.228C225.172 530.792 225.016 531.296 224.704 531.74C224.392 532.184 223.948 532.532 223.372 532.784C222.808 533.036 222.142 533.162 221.374 533.162Z" fill="#243853"/>
<circle cx="257.002" cy="527" r="20" fill="black"/>
<path d="M264.542 519.544C262.727 517.589 249.075 522.378 249.086 524.126C249.099 526.108 254.418 526.718 255.892 527.132C256.779 527.38 257.016 527.635 257.22 528.565C258.146 532.775 258.611 534.87 259.67 534.916C261.359 534.991 266.314 521.452 264.542 519.544Z" stroke="white" stroke-width="1.5"/>
<path d="M256.586 527.417L259.503 524.5" stroke="white" stroke-width="1.5" stroke-linecap="round" stroke-linejoin="round"/>
</svg>
