<svg width="274" height="71" viewBox="0 0 274 71" fill="none" xmlns="http://www.w3.org/2000/svg">
<circle cx="4.2745" cy="4.2745" r="3.7745" transform="matrix(1 0 0 -1 0 71)" stroke="#77C360"/>
<path d="M273.507 59.0408L264.963 57.6276L270.459 50.9347L273.507 59.0408ZM10.1227 58.5755C10.6365 57.9259 11.1648 57.2727 11.7073 56.6163L12.8635 57.5719C12.3277 58.2201 11.8062 58.8651 11.2991 59.5061L10.1227 58.5755ZM15.0492 52.7383C16.1644 51.4953 17.3284 50.2454 18.5405 48.9922L19.6187 50.0351C18.4195 51.2749 17.2682 52.5112 16.1657 53.74L15.0492 52.7383ZM22.1691 45.3724C23.3768 44.2091 24.6251 43.0462 25.9133 41.8867L26.9168 43.0016C25.6411 44.1498 24.4052 45.3012 23.2097 46.4527L22.1691 45.3724ZM29.7543 38.5416C31.0383 37.4594 32.357 36.3829 33.71 35.3145L34.6396 36.4917C33.2992 37.5502 31.9928 38.6167 30.7209 39.6885L29.7543 38.5416ZM37.7759 32.2066C39.1339 31.2018 40.5227 30.2068 41.942 29.2237L42.7961 30.4568C41.3898 31.431 40.0136 32.4169 38.668 33.4124L37.7759 32.2066ZM46.1704 26.3899C47.5858 25.4725 49.0286 24.568 50.4985 23.6784L51.2752 24.9616C49.8186 25.8433 48.3888 26.7396 46.9862 27.6487L46.1704 26.3899ZM54.9226 21.0932C56.3909 20.2653 57.8839 19.4531 59.4013 18.6582L60.0974 19.9869C58.5938 20.7746 57.1143 21.5795 55.6593 22.3998L54.9226 21.0932ZM63.9585 16.36C65.4838 15.6201 67.032 14.8984 68.6026 14.1964L69.2147 15.5659C67.6585 16.2614 66.1245 16.9765 64.6131 17.7096L63.9585 16.36ZM73.2888 12.1891C74.8529 11.5479 76.4378 10.9267 78.0431 10.327L78.568 11.7322C76.9776 12.3263 75.4074 12.9417 73.8577 13.577L73.2888 12.1891ZM82.8754 8.60888C84.472 8.06968 86.0876 7.5521 87.7218 7.05748L88.1564 8.49316C86.5375 8.98314 84.937 9.49587 83.3553 10.03L82.8754 8.60888ZM92.6392 5.65479C94.2751 5.21643 95.9285 4.80136 97.5992 4.41085L97.9406 5.87148C96.2857 6.25829 94.6479 6.66944 93.0275 7.10367L92.6392 5.65479ZM102.581 3.33055C104.247 2.99738 105.929 2.68885 107.627 2.40615L107.873 3.88578C106.191 4.16579 104.525 4.4714 102.876 4.80141L102.581 3.33055ZM112.659 1.65118C114.339 1.42683 116.033 1.22794 117.741 1.05559L117.892 2.54802C116.199 2.71874 114.521 2.91575 112.858 3.13797L112.659 1.65118ZM122.829 0.62476C124.515 0.509247 126.213 0.41972 127.926 0.357162L127.98 1.85616C126.284 1.91813 124.601 2.00682 122.932 2.12125L122.829 0.62476ZM133.046 0.251652C134.731 0.24369 136.427 0.261978 138.136 0.307407L138.096 1.80688C136.403 1.76186 134.722 1.74375 133.053 1.75164L133.046 0.251652ZM143.267 0.524185C144.944 0.62125 146.632 0.744583 148.331 0.895L148.199 2.38916C146.515 2.24009 144.842 2.11787 143.18 2.02168L143.267 0.524185ZM153.447 1.42667C155.111 1.62521 156.786 1.84984 158.47 2.10131L158.249 3.58487C156.579 3.33558 154.919 3.1129 153.269 2.91611L153.447 1.42667ZM163.546 2.93578C165.195 3.23166 166.852 3.55336 168.519 3.90152L168.212 5.36983C166.559 5.02456 164.916 4.70556 163.281 4.41219L163.546 2.93578ZM173.545 5.02594C175.171 5.41386 176.806 5.82708 178.448 6.26619L178.061 7.71531C176.431 7.27968 174.81 6.86978 173.197 6.485L173.545 5.02594ZM183.4 7.6618C185.004 8.13725 186.616 8.63748 188.235 9.16305L187.772 10.5898C186.165 10.0682 184.566 9.57174 182.974 9.09997L183.4 7.6618ZM193.094 10.8094C194.677 11.3681 196.267 11.9511 197.863 12.5589L197.329 13.9607C195.744 13.3573 194.166 12.7785 192.595 12.2239L193.094 10.8094ZM202.615 14.4342C204.178 15.0726 205.747 15.7348 207.322 16.4213L206.723 17.7963C205.158 17.1145 203.6 16.4568 202.048 15.8229L202.615 14.4342ZM211.955 18.503C213.501 19.2184 215.052 19.9573 216.609 20.7201L215.949 22.0672C214.402 21.3092 212.861 20.575 211.325 19.8642L211.955 18.503ZM221.113 22.9854C222.619 23.7628 224.13 24.5626 225.646 25.3852L224.931 26.7036C223.424 25.8859 221.922 25.091 220.425 24.3184L221.113 22.9854ZM230.093 27.8554C231.553 28.6853 233.017 29.5365 234.486 30.4091L233.72 31.6987C232.259 30.8309 230.803 29.9846 229.352 29.1594L230.093 27.8554ZM238.904 33.0912C240.316 33.9666 241.732 34.8619 243.152 35.7775L242.339 37.0381C240.926 36.1273 239.518 35.2367 238.114 34.366L238.904 33.0912ZM247.423 38.5852C248.83 39.5284 250.242 40.4916 251.657 41.475L250.801 42.7068C249.393 41.7282 247.988 40.7698 246.588 39.8314L247.423 38.5852ZM255.777 44.3877C257.154 45.3777 258.534 46.3869 259.917 47.4155L259.022 48.6192C257.645 47.5953 256.272 46.5908 254.902 45.6055L255.777 44.3877ZM263.987 50.4907C265.313 51.5085 266.642 52.5441 267.973 53.5979L267.042 54.7741C265.717 53.7249 264.394 52.6938 263.074 51.6806L263.987 50.4907Z" fill="#77C360"/>
</svg>
