<svg width="274" height="71" viewBox="0 0 274 71" fill="none" xmlns="http://www.w3.org/2000/svg">
<circle cx="4.2745" cy="4.2745" r="3.7745" stroke="#77C360"/>
<path d="M273.507 11.9592L264.963 13.3724L270.459 20.0653L273.507 11.9592ZM10.1227 12.4245C10.6365 13.0741 11.1648 13.7273 11.7073 14.3837L12.8635 13.4281C12.3277 12.7799 11.8062 12.1349 11.2991 11.4939L10.1227 12.4245ZM15.0492 18.2617C16.1644 19.5047 17.3284 20.7546 18.5405 22.0078L19.6187 20.9649C18.4195 19.7251 17.2682 18.4888 16.1657 17.26L15.0492 18.2617ZM22.1691 25.6276C23.3768 26.7909 24.6251 27.9538 25.9133 29.1133L26.9168 27.9984C25.6411 26.8502 24.4052 25.6988 23.2097 24.5473L22.1691 25.6276ZM29.7543 32.4584C31.0383 33.5406 32.357 34.6171 33.71 35.6855L34.6396 34.5083C33.2992 33.4498 31.9928 32.3833 30.7209 31.3115L29.7543 32.4584ZM37.7759 38.7934C39.1339 39.7982 40.5227 40.7932 41.942 41.7763L42.7961 40.5432C41.3898 39.569 40.0136 38.5831 38.668 37.5876L37.7759 38.7934ZM46.1704 44.6101C47.5858 45.5275 49.0286 46.432 50.4985 47.3216L51.2752 46.0384C49.8186 45.1567 48.3888 44.2604 46.9862 43.3513L46.1704 44.6101ZM54.9226 49.9068C56.3909 50.7347 57.8839 51.5469 59.4013 52.3418L60.0974 51.0131C58.5938 50.2254 57.1143 49.4205 55.6593 48.6002L54.9226 49.9068ZM63.9585 54.64C65.4838 55.3799 67.032 56.1016 68.6026 56.8036L69.2147 55.4341C67.6585 54.7386 66.1245 54.0235 64.6131 53.2904L63.9585 54.64ZM73.2888 58.8109C74.8529 59.4521 76.4378 60.0733 78.0431 60.673L78.568 59.2678C76.9776 58.6737 75.4074 58.0583 73.8577 57.423L73.2888 58.8109ZM82.8754 62.3911C84.472 62.9303 86.0876 63.4479 87.7218 63.9425L88.1564 62.5068C86.5375 62.0169 84.937 61.5041 83.3553 60.97L82.8754 62.3911ZM92.6392 65.3452C94.2751 65.7836 95.9285 66.1986 97.5992 66.5892L97.9406 65.1285C96.2857 64.7417 94.6479 64.3306 93.0275 63.8963L92.6392 65.3452ZM102.581 67.6694C104.247 68.0026 105.929 68.3112 107.627 68.5939L107.873 67.1142C106.191 66.8342 104.525 66.5286 102.876 66.1986L102.581 67.6694ZM112.659 69.3488C114.339 69.5732 116.033 69.7721 117.741 69.9444L117.892 68.452C116.199 68.2813 114.521 68.0843 112.858 67.862L112.659 69.3488ZM122.829 70.3752C124.515 70.4908 126.213 70.5803 127.926 70.6428L127.98 69.1438C126.284 69.0819 124.601 68.9932 122.932 68.8787L122.829 70.3752ZM133.046 70.7483C134.731 70.7563 136.427 70.738 138.136 70.6926L138.096 69.1931C136.403 69.2381 134.722 69.2563 133.053 69.2484L133.046 70.7483ZM143.267 70.4758C144.944 70.3787 146.632 70.2554 148.331 70.105L148.199 68.6108C146.515 68.7599 144.842 68.8821 143.18 68.9783L143.267 70.4758ZM153.447 69.5733C155.111 69.3748 156.786 69.1502 158.47 68.8987L158.249 67.4151C156.579 67.6644 154.919 67.8871 153.269 68.0839L153.447 69.5733ZM163.546 68.0642C165.195 67.7683 166.852 67.4466 168.519 67.0985L168.212 65.6302C166.559 65.9754 164.916 66.2944 163.281 66.5878L163.546 68.0642ZM173.545 65.9741C175.171 65.5861 176.806 65.1729 178.448 64.7338L178.061 63.2847C176.431 63.7203 174.81 64.1302 173.197 64.515L173.545 65.9741ZM183.4 63.3382C185.004 62.8628 186.616 62.3625 188.235 61.837L187.772 60.4102C186.165 60.9318 184.566 61.4283 182.974 61.9L183.4 63.3382ZM193.094 60.1906C194.677 59.6319 196.267 59.0489 197.863 58.4411L197.329 57.0393C195.744 57.6427 194.166 58.2215 192.595 58.7761L193.094 60.1906ZM202.615 56.5658C204.178 55.9274 205.747 55.2652 207.322 54.5787L206.723 53.2037C205.158 53.8855 203.6 54.5432 202.048 55.1771L202.615 56.5658ZM211.955 52.497C213.501 51.7816 215.052 51.0427 216.609 50.2799L215.949 48.9328C214.402 49.6908 212.861 50.425 211.325 51.1358L211.955 52.497ZM221.113 48.0146C222.619 47.2372 224.13 46.4374 225.646 45.6148L224.931 44.2964C223.424 45.1141 221.922 45.909 220.425 46.6816L221.113 48.0146ZM230.093 43.1446C231.553 42.3147 233.017 41.4635 234.486 40.5909L233.72 39.3013C232.259 40.1691 230.803 41.0154 229.352 41.8406L230.093 43.1446ZM238.904 37.9088C240.316 37.0334 241.732 36.1381 243.152 35.2225L242.339 33.9619C240.926 34.8727 239.518 35.7633 238.114 36.634L238.904 37.9088ZM247.423 32.4148C248.83 31.4716 250.242 30.5084 251.657 29.525L250.801 28.2932C249.393 29.2718 247.988 30.2302 246.588 31.1686L247.423 32.4148ZM255.777 26.6123C257.154 25.6223 258.534 24.6131 259.917 23.5845L259.022 22.3808C257.645 23.4047 256.272 24.4092 254.902 25.3945L255.777 26.6123ZM263.987 20.5093C265.313 19.4915 266.642 18.4559 267.973 17.4021L267.042 16.2259C265.717 17.2751 264.394 18.3062 263.074 19.3194L263.987 20.5093Z" fill="#77C360"/>
</svg>
