<svg width="59" height="59" viewBox="0 0 59 59" fill="none" xmlns="http://www.w3.org/2000/svg">
<circle cx="29" cy="29" r="23" fill="#75C05F"/>
<path d="M24.7304 12.2653C30.1912 12.271 35.6513 12.259 41.112 12.271C41.1101 23.4186 41.1095 34.5668 41.1127 45.715C34.5297 45.7244 27.9467 45.7156 21.3643 45.7194C19.902 45.715 18.4397 45.7257 16.9773 45.7143C16.9836 37.1621 16.9673 28.6091 16.9855 20.0569C17.2973 19.7672 17.5825 19.451 17.8842 19.1519C17.9447 19.087 18.0064 19.0234 18.0681 18.9604C18.1349 18.8962 18.2035 18.8338 18.2734 18.7734C18.2892 18.7438 18.32 18.6846 18.3358 18.6556C18.3685 18.6424 18.434 18.6172 18.4667 18.604C18.4793 18.5706 18.5045 18.5026 18.5178 18.4686C18.5518 18.4554 18.6204 18.4283 18.655 18.4151C18.6683 18.381 18.6941 18.3124 18.7073 18.2784C18.7413 18.2652 18.8093 18.2387 18.844 18.2255C18.8566 18.1915 18.883 18.1241 18.8962 18.0901C18.9296 18.0762 18.997 18.0498 19.0304 18.0359C19.0442 18.0019 19.072 17.9333 19.0858 17.8986C19.1192 17.8848 19.1866 17.8577 19.2206 17.8439C19.2338 17.8105 19.2603 17.7437 19.2735 17.7103C19.3069 17.6965 19.3742 17.6688 19.4076 17.6549C19.4215 17.6215 19.4492 17.5535 19.463 17.5201C19.4952 17.5076 19.5588 17.4824 19.5903 17.4704C19.606 17.4358 19.6369 17.3677 19.6526 17.3331C19.6854 17.3174 19.7521 17.2852 19.7855 17.2695C19.7987 17.238 19.8264 17.1744 19.8396 17.1429C19.8718 17.1291 19.9354 17.1007 19.9669 17.0869C19.9826 17.0541 20.0141 16.988 20.0298 16.9552C20.0613 16.9401 20.1249 16.9099 20.1564 16.8948C20.1722 16.8627 20.2037 16.7997 20.2188 16.7676C20.2496 16.7512 20.3113 16.7172 20.3422 16.7008C20.3592 16.6731 20.3926 16.6183 20.4096 16.5906C20.5462 16.4716 20.6747 16.3437 20.7988 16.2121C20.8618 16.1498 20.9241 16.0868 20.9858 16.0232C21.2384 15.7706 21.4928 15.5206 21.7403 15.2631C21.8688 15.1396 21.9953 15.0143 22.1182 14.8852C22.1818 14.8235 22.2441 14.7605 22.3058 14.6969C22.3701 14.6345 22.433 14.5716 22.4948 14.5073C22.5584 14.445 22.6213 14.382 22.6837 14.3184C22.7467 14.256 22.8096 14.1931 22.872 14.1295C22.935 14.0665 22.9973 14.0035 23.0597 13.9393C23.1233 13.8769 23.1856 13.8133 23.248 13.7497C23.3122 13.6874 23.3752 13.625 23.4375 13.5614C23.5005 13.4991 23.5628 13.4348 23.6239 13.3706C23.6882 13.3082 23.7505 13.2446 23.8116 13.1798C23.8765 13.1187 23.9395 13.0551 24.0005 12.9902C24.0648 12.9291 24.1265 12.8649 24.1863 12.7994C24.3708 12.6249 24.5434 12.4379 24.7304 12.2653ZM25.8508 13.7195C25.8269 16.1762 25.847 18.6336 25.8407 21.0909C23.3884 21.0891 20.9361 21.0941 18.4837 21.0884C18.4604 25.1719 18.48 29.2553 18.4737 33.3387C18.48 36.9813 18.4611 40.6233 18.4831 44.2652C25.524 44.2602 32.5642 44.2621 39.605 44.2646C39.6289 41.253 39.6088 38.2409 39.6151 35.2293C39.6151 31.4286 39.6151 27.628 39.6151 23.8273C39.6088 20.458 39.6283 17.0888 39.6056 13.7195C35.0209 13.7245 30.4355 13.7245 25.8508 13.7195ZM24.26 14.8581C23.7228 15.4425 23.1409 15.9848 22.5867 16.5528C21.5986 17.5271 20.6369 18.5284 19.6331 19.4857C19.6255 19.5228 19.6104 19.5965 19.6029 19.6337C21.1722 19.6362 22.7423 19.6236 24.3116 19.6393C24.328 19.5467 24.3431 19.4529 24.3463 19.3591C24.3457 17.852 24.3419 16.3444 24.3482 14.8373C24.3261 14.8424 24.282 14.8531 24.26 14.8581Z" fill="white"/>
<path d="M29.0462 16.4243C31.8474 16.4262 34.6493 16.425 37.4505 16.425C37.4511 16.9118 37.4499 17.3986 37.4499 17.8854C34.6474 17.886 31.8455 17.8848 29.0431 17.886C29.0437 17.3986 29.0412 16.9118 29.0462 16.4243Z" fill="white"/>
<path d="M29.043 20.4549C31.8454 20.453 34.6479 20.4549 37.4504 20.4542C37.451 20.9404 37.4491 21.4266 37.4504 21.9134C34.6479 21.9122 31.8454 21.9141 29.043 21.9122C29.043 21.4266 29.043 20.9404 29.043 20.4549Z" fill="white"/>
<path d="M33.7624 27.5473C33.9709 27.4806 34.1938 27.4762 34.3998 27.4025C34.6699 27.3798 34.9426 27.3817 35.2134 27.4012C35.4603 27.4843 35.7317 27.4717 35.9692 27.5889C36.3092 27.7136 36.6166 27.9063 36.9144 28.1091C36.9781 28.1727 37.0442 28.2338 37.1128 28.293C37.1745 28.3566 37.2375 28.4202 37.303 28.4813C37.7646 28.9712 38.0644 29.5966 38.1954 30.2534C38.2433 30.8221 38.2426 31.4066 38.0474 31.9507C37.9813 32.0791 37.9315 32.2145 37.8805 32.3493C37.7369 32.5798 37.6009 32.8166 37.4227 33.0225C36.9182 33.6095 36.2129 33.9565 35.6026 34.4156C35.044 34.7972 34.4842 35.1776 33.9274 35.5624C33.8305 35.614 33.7328 35.6632 33.6371 35.7167C33.2876 35.9094 32.9028 36.0379 32.5067 36.0839C32.1295 36.1053 31.751 36.0946 31.375 36.0618C31.1678 35.9982 30.9499 35.9781 30.7427 35.9144C30.4177 35.7709 30.1117 35.5895 29.8333 35.3684C29.8169 35.3407 29.7842 35.284 29.7678 35.2563C29.7351 35.2563 29.6696 35.2563 29.6368 35.2557C29.6173 35.2828 29.5776 35.3363 29.5581 35.3634C29.4693 35.4144 29.3818 35.4673 29.2949 35.5215C29.3849 35.7986 29.4189 36.0895 29.5039 36.3679C29.526 36.6765 29.5222 36.9869 29.5052 37.2962C29.4214 37.4971 29.434 37.7238 29.3471 37.924C29.2142 38.2899 29.0304 38.6357 28.7936 38.9449C28.7312 39.0135 28.672 39.0853 28.6147 39.159C28.5939 39.1792 28.553 39.2201 28.5328 39.2403C28.4365 39.3366 28.3313 39.4235 28.2312 39.5155C28.1726 39.5589 28.114 39.603 28.0567 39.6477C27.2941 40.1711 26.527 40.6894 25.7681 41.2171C25.6195 41.3204 25.4703 41.423 25.3116 41.5093C25.2889 41.532 25.2435 41.5767 25.2209 41.5994C24.969 41.7335 24.7101 41.8544 24.445 41.9615C23.9223 42.1498 23.3612 42.1674 22.8139 42.1076C22.4064 42.0188 21.9939 41.9243 21.635 41.7008C21.4737 41.6114 21.322 41.5081 21.174 41.3997C21.1097 41.338 21.043 41.2795 20.9743 41.2234C20.4277 40.719 20.0542 40.0445 19.8962 39.3202C19.8653 38.9858 19.864 38.6489 19.8766 38.3139C19.9428 37.6425 20.2249 36.9882 20.6827 36.4913C20.6997 36.4636 20.7338 36.4082 20.7508 36.3811C20.7778 36.3622 20.8307 36.3244 20.8578 36.3055C21.1651 35.9548 21.5865 35.7406 21.9568 35.4661C22.2937 35.2494 22.6098 35.0019 22.955 34.7979C22.977 34.7765 23.0217 34.733 23.0438 34.711C23.6446 34.3469 24.1824 33.8784 24.8285 33.5906C25.1598 33.498 25.4841 33.3544 25.833 33.3462C26.1687 33.3349 26.5106 33.3286 26.84 33.4048C27.2834 33.4798 27.6908 33.6895 28.0391 33.9691C28.0977 34.0365 28.1619 34.0982 28.2249 34.1624C28.2841 34.3514 28.4654 34.3073 28.5983 34.2273C28.6575 34.1731 28.7186 34.1215 28.7816 34.0717C28.7161 33.6807 28.5675 33.3009 28.5687 32.9004C28.5492 32.4482 28.6298 31.9935 28.7772 31.5671C28.8427 31.4223 28.9038 31.2756 28.9693 31.1313C29.276 30.5923 29.7174 30.1401 30.2364 29.8032C30.3862 29.7049 30.533 29.6016 30.6829 29.504C30.7786 29.4291 30.8812 29.3636 30.9814 29.2949C31.4468 28.9838 31.9046 28.662 32.3707 28.3515C32.387 28.3402 32.4198 28.3169 32.4361 28.3049C32.4897 28.2646 32.5457 28.2275 32.603 28.1903C32.8335 28.0228 33.0728 27.866 33.3292 27.7388C33.4721 27.6726 33.6182 27.6116 33.7624 27.5473ZM34.0811 28.8724C33.6548 29.0688 33.3065 29.3913 32.9015 29.6237C32.4254 29.9776 31.9223 30.2931 31.4392 30.6376C31.2893 30.7358 31.1439 30.8404 30.994 30.938C30.7736 31.0986 30.5764 31.2882 30.4196 31.5117C30.3781 31.5728 30.3384 31.6352 30.2968 31.6969C30.0915 32.0899 30.1262 32.5515 30.1986 32.974C30.2748 32.9533 30.3466 32.9199 30.4215 32.8947C30.8781 32.5502 31.3756 32.2624 31.8234 31.9066C32.0784 32.0936 32.188 32.4098 32.3902 32.6459C32.4966 32.7933 32.6081 32.9407 32.6679 33.1157C32.2214 33.3784 31.8196 33.7109 31.3699 33.9691C31.3504 33.9905 31.3107 34.034 31.2906 34.0554C31.2251 34.0887 31.1602 34.1234 31.096 34.1586C31.0563 34.2021 31.0204 34.25 31.0229 34.3111L31.0853 34.2323C31.4858 34.4465 31.9619 34.6499 32.4198 34.5113C33.0401 34.3841 33.5005 33.9143 34.0156 33.5818C34.6448 33.139 35.2777 32.7032 35.9056 32.2586C36.0107 32.1742 36.1121 32.0854 36.2173 32.0011C36.2349 31.9765 36.2689 31.9261 36.2866 31.9009C36.4875 31.7088 36.5895 31.4481 36.6795 31.1918C36.6915 31.1106 36.7035 31.0299 36.718 30.95C36.8792 30.5217 36.6764 30.0658 36.4761 29.6885C36.2658 29.3113 35.9232 29.0374 35.5352 28.8598C35.2046 28.7867 34.8734 28.6759 34.5314 28.7181C34.3853 28.781 34.2278 28.8113 34.0811 28.8724ZM25.3248 34.9528C24.8915 35.1808 24.5048 35.4831 24.0992 35.7545C23.489 36.1531 22.9058 36.5927 22.2874 36.9775C22.266 37.0027 22.2232 37.0524 22.2017 37.077C22.1659 37.0902 22.0953 37.1161 22.06 37.1293C22.0443 37.1589 22.0128 37.2181 21.9971 37.2477C21.9675 37.2628 21.9095 37.293 21.8806 37.3081C21.6721 37.5506 21.5046 37.8239 21.4057 38.1287C21.366 38.4814 21.3679 38.8378 21.4013 39.1905C21.5134 39.5199 21.674 39.8354 21.9228 40.0823C21.9908 40.1427 22.0575 40.2044 22.1224 40.2687C22.3497 40.4286 22.6092 40.5212 22.8737 40.5974C23.3334 40.661 23.8303 40.6497 24.2296 40.3839C24.7901 40.0149 25.3412 39.6301 25.8947 39.2503C26.0446 39.1527 26.1895 39.0488 26.3387 38.9499C26.5994 38.7648 26.8627 38.5815 27.1335 38.4109C27.1555 38.3876 27.2002 38.3397 27.2223 38.3158C27.4937 38.1249 27.6971 37.8523 27.8407 37.5563C27.9075 37.3938 27.9402 37.2206 27.9944 37.0543C28.0038 36.8881 28.0007 36.7212 27.9969 36.5549C27.9648 36.4743 27.9377 36.3924 27.9144 36.3093C27.5113 36.5499 27.1373 36.8352 26.7455 37.0921C26.5818 37.1954 26.4319 37.351 26.2241 37.3497C26.2077 37.3094 26.1743 37.2275 26.158 37.1872C25.9054 36.8767 25.7152 36.5209 25.4627 36.2098C25.7392 36.0366 26.0068 35.8483 26.2745 35.6613C26.425 35.5611 26.5742 35.4579 26.7304 35.3659C26.7518 35.3458 26.7947 35.3042 26.8161 35.2834C26.9118 35.2223 27.0069 35.1606 27.1007 35.0964C27.0371 35.0491 26.9735 35.0019 26.9112 34.9547C26.4143 34.7443 25.8254 34.7689 25.3248 34.9528Z" fill="white"/>
<circle cx="29.5" cy="29.5" r="28.5" stroke="#75C05F" stroke-width="2" stroke-dasharray="10 7"/>
</svg>
