<svg width="973" height="649" viewBox="0 0 973 649" fill="none" xmlns="http://www.w3.org/2000/svg">
<path d="M610.812 537.539H630.271C640.043 537.539 647.952 545.46 647.952 555.232C647.952 565.003 640.043 572.924 630.271 572.924H297.087C287.328 572.924 279.406 565.003 279.406 555.232C279.406 545.46 287.328 537.539 297.087 537.539H610.812Z" fill="white"/>
<path d="M596.938 466.805V537.575H330.434V466.805H596.938Z" fill="white"/>
<path d="M596.94 538.358H330.435C330.008 538.358 329.652 538.014 329.652 537.575V466.793C329.652 466.366 330.008 466.022 330.435 466.022C330.862 466.022 331.218 466.366 331.218 466.793V536.793H596.157V466.793C596.157 466.366 596.501 466.022 596.94 466.022C597.367 466.022 597.722 466.366 597.722 466.793V537.575C597.722 538.014 597.367 538.358 596.94 538.358Z" fill="#25632D"/>
<path d="M630.272 573.706H297.088C286.914 573.706 278.637 565.418 278.637 555.231C278.637 545.045 286.914 536.756 297.088 536.756H315.006C315.433 536.756 315.789 537.1 315.789 537.539C315.789 537.965 315.433 538.321 315.006 538.321H297.088C287.78 538.321 280.202 545.899 280.202 555.231C280.202 564.552 287.78 572.141 297.088 572.141H630.272C639.593 572.141 647.171 564.552 647.171 555.231C647.171 545.899 639.593 538.321 630.272 538.321H610.813C610.374 538.321 610.018 537.965 610.018 537.539C610.018 537.1 610.374 536.756 610.813 536.756H630.272C640.459 536.756 648.736 545.045 648.736 555.231C648.736 565.418 640.459 573.706 630.272 573.706Z" fill="#25632D"/>
<path d="M587.011 484.2H340.357C339.93 484.2 339.574 483.857 339.574 483.43C339.574 482.991 339.93 482.647 340.357 482.647H587.011C587.438 482.647 587.781 482.991 587.781 483.43C587.781 483.857 587.438 484.2 587.011 484.2Z" fill="#25632D"/>
<mask id="mask0_1036_4264" style="mask-type:luminance" maskUnits="userSpaceOnUse" x="103" y="0" width="681" height="468">
<path d="M103.422 0H783.427V467.267H103.422V0Z" fill="white"/>
</mask>
<g mask="url(#mask0_1036_4264)">
<path d="M782.752 429.142C782.752 449.929 765.878 466.78 745.078 466.756L127.092 466.104C114.534 466.104 104.359 455.918 104.359 443.36V23.5384C104.359 10.9686 114.534 0.782227 127.092 0.782227H760.02C772.578 0.782227 782.752 10.9686 782.752 23.5384V429.142Z" fill="white"/>
</g>
<path d="M782.75 36.809H104.357C103.93 36.809 103.574 36.4651 103.574 36.0263C103.574 35.5994 103.93 35.2437 104.357 35.2437H782.75C783.177 35.2437 783.532 35.5994 783.532 36.0263C783.532 36.4651 783.177 36.809 782.75 36.809Z" fill="#25632D"/>
<path d="M125.142 14.4076C122.118 14.4076 119.663 16.8741 119.663 19.898C119.663 22.9337 122.118 25.4003 125.142 25.4003C128.165 25.4003 130.632 22.9337 130.632 19.898C130.632 16.8741 128.165 14.4076 125.142 14.4076ZM125.142 26.9656C121.264 26.9656 118.098 23.7994 118.098 19.898C118.098 16.0085 121.264 12.8423 125.142 12.8423C129.031 12.8423 132.197 16.0085 132.197 19.898C132.197 23.7994 129.031 26.9656 125.142 26.9656Z" fill="#25632D"/>
<path d="M143.438 14.4076C140.415 14.4076 137.948 16.8741 137.948 19.898C137.948 22.9337 140.415 25.4003 143.438 25.4003C146.462 25.4003 148.929 22.9337 148.929 19.898C148.929 16.8741 146.462 14.4076 143.438 14.4076ZM143.438 26.9656C139.549 26.9656 136.395 23.7994 136.395 19.898C136.395 16.0085 139.549 12.8423 143.438 12.8423C147.328 12.8423 150.494 16.0085 150.494 19.898C150.494 23.7994 147.328 26.9656 143.438 26.9656Z" fill="#25632D"/>
<path d="M161.735 14.4076C158.7 14.4076 156.245 16.8741 156.245 19.898C156.245 22.9337 158.7 25.4003 161.735 25.4003C164.759 25.4003 167.214 22.9337 167.214 19.898C167.214 16.8741 164.759 14.4076 161.735 14.4076ZM161.735 26.9656C157.846 26.9656 154.68 23.7994 154.68 19.898C154.68 16.0085 157.846 12.8423 161.735 12.8423C165.613 12.8423 168.779 16.0085 168.779 19.898C168.779 23.7994 165.613 26.9656 161.735 26.9656Z" fill="#25632D"/>
<mask id="mask1_1036_4264" style="mask-type:luminance" maskUnits="userSpaceOnUse" x="103" y="0" width="684" height="471">
<path d="M103.922 0.5H785.963V469.802H103.922V0.5Z" fill="white" stroke="white"/>
</mask>
<g mask="url(#mask1_1036_4264)">
<path d="M127.089 466.387H127.09L729.032 467.087C729.182 467.087 729.314 466.955 729.314 466.804C729.314 466.646 729.187 466.521 729.031 466.521L127.089 465.822V466.387ZM127.089 466.387C114.404 466.387 104.074 456.057 104.074 443.36M127.089 466.387L104.074 443.36M104.074 443.36V23.5388M104.074 443.36V23.5388M104.074 23.5388C104.074 10.8298 114.405 0.5 127.089 0.5M104.074 23.5388L127.089 0.5M127.089 0.5H760.017M127.089 0.5H760.017M760.017 0.5C772.702 0.5 783.032 10.8298 783.032 23.5388M760.017 0.5L783.032 23.5388M783.032 23.5388V238.27M783.032 23.5388V238.27M783.032 238.27C783.032 238.421 782.9 238.553 782.75 238.553M783.032 238.27L782.75 238.553M782.75 238.553C782.599 238.553 782.467 238.421 782.467 238.27M782.75 238.553L782.467 238.27M782.467 238.27V23.5388M782.467 238.27V23.5388M782.467 23.5388C782.467 11.144 772.401 1.0653 760.017 1.0653M782.467 23.5388L760.017 1.0653M760.017 1.0653H127.089M760.017 1.0653H127.089M127.089 1.0653C114.705 1.0653 104.64 11.144 104.64 23.5388M127.089 1.0653L104.64 23.5388M104.64 23.5388V443.36M104.64 23.5388V443.36M104.64 443.36C104.64 455.743 114.705 465.822 127.089 465.822L104.64 443.36Z" fill="#25632D" stroke="black"/>
</g>
<path d="M611.621 379.005H286.892C286.453 379.005 286.109 378.661 286.109 378.223C286.109 377.796 286.453 377.44 286.892 377.44H611.621C612.048 377.44 612.404 377.796 612.404 378.223C612.404 378.661 612.048 379.005 611.621 379.005Z" fill="#25632D"/>
<mask id="mask2_1036_4264" style="mask-type:luminance" maskUnits="userSpaceOnUse" x="680" y="230" width="259" height="419">
<path d="M680.211 230.479H938.249V648.889H680.211V230.479Z" fill="white"/>
</mask>
<g mask="url(#mask2_1036_4264)">
<path d="M891.978 230.775L894.077 233.265C917.746 261.512 931.17 296.933 932.154 333.788C934.431 419.631 938.368 577.94 937.882 632.797C937.811 641.098 931.063 647.774 922.774 647.774H836.789C830.967 647.774 827.718 641.05 831.323 636.485L843.94 620.5L860.376 425.572L794.099 637.671C791.965 643.73 786.237 647.774 779.822 647.774H688.133C682.121 647.774 678.931 640.659 682.927 636.165L699.885 617.096L822.405 288.596L891.978 230.775Z" fill="white"/>
</g>
<mask id="mask3_1036_4264" style="mask-type:luminance" maskUnits="userSpaceOnUse" x="680" y="227" width="262" height="422">
<path d="M680.211 227.442H941.284V648.888H680.211V227.442Z" fill="white"/>
</mask>
<g mask="url(#mask3_1036_4264)">
<path d="M860.374 424.8C860.421 424.8 860.481 424.8 860.528 424.812C860.919 424.883 861.18 425.239 861.157 425.642L844.721 620.57C844.709 620.712 844.65 620.866 844.555 620.985L831.938 636.97C830.432 638.867 830.159 641.31 831.226 643.504C832.282 645.686 834.369 646.99 836.788 646.99H922.773C930.599 646.99 937.026 640.622 937.098 632.796C937.584 578.236 933.718 422.049 931.37 333.811C930.398 297.288 916.938 261.76 893.471 233.774L891.882 231.865L823.068 289.058L700.618 617.368C700.583 617.451 700.535 617.534 700.464 617.617L683.507 636.685C681.87 638.535 681.479 641.085 682.487 643.338C683.507 645.591 685.665 646.99 688.131 646.99H779.82C785.904 646.99 791.335 643.148 793.362 637.409L859.627 425.346C859.734 425.014 860.042 424.8 860.374 424.8ZM922.773 648.556H836.788C833.799 648.556 831.131 646.884 829.815 644.192C828.511 641.488 828.855 638.346 830.716 635.998L843.179 620.202L858.998 432.603L794.845 637.907C792.592 644.287 786.556 648.556 779.82 648.556H688.131C685.036 648.556 682.333 646.801 681.064 643.978C679.795 641.156 680.281 637.966 682.345 635.654L699.207 616.68L821.68 288.323C821.728 288.192 821.799 288.085 821.906 287.991L891.478 230.169C891.811 229.897 892.297 229.944 892.581 230.276L894.668 232.766C918.361 261.025 931.951 296.896 932.935 333.776C935.283 422.026 939.149 578.224 938.663 632.808C938.58 641.488 931.453 648.556 922.773 648.556Z" fill="#25632D"/>
</g>
<path d="M795.483 624.306C795.471 624.306 795.459 624.306 795.447 624.306C765.849 623.049 735.895 620.796 706.439 617.618C706.012 617.57 705.703 617.191 705.751 616.764C705.798 616.325 706.19 616.017 706.617 616.064C736.037 619.242 765.944 621.496 795.507 622.741C795.946 622.752 796.278 623.12 796.254 623.547C796.242 623.974 795.898 624.306 795.483 624.306Z" fill="#25632D"/>
<path d="M907.979 623.607C888.377 623.607 868.716 623.074 849.244 622.006C848.817 621.983 848.485 621.615 848.509 621.188C848.533 620.761 848.912 620.406 849.327 620.453C878.119 622.03 907.326 622.445 936.142 621.686C936.545 621.663 936.937 622.006 936.949 622.445C936.96 622.872 936.617 623.228 936.19 623.24C926.822 623.489 917.406 623.607 907.979 623.607Z" fill="#25632D"/>
<path d="M860.776 423.734C860.705 423.734 860.634 423.722 860.574 423.71C860.159 423.591 859.898 423.165 860.017 422.749L878.196 353.544C880.176 345.978 882.655 338.271 889.094 334.239C889.449 334.013 889.936 334.12 890.173 334.488C890.398 334.855 890.28 335.33 889.924 335.567C883.959 339.29 881.682 346.382 879.702 353.935L861.523 423.153C861.428 423.497 861.12 423.734 860.776 423.734Z" fill="#25632D"/>
<path d="M815.948 95.437C815.948 95.437 805.133 130.633 819.126 133.645C829.941 135.969 842.843 130.55 843.187 129.743C843.531 128.937 848.321 106.857 848.321 106.857L815.948 95.437Z" fill="white"/>
<path d="M816.458 96.4439C815.248 100.689 809.841 121.074 814.786 129.505C815.877 131.355 817.347 132.458 819.304 132.885C829.336 135.043 841.218 130.252 842.499 129.327C842.926 127.869 845.582 115.785 847.408 107.365L816.458 96.4439ZM824.842 134.984C822.849 134.984 820.857 134.806 818.972 134.402C816.6 133.893 814.738 132.517 813.446 130.299C807.588 120.315 814.881 96.2186 815.201 95.1987C815.26 94.9971 815.402 94.8311 815.592 94.7363C815.782 94.6414 816.007 94.6177 816.197 94.6888L848.582 106.12C848.95 106.251 849.163 106.63 849.08 107.022C848.274 110.721 844.254 129.22 843.91 130.05C843.376 131.319 834.032 134.984 824.842 134.984Z" fill="#25632D"/>
<path d="M823.492 125.141L826.931 152.036L854.834 150.897L847.173 110.923L823.492 125.141Z" fill="white"/>
<path d="M826.932 152.818C826.541 152.818 826.209 152.521 826.161 152.13L822.722 125.235C822.663 124.808 822.971 124.417 823.398 124.37C823.825 124.31 824.216 124.619 824.276 125.045L827.62 151.217L853.898 150.161L846.403 111.076C846.32 110.649 846.593 110.234 847.02 110.151C847.447 110.08 847.85 110.353 847.933 110.78L855.605 150.754C855.653 150.98 855.594 151.205 855.451 151.383C855.309 151.561 855.095 151.667 854.87 151.679L826.967 152.818C826.944 152.818 826.944 152.818 826.932 152.818Z" fill="#25632D"/>
<path d="M843.938 81.5499C843.938 81.5499 840.238 72.1106 824.692 72.2767C818.857 72.336 815.525 71.8498 813.64 71.2213C809.821 69.9406 805.576 71.8379 804.283 75.6563C803.382 78.3244 803.963 81.7041 808.126 85.6647C808.126 85.6647 801.556 91.5228 811.944 97.0606C811.944 97.0606 809.062 105.433 821.952 107.271C821.952 107.271 823.945 103.085 828.012 105.444C830.396 106.82 830.609 112.393 826.328 117.327C826.328 117.327 833.123 130.893 845.337 130.75C857.539 130.596 857.563 116.271 857.658 111.563C857.753 106.856 864.465 94.1553 856.437 84.7517C851.61 79.1071 843.938 81.5499 843.938 81.5499Z" fill="#25632D"/>
<path d="M827.07 107.958C827.07 107.958 822.92 105.409 823.584 113.413L827.07 107.958Z" fill="white"/>
<path d="M823.586 114.196C823.182 114.196 822.839 113.887 822.815 113.472C822.518 110.057 823.04 107.982 824.404 107.152C825.518 106.464 826.858 106.915 827.475 107.282C827.843 107.519 827.961 107.994 827.736 108.361C827.511 108.729 827.025 108.848 826.669 108.622C826.645 108.61 825.791 108.124 825.21 108.48C824.854 108.705 824.06 109.63 824.368 113.342C824.404 113.781 824.084 114.148 823.657 114.184C823.633 114.196 823.609 114.196 823.586 114.196Z" fill="#25632D"/>
<path d="M767.76 191.038L760.088 188.014L748.502 200.323C748.502 200.323 711.267 174.886 692.555 158.071C673.842 141.256 655.96 131.473 651.501 132.564C647.054 133.643 648.726 139.845 658.035 145.205C658.035 145.205 649.924 147.434 651.501 154.253C651.501 154.253 645.726 154.383 647.03 162.661C647.03 162.661 640.437 166.194 643.39 173.547C646.331 180.887 654.489 181.1 654.489 181.1C654.489 181.1 676.664 207.26 699.99 230.063C721.406 251.005 753.815 256.057 780.461 242.372C788.773 238.103 796.481 230.206 801.806 224.36L767.76 191.038Z" fill="white"/>
<path d="M652.314 133.251C652.077 133.251 651.864 133.275 651.686 133.322C650.654 133.572 650.061 134.129 649.943 134.959C649.646 137.046 652.172 140.924 658.409 144.529C658.682 144.683 658.836 144.991 658.801 145.299C658.753 145.608 658.54 145.869 658.232 145.952C657.923 146.047 650.867 148.074 652.255 154.075C652.314 154.3 652.255 154.537 652.113 154.727C651.97 154.917 651.757 155.023 651.52 155.035C651.46 155.035 649.883 155.106 648.757 156.47C647.689 157.763 647.369 159.802 647.796 162.541C647.855 162.862 647.689 163.194 647.393 163.348C647.156 163.478 641.464 166.668 644.108 173.25C646.812 180.021 654.188 180.305 654.508 180.317C654.733 180.317 654.935 180.424 655.077 180.59C655.302 180.851 677.501 206.987 700.53 229.506C721.792 250.293 753.774 255.191 780.1 241.684C788.045 237.605 795.575 229.98 800.71 224.383L767.317 191.701L760.285 188.926L749.066 200.856C748.806 201.14 748.367 201.176 748.059 200.963C747.679 200.714 710.562 175.313 692.028 158.652C674.11 142.548 657.224 133.251 652.314 133.251ZM748.817 250.815C730.793 250.815 712.993 243.878 699.439 230.62C677.572 209.24 656.476 184.622 654.105 181.859C652.421 181.716 645.424 180.756 642.65 173.831C639.982 167.154 644.63 163.324 646.183 162.269C645.804 159.304 646.266 157.015 647.583 155.45C648.555 154.276 649.777 153.802 650.583 153.6C649.978 149.07 653.393 146.284 656.227 145.027C651.01 141.683 647.974 137.746 648.401 134.745C648.614 133.251 649.646 132.208 651.318 131.805C656.216 130.607 674.572 140.864 693.071 157.49C710.29 172.977 743.695 196.065 748.391 199.291L759.514 187.48C759.739 187.242 760.071 187.171 760.368 187.29L768.04 190.302C768.135 190.349 768.23 190.397 768.301 190.48L802.346 223.79C802.643 224.086 802.666 224.561 802.382 224.881C797.164 230.608 789.243 238.743 780.811 243.072C770.672 248.277 759.703 250.815 748.817 250.815Z" fill="#25632D"/>
<path d="M654.743 182.238C654.494 182.238 654.245 182.12 654.091 181.906C651.719 178.491 649.502 174.898 647.51 171.246C647.296 170.866 647.439 170.392 647.818 170.178C648.197 169.977 648.672 170.107 648.873 170.499C650.842 174.103 653.024 177.649 655.372 181.005C655.621 181.361 655.538 181.859 655.182 182.096C655.052 182.191 654.886 182.238 654.743 182.238Z" fill="#25632D"/>
<path d="M655.495 166.658C655.317 166.658 655.128 166.587 654.985 166.456C652.744 164.511 649.768 163.468 646.791 163.598C646.779 163.598 646.767 163.598 646.756 163.598C646.341 163.598 645.997 163.278 645.973 162.863C645.961 162.436 646.293 162.069 646.72 162.045C650.076 161.902 653.467 163.076 656.005 165.282C656.337 165.567 656.373 166.053 656.088 166.385C655.934 166.563 655.709 166.658 655.495 166.658Z" fill="#25632D"/>
<path d="M661.828 160.039C661.638 160.039 661.449 159.968 661.295 159.814C658.626 157.276 655.152 155.616 651.511 155.142C651.084 155.094 650.776 154.703 650.835 154.264C650.895 153.849 651.286 153.541 651.713 153.6C655.686 154.11 659.468 155.924 662.374 158.687C662.682 158.984 662.706 159.482 662.397 159.79C662.255 159.956 662.042 160.039 661.828 160.039Z" fill="#25632D"/>
<path d="M667.09 151.799C666.924 151.799 666.758 151.752 666.616 151.633C663.806 149.428 660.722 147.578 657.461 146.131C657.07 145.965 656.892 145.503 657.058 145.111C657.236 144.708 657.699 144.53 658.09 144.708C661.481 146.202 664.671 148.123 667.577 150.412C667.92 150.673 667.98 151.159 667.719 151.503C667.553 151.693 667.328 151.799 667.09 151.799Z" fill="#25632D"/>
<path d="M851.941 71.755C848.407 69.8814 845.134 69.0395 843.403 71.2926C841.672 73.5575 843 77.7198 846.024 79.4748C843.925 78.1467 841.755 76.7711 839.442 76.2375C837.118 75.7039 834.58 76.2257 833.679 78.0518C832.897 79.6646 833.573 81.8821 834.853 83.6134C835.482 84.4672 836.229 85.2261 837.047 85.9376C835.505 85.4514 833.75 85.6768 832.79 86.6966C831.165 88.4279 831.142 91.1672 832.79 93.5151C834.177 95.4955 836.703 97.6537 839.122 99.5392C841.802 101.769 843.889 103.334 847.72 106.014C843.368 105.338 835.909 104.591 836.525 109.903C837.391 117.303 870.428 121.619 875.587 124.774C885.228 130.691 892.71 135.019 892.71 135.019C897.133 134.687 914.114 112.975 916.818 105.741C912.763 102.397 878.717 80.1152 864.784 71.8618C862.448 70.4743 859.993 69.0632 857.455 68.7312C854.918 68.3873 852.285 69.4664 851.941 71.755Z" fill="white"/>
<path d="M842.598 106.321C840.736 106.321 838.91 106.582 837.961 107.507C837.404 108.041 837.179 108.8 837.297 109.819C837.807 114.16 853.081 117.859 863.196 120.314C869.303 121.796 874.129 122.97 875.991 124.109C884.576 129.362 891.514 133.418 892.865 134.2C896.826 133.24 912.515 114.005 915.882 106.001C910.25 101.685 878.019 80.6123 864.382 72.5368C862.342 71.3272 859.816 69.8331 857.35 69.501C855.286 69.2164 852.986 70.0347 852.713 71.8727C852.677 72.1217 852.523 72.3352 852.298 72.4538C852.073 72.5724 851.8 72.5605 851.575 72.4419C847.721 70.4023 845.242 70.177 844.021 71.7778C843.464 72.5012 843.286 73.5447 843.511 74.7069C843.807 76.2247 844.756 77.6596 846.025 78.549C846.167 78.6438 846.298 78.7387 846.452 78.8217C846.796 79.047 846.914 79.5214 846.689 79.889C846.464 80.2447 846.001 80.3633 845.634 80.1498C845.468 80.0668 845.313 79.9601 845.159 79.8534C843.345 78.7031 841.329 77.4699 839.266 76.9955C837.451 76.5805 835.151 76.8414 834.392 78.3948C833.799 79.5925 834.238 81.4543 835.483 83.15C836.005 83.8734 836.692 84.5967 837.57 85.3557C837.843 85.5928 837.914 85.996 837.736 86.3162C837.546 86.6482 837.167 86.7905 836.811 86.6838C835.471 86.2569 834.06 86.4822 833.372 87.2293C831.985 88.6997 832.02 91.0358 833.431 93.0636C834.866 95.1032 837.641 97.3919 839.61 98.9216C842.266 101.127 844.341 102.693 848.159 105.373C848.456 105.574 848.574 105.965 848.444 106.298C848.302 106.641 847.958 106.831 847.59 106.784C846.618 106.63 844.59 106.321 842.598 106.321ZM892.711 135.789C892.569 135.789 892.439 135.754 892.32 135.694C892.249 135.647 884.719 131.295 875.173 125.437C873.524 124.429 868.568 123.231 862.828 121.832C847.839 118.203 836.337 115.013 835.756 109.997C835.578 108.491 835.957 107.27 836.882 106.381C838.554 104.768 841.732 104.614 844.732 104.851C842.349 103.143 840.653 101.827 838.625 100.143C836.432 98.4236 833.68 96.1468 832.151 93.9648C830.301 91.3204 830.336 88.1779 832.222 86.1502C832.874 85.4624 833.846 85.0473 834.925 84.9406C834.665 84.656 834.427 84.3596 834.214 84.075C832.957 82.3555 831.973 79.7822 832.981 77.707C834.131 75.3709 837.143 74.8966 839.61 75.4658C840.582 75.703 841.531 76.0587 842.444 76.4975C842.23 76.0113 842.076 75.5132 841.981 75.0152C841.661 73.4024 841.946 71.9201 842.776 70.8173C845.053 67.8527 849.262 69.5366 851.456 70.6276C852.393 68.4694 855.132 67.6274 857.563 67.9476C860.338 68.3271 863.03 69.9161 865.176 71.1968C879.264 79.5332 913.226 101.768 917.317 105.147C917.578 105.361 917.673 105.705 917.555 106.013C914.815 113.365 897.787 135.433 892.771 135.789C892.747 135.789 892.735 135.789 892.711 135.789Z" fill="#25632D"/>
<path d="M863.089 116.354C862.946 116.354 862.804 116.319 862.685 116.247C862.567 116.176 851.147 109.251 847.281 106.666C846.926 106.417 846.831 105.931 847.068 105.575C847.305 105.219 847.791 105.124 848.147 105.361C851.977 107.935 863.373 114.836 863.492 114.907C863.859 115.133 863.978 115.607 863.753 115.975C863.61 116.224 863.35 116.354 863.089 116.354Z" fill="#25632D"/>
<path d="M856.1 101.032C855.933 101.032 855.767 100.973 855.625 100.866C850.158 96.597 843.162 91.4861 837.529 87.3831L836.51 86.636C836.166 86.3751 836.094 85.8889 836.343 85.545C836.593 85.1893 837.091 85.1181 837.434 85.3672L838.454 86.1142C844.087 90.2291 851.107 95.3519 856.586 99.6328C856.93 99.8936 856.989 100.392 856.716 100.724C856.574 100.925 856.337 101.032 856.1 101.032Z" fill="#25632D"/>
<path d="M862.649 91.6175C862.495 91.6175 862.341 91.5819 862.211 91.487L845.965 80.2216C845.609 79.9726 845.526 79.4864 845.763 79.1306C846.012 78.7749 846.498 78.68 846.854 78.929L863.1 90.2063C863.456 90.4553 863.539 90.9415 863.29 91.2854C863.148 91.5107 862.899 91.6175 862.649 91.6175Z" fill="#25632D"/>
<path d="M867.582 82.9838C867.428 82.9838 867.262 82.9364 867.119 82.8415C862.364 79.3908 857.407 76.0704 852.391 72.9872C852.035 72.7619 851.917 72.2757 852.142 71.9081C852.367 71.5405 852.854 71.4338 853.221 71.6591C858.261 74.766 863.242 78.0982 868.044 81.5727C868.388 81.8336 868.471 82.3198 868.222 82.6637C868.056 82.8771 867.819 82.9838 867.582 82.9838Z" fill="#25632D"/>
<path d="M918.797 275.364C918.489 275.364 918.204 275.186 918.074 274.878L908.801 251.979C908.635 251.588 908.836 251.125 909.228 250.971C909.631 250.805 910.093 250.995 910.247 251.398L919.521 274.297C919.687 274.7 919.497 275.15 919.094 275.316C918.999 275.352 918.892 275.364 918.797 275.364Z" fill="#25632D"/>
<path d="M810.719 299.62L928.374 282.627L911.975 203.376L911.843 202.738L912.493 202.776L912.465 203.275C912.493 202.776 912.494 202.776 912.494 202.776L912.496 202.776L912.503 202.776L912.533 202.778C912.56 202.779 912.6 202.781 912.653 202.784C912.76 202.789 912.919 202.796 913.128 202.805C913.544 202.821 914.157 202.841 914.939 202.855C916.502 202.884 918.74 202.89 921.437 202.8C926.832 202.62 934.051 202.055 941.36 200.519C948.675 198.982 956.045 196.479 961.769 192.445C967.48 188.421 971.54 182.883 972.303 175.239C973.447 163.807 969.562 152.992 963.041 143.174C956.519 133.355 947.379 124.563 938.072 117.2C928.769 109.839 919.318 103.92 912.19 99.8398C908.627 97.8002 905.647 96.2213 903.558 95.1527C902.513 94.6184 901.692 94.2118 901.132 93.939C901.016 93.8825 900.911 93.8317 900.818 93.7867C900.802 93.8426 900.786 93.9022 900.767 93.9654C900.623 94.4653 900.396 95.1947 900.064 96.1213C899.4 97.9745 898.316 100.617 896.629 103.79C893.304 110.046 887.639 118.364 878.247 126.763C881.527 129.817 888.727 135.73 895.24 140.985C898.631 143.72 901.828 146.272 904.179 148.14C905.354 149.074 906.317 149.837 906.986 150.366C907.321 150.631 907.582 150.837 907.76 150.978L907.962 151.137L908.014 151.178L908.027 151.188L908.03 151.191L908.031 151.191C908.031 151.192 908.031 151.192 907.721 151.584L908.031 151.192L909.239 152.143L907.702 152.084L907.705 152.02C907.702 152.084 907.702 152.084 907.702 152.084L907.7 152.084L907.692 152.084L907.663 152.082L907.547 152.078L907.094 152.061L905.359 151.994L899.052 151.751C893.766 151.547 886.557 151.27 878.869 150.975C863.491 150.385 846.193 149.724 838.509 149.44L838.509 149.44C812.144 148.446 790.875 155.108 778.225 167.71L778.216 167.72L778.215 167.72L747.811 196.381L747.51 196.665L747.175 196.423L707.374 167.648L673.272 203.03L705.951 235.427C705.952 235.428 705.954 235.429 705.955 235.431C730.179 258.262 767.976 258.284 792.222 235.462L792.229 235.455L806.246 222.767L807.031 222.057L807.081 223.114L810.719 299.62ZM810.719 299.62L810.222 299.691L806.612 223.784" fill="#77C360" stroke="black"/>
<path d="M940.189 153.637C940.177 153.637 940.165 153.637 940.153 153.637L907.697 152.356C907.258 152.345 906.926 151.977 906.938 151.55C906.962 151.123 907.365 150.791 907.756 150.803L940.224 152.072C940.651 152.096 940.983 152.463 940.971 152.89C940.948 153.317 940.604 153.637 940.189 153.637Z" fill="#25632D"/>
<path d="M806.583 223.91C806.168 223.91 805.824 223.59 805.8 223.175L805.219 211.862C805.207 211.423 805.527 211.056 805.954 211.032C806.393 210.996 806.761 211.34 806.784 211.779L807.365 223.092C807.389 223.531 807.057 223.898 806.63 223.91C806.618 223.91 806.595 223.91 806.583 223.91Z" fill="#25632D"/>
<mask id="mask4_1036_4264" style="mask-type:luminance" maskUnits="userSpaceOnUse" x="66" y="433" width="205" height="216">
<path d="M66.9922 433.874H270.387V648.889H66.9922V433.874Z" fill="white"/>
</mask>
<g mask="url(#mask4_1036_4264)">
<path d="M234.169 648.118H95.0944C95.0944 648.118 47.3171 630.33 79.9513 580.893C81.7775 578.118 86.0821 579.624 85.7501 582.92C84.2085 598.644 84.837 624.757 103.893 634.22V629.002C103.893 616.989 107.51 605.25 114.258 595.324L160.149 527.826C160.149 527.826 123.175 514.652 185.799 473.207C185.799 473.207 184.044 451.897 209.788 461.159C209.788 461.159 253.107 433.908 261.36 436.481C269.626 439.043 281.745 454.162 243.466 502.058L236.197 517.913C234.94 520.664 234.276 523.664 234.276 526.7V624.887C234.276 629.12 236.92 632.82 240.822 634.445C244.012 635.761 246.597 638.263 243.691 642.947C241.664 646.22 238.011 648.118 234.169 648.118Z" fill="white"/>
</g>
<mask id="mask5_1036_4264" style="mask-type:luminance" maskUnits="userSpaceOnUse" x="66" y="433" width="208" height="216">
<path d="M66.9922 433.874H273.422V648.889H66.9922V433.874Z" fill="white"/>
</mask>
<g mask="url(#mask5_1036_4264)">
<path d="M95.2505 647.335H234.171C237.8 647.335 241.191 645.497 243.029 642.544C244.073 640.861 244.405 639.402 244.014 638.216C243.622 636.983 242.448 635.963 240.527 635.157C236.258 633.39 233.507 629.37 233.507 624.887V526.7C233.507 523.534 234.171 520.463 235.487 517.581L242.757 501.738C242.78 501.679 242.816 501.62 242.851 501.572C268.489 469.496 270.896 453.084 268.406 444.961C266.722 439.506 262.762 437.739 261.125 437.229C254.639 435.189 222.17 454.293 210.205 461.811C210.004 461.942 209.755 461.977 209.529 461.894C201.098 458.859 194.861 458.835 190.959 461.811C186.038 465.582 186.572 473.065 186.584 473.148C186.607 473.433 186.477 473.705 186.24 473.859C154.791 494.659 149.277 507.928 150.19 515.399C151.198 523.712 160.329 527.056 160.412 527.092C160.649 527.175 160.827 527.352 160.898 527.59C160.969 527.815 160.934 528.076 160.803 528.266L114.912 595.763C108.223 605.606 104.678 617.096 104.678 629.002V634.22C104.678 634.493 104.547 634.742 104.31 634.884C104.085 635.026 103.8 635.038 103.551 634.92C83.902 625.16 83.4751 598.111 84.9811 582.85C85.1116 581.474 84.2222 580.656 83.4158 580.371C82.5976 580.087 81.3643 580.158 80.6054 581.32C70.2649 596.985 67.0157 611.013 70.929 623.026C76.3008 639.449 93.5903 646.671 95.2505 647.335ZM234.171 648.889H95.0963C95.0014 648.889 94.9184 648.877 94.8236 648.841C94.6338 648.77 75.2928 641.394 69.4467 623.5C65.3674 611.025 68.6877 596.534 79.301 580.454C80.3208 578.913 82.1825 578.284 83.9376 578.901C85.6689 579.517 86.7124 581.154 86.5346 583.004C85.0997 597.554 85.4199 623.109 103.124 632.927V629.002C103.124 616.788 106.753 604.989 113.619 594.886L158.965 528.183C156.428 527.044 149.574 523.285 148.637 515.577C147.249 504.146 159.475 489.75 185.006 472.804C184.947 470.966 185.101 464.337 190.011 460.578C194.291 457.293 200.908 457.198 209.695 460.293C215.459 456.677 253.393 433.197 261.599 435.735C263.461 436.316 268.003 438.332 269.9 444.498C272.497 452.977 270.137 469.922 244.132 502.474L236.91 518.233C235.689 520.913 235.06 523.759 235.06 526.7V624.887C235.06 628.73 237.444 632.192 241.12 633.722C243.492 634.694 244.962 636.046 245.508 637.742C246.041 639.378 245.65 641.276 244.357 643.363C242.235 646.778 238.333 648.889 234.171 648.889Z" fill="#25632D"/>
</g>
<mask id="mask6_1036_4264" style="mask-type:luminance" maskUnits="userSpaceOnUse" x="173" y="579" width="64" height="70">
<path d="M173.234 579.587H236.985V648.888H173.234V579.587Z" fill="white"/>
</mask>
<g mask="url(#mask6_1036_4264)">
<path d="M233.265 647.726C233.205 647.726 233.146 647.714 233.075 647.703C232.66 647.596 232.399 647.169 232.506 646.754C233.217 643.872 230.834 640.931 228.237 639.864C225.355 638.678 222.023 638.987 218.845 639.497L217.647 639.686C214.742 640.173 211.718 640.671 208.73 640.161C208.409 640.101 208.16 639.876 208.101 639.568C208.03 639.259 208.149 638.939 208.398 638.761C218.157 631.753 225.236 621.021 227.845 609.293C228.901 604.538 229.043 600.447 228.284 596.807C227.371 592.478 225.059 588.755 221.916 586.608C215.809 582.411 207.615 584.118 201.804 586.288C191.571 590.107 182.558 596.629 175.716 605.155C175.455 605.499 174.957 605.546 174.625 605.273C174.281 605.013 174.234 604.514 174.495 604.182C181.515 595.431 190.764 588.731 201.259 584.818C207.413 582.529 216.141 580.75 222.794 585.316C226.268 587.699 228.818 591.767 229.814 596.486C230.62 600.352 230.478 604.657 229.375 609.637C226.826 621.069 220.161 631.587 210.935 638.809C213.082 638.868 215.264 638.501 217.398 638.145L218.608 637.943C221.999 637.41 225.592 637.089 228.83 638.418C232.102 639.769 234.937 643.386 234.024 647.133C233.941 647.489 233.62 647.726 233.265 647.726Z" fill="#25632D"/>
</g>
<path d="M213.997 583.383C213.903 583.383 213.796 583.36 213.689 583.324C213.298 583.146 213.108 582.696 213.286 582.292L222.405 561.078C222.571 560.686 223.033 560.497 223.425 560.675C223.828 560.841 224.006 561.303 223.84 561.694L214.721 582.909C214.59 583.205 214.306 583.383 213.997 583.383Z" fill="#25632D"/>
<path d="M267.238 454.365C267.214 454.365 267.179 454.365 267.143 454.353C263.633 453.891 260.337 452.053 258.072 449.337C255.807 446.622 254.609 443.04 254.787 439.507C254.799 439.08 255.178 438.736 255.605 438.759C256.032 438.783 256.364 439.151 256.34 439.59C256.198 442.732 257.265 445.922 259.269 448.341C261.285 450.76 264.238 452.385 267.345 452.812C267.772 452.871 268.08 453.262 268.021 453.689C267.961 454.08 267.629 454.365 267.238 454.365Z" fill="#25632D"/>
<path d="M204.688 546.397C203.62 546.397 202.553 546.302 201.521 546.124C194.691 544.95 189.117 539.72 187.979 533.423C187.007 528.075 189.212 522.68 191.24 518.565C195.806 509.315 201.853 500.955 209.229 493.734C209.538 493.437 210.036 493.437 210.332 493.745C210.629 494.054 210.629 494.552 210.32 494.848C203.075 501.951 197.122 510.157 192.639 519.253C190.718 523.154 188.631 528.253 189.509 533.151C190.529 538.724 195.687 543.527 201.782 544.582C207.368 545.543 213.652 543.634 218.586 539.459C222.831 535.878 226.175 530.755 228.535 524.21C230.645 518.352 231.736 512.09 232.78 506.043C232.863 505.616 233.266 505.331 233.681 505.402C234.108 505.473 234.393 505.888 234.322 506.303C233.254 512.434 232.163 518.755 230.005 524.743C227.55 531.538 224.04 536.898 219.593 540.657C215.218 544.357 209.834 546.397 204.688 546.397Z" fill="#25632D"/>
<path d="M161.258 527.162C161.092 527.162 160.926 527.115 160.795 527.008C160.44 526.747 160.369 526.261 160.629 525.917L178.868 501.251C179.128 500.908 179.615 500.825 179.97 501.085C180.314 501.346 180.385 501.833 180.125 502.176L161.886 526.842C161.732 527.055 161.495 527.162 161.258 527.162Z" fill="#25632D"/>
<path d="M186.474 497.101C186.45 497.101 186.426 497.101 186.402 497.101C182.916 496.781 179.762 494.516 178.351 491.315C176.951 488.113 177.414 484.247 179.536 481.472C181.351 479.089 184.256 477.677 187.221 477.654L185.75 475.033C185.549 474.654 185.679 474.179 186.059 473.966C186.438 473.752 186.912 473.895 187.126 474.274L189.284 478.152C189.426 478.413 189.414 478.721 189.248 478.97C189.071 479.219 188.786 479.338 188.489 479.302C185.62 478.863 182.537 480.12 180.782 482.421C179.027 484.709 178.623 488.042 179.785 490.686C180.948 493.33 183.663 495.287 186.533 495.536C186.972 495.584 187.28 495.963 187.244 496.39C187.209 496.793 186.865 497.101 186.474 497.101Z" fill="#25632D"/>
<path d="M222.187 490.971C222.151 490.971 222.128 490.971 222.104 490.971C221.677 490.924 221.357 490.544 221.404 490.117C222.412 479.967 218.297 469.46 210.661 462.713C210.341 462.416 210.305 461.93 210.601 461.61C210.886 461.278 211.384 461.254 211.704 461.539C219.709 468.618 224.025 479.623 222.958 490.272C222.922 490.663 222.578 490.971 222.187 490.971Z" fill="#25632D"/>
<path d="M214.503 538.536C214.077 538.536 213.733 538.192 213.721 537.765C213.448 524.946 218.844 512.009 228.141 503.174C228.449 502.878 228.947 502.89 229.243 503.21C229.54 503.518 229.528 504.016 229.208 504.313C220.231 512.839 215.025 525.338 215.286 537.729C215.298 538.168 214.954 538.524 214.515 538.536H214.503Z" fill="#25632D"/>
<path d="M423.249 30.4275L265.936 302.992C255.169 321.645 268.64 344.959 290.186 344.959H604.812C626.359 344.959 639.83 321.645 629.063 302.992L471.75 30.4275C460.971 11.7624 434.028 11.7624 423.249 30.4275Z" fill="#77C360"/>
<path d="M435.627 53.3737L291.998 302.221C286.721 311.352 293.315 322.772 303.869 322.772H591.125C601.679 322.772 608.272 311.352 602.996 302.221L459.367 53.3737C454.102 44.2309 440.892 44.2309 435.627 53.3737Z" fill="white"/>
<path d="M383.171 211.185H401.515V182.238L400.626 183.851L383.171 211.185ZM409.057 211.185H417.24V217.304H409.057V231.012H401.515V217.304H374.656V212.892L401.077 171.981H409.057V211.185Z" fill="#25632D"/>
<path d="M453.487 195.579C453.487 189.223 452.597 184.598 450.807 181.681C449.028 178.788 446.206 177.329 442.352 177.329C438.51 177.329 435.711 178.776 433.968 181.669C432.201 184.563 431.3 189.009 431.24 195.01V207.01C431.24 213.39 432.165 218.098 434.015 221.134C435.877 224.181 438.676 225.699 442.423 225.699C446.123 225.699 448.874 224.264 450.676 221.395C452.467 218.537 453.404 214.019 453.487 207.864V195.579ZM460.981 205.825C460.981 214.612 459.487 221.146 456.487 225.415C453.487 229.684 448.803 231.818 442.423 231.818C436.138 231.818 431.478 229.731 428.454 225.557C425.43 221.383 423.865 215.145 423.758 206.844V196.836C423.758 188.156 425.252 181.705 428.252 177.495C431.24 173.273 435.948 171.163 442.352 171.163C448.696 171.163 453.368 173.202 456.356 177.27C459.357 181.337 460.898 187.61 460.981 196.101V205.825Z" fill="#25632D"/>
<path d="M476.327 211.185H494.683V182.238L493.794 183.851L476.327 211.185ZM502.225 211.185H510.396V217.304H502.225V231.012H494.683V217.304H467.824V212.892L494.233 171.981H502.225V211.185Z" fill="#25632D"/>
<path d="M392.568 271.77H377.223V284.316H395.046V288.135H372.562V252.714H394.797V256.532H377.223V267.952H392.568V271.77Z" fill="#25632D"/>
<path d="M405.52 269.991H412.683C415.007 269.991 416.845 269.387 418.22 268.189C419.584 266.979 420.272 265.379 420.272 263.363C420.272 261.169 419.62 259.485 418.315 258.311C417.011 257.149 415.125 256.556 412.659 256.532H405.52V269.991ZM413.833 273.81H405.52V288.135H400.824V252.714H412.54C416.525 252.714 419.596 253.627 421.742 255.441C423.889 257.256 424.956 259.9 424.956 263.375C424.956 265.58 424.363 267.501 423.177 269.138C421.98 270.774 420.331 271.996 418.209 272.814L426.521 287.85V288.135H421.505L413.833 273.81Z" fill="#25632D"/>
<path d="M436.161 269.991H443.335C445.647 269.991 447.497 269.387 448.861 268.189C450.236 266.979 450.912 265.379 450.912 263.363C450.912 261.169 450.26 259.485 448.956 258.311C447.663 257.149 445.778 256.556 443.311 256.532H436.161V269.991ZM444.473 273.81H436.161V288.135H431.477V252.714H443.193C447.177 252.714 450.236 253.627 452.395 255.441C454.541 257.256 455.608 259.9 455.608 263.375C455.608 265.58 455.015 267.501 453.818 269.138C452.632 270.774 450.972 271.996 448.849 272.814L457.162 287.85V288.135H452.158L444.473 273.81Z" fill="#25632D"/>
<path d="M484.722 269.279C484.722 265.082 483.88 261.856 482.196 259.615C480.512 257.362 478.152 256.247 475.128 256.247C472.176 256.247 469.863 257.362 468.167 259.615C466.472 261.856 465.606 264.975 465.547 268.971V271.568C465.547 275.647 466.401 278.837 468.12 281.161C469.828 283.498 472.176 284.66 475.176 284.66C478.188 284.66 480.524 283.557 482.172 281.363C483.832 279.157 484.674 276.015 484.722 271.912V269.279ZM489.37 271.568C489.37 275.043 488.789 278.066 487.615 280.652C486.453 283.249 484.805 285.217 482.658 286.581C480.524 287.944 478.022 288.62 475.176 288.62C472.389 288.62 469.923 287.944 467.764 286.569C465.606 285.193 463.934 283.249 462.748 280.699C461.551 278.161 460.934 275.232 460.91 271.888V269.339C460.91 265.923 461.503 262.923 462.677 260.303C463.863 257.694 465.535 255.702 467.705 254.314C469.863 252.927 472.342 252.227 475.128 252.227C477.962 252.227 480.465 252.915 482.623 254.29C484.793 255.654 486.453 257.646 487.615 260.243C488.789 262.852 489.37 265.876 489.37 269.339V271.568Z" fill="#25632D"/>
<path d="M501.04 269.991H508.202C510.526 269.991 512.364 269.387 513.74 268.189C515.104 266.979 515.791 265.379 515.791 263.363C515.791 261.169 515.139 259.485 513.835 258.311C512.53 257.149 510.645 256.556 508.178 256.532H501.04V269.991ZM509.352 273.81H501.04V288.135H496.344V252.714H508.06C512.044 252.714 515.116 253.627 517.262 255.441C519.408 257.256 520.476 259.9 520.476 263.375C520.476 265.58 519.883 267.501 518.697 269.138C517.499 270.774 515.839 271.996 513.728 272.814L522.029 287.85V288.135H517.025L509.352 273.81Z" fill="#25632D"/>
<path d="M82.9021 72.5039H221.941C236.5 72.5039 248.289 84.304 248.289 98.8749V142.431C248.289 157.002 236.499 168.814 221.941 168.814H82.9021C68.3439 168.814 56.543 157.002 56.543 142.431V98.8749C56.543 84.3043 68.3436 72.5039 82.9021 72.5039Z" fill="#B1D8B7" stroke="black"/>
<path d="M188.466 120.658C188.466 140.58 172.327 156.731 152.416 156.731C132.518 156.731 116.379 140.58 116.379 120.658C116.379 100.724 132.518 84.5728 152.416 84.5728C172.327 84.5728 188.466 100.724 188.466 120.658Z" fill="white"/>
<path d="M142.43 112.085C142.43 113.923 140.948 115.417 139.11 115.417C137.271 115.417 135.777 113.923 135.777 112.085C135.777 110.247 137.271 108.753 139.11 108.753C140.948 108.753 142.43 110.247 142.43 112.085Z" fill="#25632D"/>
<path d="M169.067 112.085C169.067 113.923 167.573 115.417 165.735 115.417C163.896 115.417 162.402 113.923 162.402 112.085C162.402 110.247 163.896 108.753 165.735 108.753C167.573 108.753 169.067 110.247 169.067 112.085Z" fill="#25632D"/>
<path d="M137.323 136.465C137.216 136.465 137.109 136.441 137.003 136.394C136.611 136.216 136.433 135.753 136.623 135.362C136.659 135.267 141.011 126.125 152.181 126.125C163.471 126.125 168 135.184 168.036 135.279C168.226 135.67 168.072 136.133 167.68 136.323C167.289 136.512 166.826 136.358 166.637 135.967C166.471 135.623 162.463 127.69 152.181 127.69C142.042 127.69 138.2 135.67 138.034 136.014C137.904 136.299 137.619 136.465 137.323 136.465Z" fill="#25632D"/>
<path d="M251.134 218.252C227.086 218.252 207.531 198.674 207.531 174.613C207.531 174.174 207.875 173.831 208.314 173.831C208.741 173.831 209.085 174.174 209.085 174.613C209.085 197.82 227.951 216.699 251.134 216.699C251.573 216.699 251.917 217.042 251.917 217.469C251.917 217.908 251.573 218.252 251.134 218.252Z" fill="#25632D"/>
<path d="M699.333 129.98C699.262 129.98 699.179 129.957 699.096 129.933C698.693 129.802 698.456 129.364 698.586 128.96L703.982 112.098C704.041 111.896 704.183 111.73 704.373 111.635C704.551 111.541 704.765 111.529 704.966 111.588C712.212 113.912 719.931 113.284 726.691 109.809C733.474 106.323 738.49 100.406 740.814 93.1364C745.605 78.1474 737.328 62.0438 722.35 57.2293C710.86 53.5295 698.242 57.5139 690.95 67.131C690.689 67.4749 690.202 67.546 689.859 67.2733C689.515 67.0243 689.444 66.5262 689.704 66.1823C697.4 56.0434 710.717 51.8456 722.837 55.7351C738.62 60.8105 747.36 77.8035 742.296 93.6107C739.853 101.271 734.565 107.521 727.414 111.197C720.501 114.742 712.662 115.489 705.239 113.307L700.08 129.435C699.974 129.767 699.665 129.98 699.333 129.98Z" fill="#25632D"/>
<path d="M694.687 144.577C694.616 144.577 694.533 144.565 694.45 144.542C694.047 144.411 693.809 143.972 693.952 143.557L696.193 136.537C696.323 136.122 696.762 135.885 697.177 136.027C697.592 136.158 697.818 136.597 697.675 137.012L695.434 144.032C695.327 144.364 695.019 144.577 694.687 144.577Z" fill="#25632D"/>
<path d="M598.861 148.489C598.777 148.489 598.706 148.478 598.623 148.454C598.208 148.323 597.983 147.885 598.113 147.481L602.679 133.216C602.738 133.014 602.88 132.848 603.07 132.753C603.248 132.658 603.462 132.647 603.663 132.706C609.758 134.663 616.257 134.129 621.949 131.2C627.653 128.271 631.874 123.29 633.831 117.171C637.863 104.554 630.902 91.0001 618.296 86.9564C608.62 83.8376 597.995 87.1935 591.864 95.2809C591.603 95.6248 591.105 95.696 590.761 95.4351C590.417 95.1742 590.358 94.688 590.619 94.3323C597.153 85.7231 608.478 82.1537 618.771 85.4622C632.194 89.7787 639.618 104.21 635.313 117.646C633.238 124.156 628.744 129.469 622.672 132.599C616.838 135.599 610.209 136.24 603.936 134.425L599.608 147.956C599.501 148.288 599.193 148.489 598.861 148.489Z" fill="#25632D"/>
<path d="M594.933 160.846C594.85 160.846 594.767 160.834 594.684 160.81C594.28 160.68 594.055 160.241 594.185 159.826L596.083 153.885C596.213 153.482 596.652 153.245 597.067 153.375C597.482 153.518 597.707 153.956 597.577 154.36L595.668 160.301C595.561 160.633 595.253 160.846 594.933 160.846Z" fill="#25632D"/>
<path d="M708.916 389.463C708.833 389.463 708.738 389.451 708.667 389.427C708.252 389.285 708.027 388.846 708.169 388.431L713.719 371.996C713.79 371.794 713.932 371.628 714.11 371.533C714.3 371.45 714.513 371.438 714.703 371.498C721.782 373.881 729.372 373.371 736.06 370.063C742.748 366.742 747.752 361.015 750.136 353.935C755.069 339.326 747.195 323.436 732.597 318.503C721.379 314.72 708.94 318.431 701.647 327.752C701.374 328.096 700.888 328.155 700.544 327.883C700.2 327.622 700.141 327.124 700.414 326.792C708.122 316.949 721.249 313.036 733.083 317.02C748.511 322.226 756.824 339.018 751.618 354.445C749.092 361.916 743.815 367.952 736.748 371.462C729.917 374.842 722.209 375.458 714.952 373.217L709.651 388.929C709.545 389.261 709.236 389.463 708.916 389.463Z" fill="#25632D"/>
<path d="M704.122 403.705C704.039 403.705 703.956 403.693 703.873 403.669C703.47 403.527 703.244 403.088 703.387 402.673L705.699 395.831C705.829 395.416 706.28 395.19 706.683 395.333C707.098 395.475 707.312 395.914 707.181 396.329L704.869 403.183C704.75 403.503 704.454 403.705 704.122 403.705Z" fill="#25632D"/>
<path d="M199.342 322.795C206.588 377.438 168.214 427.611 113.63 434.868C59.0461 442.114 8.90901 403.705 1.66355 349.073C-5.58191 294.442 32.7917 244.269 87.3757 237.012C141.96 229.754 192.097 268.164 199.342 322.795Z" fill="white"/>
<path d="M140.06 377.368C142.527 375.589 144.874 373.609 147.068 371.439C147.519 371.794 147.981 372.126 148.491 372.435C155.215 376.538 163.99 374.415 168.093 367.68C172.196 360.944 170.073 352.157 163.338 348.054C162.84 347.746 162.33 347.485 161.808 347.248C163.575 341.615 164.453 335.828 164.476 330.077C165.046 330.006 165.615 329.911 166.196 329.78C173.844 327.918 178.552 320.199 176.69 312.538C174.841 304.866 167.121 300.158 159.46 302.02C158.891 302.162 158.346 302.34 157.812 302.542C155.156 297.442 151.717 292.699 147.566 288.501C147.922 288.051 148.266 287.588 148.574 287.078C152.677 280.343 150.543 271.556 143.819 267.453C137.084 263.35 128.308 265.484 124.205 272.22C123.897 272.718 123.636 273.228 123.399 273.75C117.778 271.983 111.991 271.105 106.24 271.07C106.181 270.5 106.086 269.931 105.944 269.362C104.094 261.701 96.3738 256.994 88.7133 258.844C81.0647 260.705 76.3569 268.425 78.2187 276.097C78.3491 276.667 78.5388 277.212 78.7404 277.746C75.8944 279.228 73.1789 280.948 70.5938 282.904L75.2778 301.059L85.0965 302.138L89.9229 308.542C98.3423 302.186 110.13 301.237 119.687 307.071C132.174 314.696 136.135 331.013 128.51 343.524C126.719 346.465 124.443 348.931 121.857 350.888L125.118 366.375L133.253 367.466L140.06 377.368Z" fill="white"/>
<path d="M125.767 365.675L133.356 366.695C133.57 366.719 133.771 366.838 133.89 367.015L140.246 376.253C142.452 374.628 144.562 372.814 146.519 370.881C146.792 370.608 147.242 370.585 147.551 370.822C148.025 371.201 148.464 371.51 148.891 371.771C151.962 373.644 155.591 374.213 159.077 373.36C162.587 372.518 165.552 370.348 167.425 367.276C171.291 360.92 169.275 352.596 162.931 348.718C162.504 348.457 162.042 348.22 161.472 347.959C161.117 347.793 160.939 347.39 161.057 347.01C162.777 341.52 163.666 335.816 163.69 330.065C163.702 329.673 163.998 329.341 164.389 329.294C164.982 329.223 165.516 329.14 166.002 329.021C173.236 327.266 177.683 319.95 175.928 312.716C175.086 309.218 172.916 306.253 169.844 304.368C166.773 302.494 163.144 301.925 159.646 302.779C159.16 302.897 158.65 303.063 158.081 303.265C157.713 303.407 157.298 303.253 157.108 302.897C154.464 297.81 151.061 293.15 147.017 289.047C146.732 288.774 146.709 288.323 146.958 288.015C147.337 287.529 147.645 287.102 147.895 286.675C151.772 280.319 149.756 271.994 143.4 268.117C140.329 266.243 136.712 265.674 133.214 266.528C129.704 267.37 126.739 269.54 124.866 272.623C124.617 273.038 124.368 273.524 124.107 274.081C123.941 274.437 123.537 274.615 123.17 274.497C117.679 272.777 111.987 271.888 106.236 271.852C105.845 271.852 105.513 271.556 105.465 271.164C105.394 270.548 105.299 270.026 105.181 269.552C104.339 266.041 102.169 263.077 99.0974 261.203C96.0261 259.318 92.3974 258.76 88.8992 259.602C81.6775 261.357 77.2187 268.674 78.9738 275.908C79.0924 276.394 79.2465 276.892 79.46 277.473C79.6023 277.841 79.4481 278.256 79.0924 278.445C76.4361 279.821 73.8865 281.434 71.4793 283.212L75.9025 300.336L85.1757 301.368C85.3891 301.379 85.5789 301.498 85.7093 301.664L90.0732 307.463C99.0025 301.107 110.695 300.68 120.087 306.407C132.929 314.246 137.009 331.073 129.17 343.927C127.463 346.749 125.292 349.192 122.719 351.208L125.767 365.675ZM140.056 378.139C140.009 378.139 139.961 378.139 139.914 378.139C139.712 378.091 139.534 377.973 139.416 377.806L132.799 368.189L125.008 367.146C124.688 367.098 124.415 366.861 124.356 366.541L121.083 351.054C121.023 350.758 121.142 350.449 121.379 350.271C123.964 348.315 126.146 345.908 127.842 343.121C135.218 331.002 131.376 315.123 119.268 307.735C110.209 302.209 98.8721 302.767 90.3934 309.17C90.2273 309.289 90.0139 309.348 89.8123 309.313C89.5989 309.289 89.421 309.182 89.2905 309.016L84.6658 302.874L75.191 301.83C74.8708 301.794 74.598 301.569 74.5269 301.249L69.831 283.094C69.748 282.797 69.8666 282.465 70.1156 282.276C72.5347 280.461 75.1079 278.813 77.7642 277.378C77.6456 276.987 77.5389 276.631 77.4559 276.275C75.4993 268.2 80.4679 260.041 88.5316 258.085C92.433 257.148 96.4767 257.776 99.9156 259.863C103.343 261.962 105.75 265.271 106.699 269.172C106.793 269.528 106.865 269.895 106.924 270.299C112.367 270.394 117.762 271.235 122.98 272.813C123.17 272.445 123.348 272.113 123.537 271.805C125.625 268.378 128.933 265.958 132.846 265.01C136.748 264.061 140.791 264.69 144.218 266.789C151.298 271.105 153.551 280.402 149.235 287.493C149.045 287.802 148.831 288.11 148.594 288.442C152.389 292.367 155.614 296.778 158.188 301.581C158.567 301.451 158.923 301.344 159.279 301.261C163.18 300.312 167.224 300.941 170.663 303.04C174.09 305.127 176.497 308.435 177.446 312.348C179.402 320.424 174.434 328.582 166.37 330.539C166.014 330.622 165.646 330.693 165.255 330.753C165.16 336.207 164.318 341.603 162.741 346.832C163.109 347.01 163.429 347.188 163.749 347.39C170.829 351.706 173.082 360.991 168.765 368.083C166.666 371.522 163.358 373.941 159.456 374.877C155.543 375.838 151.511 375.198 148.072 373.099C147.764 372.921 147.456 372.707 147.124 372.47C145.06 374.462 142.843 376.324 140.507 377.996C140.376 378.091 140.222 378.139 140.056 378.139Z" fill="#25632D"/>
<path d="M110.378 360.008C101.946 366.364 90.171 367.313 80.6131 361.479C68.1144 353.854 64.1656 337.537 71.7786 325.038C73.5811 322.085 75.8461 319.619 78.443 317.662L73.9606 311.721L63.6557 310.274L59.1139 292.024C57.0506 293.578 55.0821 295.274 53.2322 297.124C52.7816 296.768 52.3072 296.424 51.8092 296.116C45.0855 292.013 36.2985 294.147 32.1955 300.883C28.0925 307.618 30.227 316.393 36.9507 320.508C37.4606 320.805 37.9705 321.066 38.4922 321.315C36.7254 326.947 35.8478 332.734 35.8123 338.485C35.2431 338.545 34.6739 338.64 34.1047 338.782C26.4442 340.632 21.7482 348.363 23.5982 356.024C25.4599 363.684 33.1678 368.392 40.8283 366.542C41.3975 366.4 41.943 366.222 42.4885 366.021C45.1448 371.12 48.5718 375.863 52.7223 380.049C52.3665 380.5 52.0345 380.974 51.7262 381.472C47.6232 388.208 49.7458 396.995 56.4814 401.098C63.2051 405.212 71.9921 403.078 76.0951 396.342C76.3915 395.844 76.6524 395.323 76.8896 394.801C82.5223 396.568 88.3092 397.457 94.0486 397.481C94.1198 398.05 94.2146 398.619 94.3451 399.188C96.2068 406.861 103.915 411.568 111.575 409.707C119.236 407.845 123.932 400.125 122.082 392.465C121.939 391.895 121.762 391.338 121.56 390.804C123.991 389.536 126.327 388.089 128.58 386.488L121.524 376.219L114.291 376.171L110.378 360.008Z" fill="white"/>
<path d="M76.8866 394.017C76.9696 394.017 77.0408 394.029 77.1238 394.053C82.6142 395.784 88.3062 396.673 94.0575 396.697C94.4489 396.709 94.7809 396.993 94.8283 397.397C94.8995 398.001 94.9825 398.535 95.1011 399.009C95.9549 402.508 98.1131 405.472 101.184 407.358C104.268 409.231 107.884 409.8 111.383 408.947C118.616 407.192 123.063 399.875 121.32 392.641C121.201 392.167 121.035 391.645 120.822 391.076C120.691 390.709 120.846 390.293 121.189 390.116C123.371 388.977 125.482 387.697 127.498 386.285L121.106 377L114.288 376.941C113.92 376.941 113.612 376.704 113.529 376.348L109.888 361.324C101.007 367.454 89.4802 367.81 80.207 362.154C67.3644 354.315 63.2851 337.476 71.1116 324.622C72.7836 321.883 74.8826 319.499 77.3491 317.519L73.5307 312.443L63.5341 311.056C63.2258 311.009 62.9649 310.783 62.8938 310.463L58.6366 293.375C56.9409 294.715 55.3044 296.15 53.7747 297.668C53.4901 297.952 53.0513 297.976 52.743 297.727C52.2568 297.348 51.8181 297.039 51.403 296.79C48.3199 294.905 44.7031 294.348 41.2048 295.189C37.7066 296.043 34.742 298.202 32.8684 301.285C28.9907 307.641 31.0067 315.965 37.3627 319.831C37.7778 320.092 38.2403 320.341 38.8095 320.602C39.1771 320.768 39.3549 321.171 39.2364 321.539C37.505 327.029 36.6275 332.733 36.5919 338.484C36.5919 338.876 36.2955 339.208 35.9042 339.255C35.2875 339.326 34.7776 339.421 34.2914 339.54C27.0578 341.295 22.6109 348.6 24.3541 355.833C25.2079 359.343 27.3661 362.308 30.4493 364.181C33.5206 366.055 37.1493 366.624 40.6475 365.782C41.1337 365.664 41.6317 365.498 42.2009 365.284C42.5804 365.142 42.9955 365.308 43.1733 365.652C45.8296 370.751 49.233 375.411 53.2766 379.502C53.5494 379.787 53.585 380.226 53.3359 380.534C52.9446 381.032 52.6482 381.459 52.3873 381.874C48.5214 388.242 50.5374 396.555 56.8816 400.432C59.9529 402.306 63.5816 402.875 67.0798 402.033C70.578 401.179 73.5426 399.009 75.4162 395.938C75.6771 395.511 75.9261 395.049 76.1751 394.479C76.3056 394.195 76.5902 394.017 76.8866 394.017ZM108.181 410.891C105.453 410.891 102.762 410.144 100.378 408.686C96.9391 406.599 94.5319 403.29 93.5832 399.377C93.5002 399.021 93.429 398.654 93.3697 398.25C87.9268 398.167 82.5312 397.326 77.3017 395.748C77.1238 396.104 76.9459 396.436 76.7562 396.744C74.6573 400.183 71.3488 402.602 67.4474 403.551C63.5341 404.488 59.5023 403.859 56.0752 401.772C48.9839 397.444 46.7308 388.159 51.0591 381.068C51.2489 380.759 51.4505 380.451 51.6876 380.119C47.9048 376.194 44.6793 371.783 42.1061 366.98C41.7266 367.11 41.359 367.205 41.0151 367.288C37.1019 368.237 33.0582 367.608 29.6311 365.521C26.1922 363.422 23.7849 360.114 22.8363 356.201C20.8796 348.137 25.8483 339.978 33.912 338.022C34.2677 337.939 34.6353 337.856 35.0385 337.797C35.1215 332.354 35.9753 326.946 37.5406 321.728C37.1849 321.539 36.8528 321.361 36.5445 321.171C29.4532 316.843 27.212 307.558 31.5284 300.466C33.6155 297.028 36.924 294.62 40.8372 293.672C44.7386 292.723 48.7823 293.351 52.2094 295.45C52.5177 295.64 52.8379 295.854 53.1581 296.091C54.8894 294.419 56.7274 292.842 58.6366 291.395C58.8382 291.241 59.1228 291.193 59.36 291.288C59.609 291.371 59.7987 291.585 59.858 291.834L64.2812 309.574L74.0643 310.949C74.2659 310.973 74.4557 311.08 74.5861 311.246L79.0567 317.187C79.3176 317.531 79.2583 318.029 78.9144 318.29C76.3174 320.234 74.1474 322.642 72.4516 325.44C65.0639 337.559 68.906 353.426 81.0133 360.814C90.085 366.351 101.422 365.782 109.9 359.391C110.102 359.236 110.386 359.189 110.636 359.272C110.885 359.367 111.062 359.568 111.134 359.829L114.905 375.388L121.521 375.435C121.782 375.447 122.02 375.565 122.162 375.779L129.218 386.036C129.455 386.392 129.372 386.866 129.028 387.115C126.953 388.61 124.771 389.973 122.518 391.183C122.648 391.562 122.755 391.93 122.838 392.274C124.794 400.349 119.826 408.508 111.762 410.465C110.576 410.749 109.367 410.891 108.181 410.891Z" fill="#25632D"/>
<mask id="path-85-inside-1_1036_4264" fill="white">
<path d="M91.9497 237.286C91.5465 237.286 91.2026 236.99 91.167 236.575C91.1315 236.148 91.4516 235.769 91.8785 235.733C94.7838 235.484 97.7247 235.354 100.63 235.354H101.448C101.875 235.354 102.219 235.709 102.219 236.148C102.219 236.575 101.863 236.919 101.436 236.919C101.436 236.919 101.436 236.919 101.425 236.919H100.63C97.7721 236.919 94.8787 237.037 92.0208 237.286C91.9971 237.286 91.9734 237.286 91.9497 237.286ZM120.303 238.887C120.244 238.887 120.196 238.887 120.149 238.875C117.078 238.247 113.947 237.773 110.828 237.441C110.401 237.405 110.093 237.014 110.14 236.587C110.176 236.16 110.555 235.84 110.994 235.899C114.149 236.219 117.338 236.705 120.457 237.334C120.872 237.429 121.145 237.832 121.062 238.259C120.991 238.626 120.659 238.887 120.303 238.887ZM73.2965 240.702C72.9526 240.702 72.6443 240.476 72.5376 240.132C72.419 239.717 72.668 239.279 73.083 239.172C76.1306 238.306 79.2612 237.583 82.4037 237.002C82.8188 236.931 83.2338 237.215 83.3049 237.63C83.388 238.057 83.1034 238.46 82.6765 238.543C79.5933 239.101 76.5101 239.824 73.5099 240.666C73.4388 240.69 73.3676 240.702 73.2965 240.702ZM138.434 244.413C138.34 244.413 138.245 244.401 138.138 244.354C135.256 243.168 132.268 242.089 129.28 241.176C128.865 241.057 128.628 240.619 128.758 240.204C128.877 239.789 129.315 239.563 129.73 239.682C132.766 240.619 135.802 241.698 138.743 242.919C139.134 243.073 139.324 243.536 139.158 243.927C139.039 244.235 138.743 244.413 138.434 244.413ZM55.6275 247.579C55.3311 247.579 55.0583 247.425 54.9279 247.153C54.7263 246.761 54.8923 246.299 55.2718 246.097C58.1178 244.662 61.0468 243.358 64.0114 242.208C64.4146 242.042 64.8652 242.243 65.0194 242.646C65.1735 243.05 64.9838 243.5 64.5806 243.654C61.6634 244.793 58.77 246.085 55.9714 247.496C55.8647 247.544 55.7461 247.579 55.6275 247.579ZM155.202 253.283C155.06 253.283 154.906 253.248 154.775 253.165C152.155 251.433 149.427 249.821 146.664 248.362C146.285 248.161 146.142 247.686 146.344 247.307C146.546 246.927 147.02 246.785 147.399 246.987C150.21 248.469 152.973 250.105 155.629 251.848C155.997 252.086 156.092 252.572 155.854 252.939C155.712 253.165 155.451 253.283 155.202 253.283ZM39.595 257.695C39.3579 257.695 39.1207 257.588 38.9666 257.386C38.7057 257.054 38.765 256.556 39.1089 256.295C41.6228 254.351 44.2672 252.501 46.9472 250.817C47.3148 250.58 47.7892 250.686 48.0263 251.054C48.2516 251.422 48.1449 251.908 47.7773 252.133C45.1329 253.805 42.5478 255.619 40.0694 257.529C39.9271 257.635 39.7611 257.695 39.595 257.695ZM169.99 265.154C169.8 265.154 169.598 265.082 169.444 264.928C167.203 262.758 164.831 260.659 162.388 258.691C162.056 258.43 161.997 257.932 162.27 257.6C162.542 257.268 163.029 257.208 163.373 257.481C165.851 259.473 168.258 261.596 170.535 263.814C170.843 264.11 170.855 264.608 170.547 264.916C170.405 265.071 170.191 265.154 169.99 265.154ZM25.7563 270.668C25.5785 270.668 25.3887 270.608 25.2464 270.478C24.9263 270.182 24.8907 269.695 25.1753 269.375C27.2742 266.992 29.5154 264.679 31.8278 262.497C32.148 262.213 32.6461 262.225 32.9425 262.533C33.2271 262.853 33.2153 263.351 32.8951 263.636C30.6183 265.782 28.4126 268.059 26.3493 270.407C26.1951 270.573 25.9817 270.668 25.7563 270.668ZM182.275 279.597C182.026 279.597 181.789 279.478 181.634 279.253C179.844 276.704 177.911 274.19 175.883 271.806C175.599 271.474 175.646 270.988 175.966 270.703C176.298 270.431 176.796 270.466 177.069 270.798C179.132 273.217 181.101 275.767 182.915 278.364C183.164 278.72 183.081 279.206 182.725 279.455C182.583 279.55 182.429 279.597 182.275 279.597ZM14.6214 286.012C14.4909 286.012 14.3486 285.977 14.23 285.906C13.8506 285.68 13.732 285.206 13.9454 284.838C15.57 282.099 17.3251 279.407 19.1987 276.834C19.4477 276.49 19.9339 276.407 20.2896 276.656C20.6335 276.917 20.7165 277.403 20.4557 277.747C18.6295 280.285 16.8863 282.929 15.2973 285.621C15.155 285.87 14.8941 286.012 14.6214 286.012ZM191.595 296.104C191.299 296.104 191.014 295.926 190.884 295.63C189.615 292.772 188.192 289.949 186.651 287.222C186.437 286.842 186.568 286.368 186.947 286.155C187.326 285.953 187.801 286.084 188.014 286.463C189.58 289.214 191.026 292.096 192.319 295.001C192.485 295.392 192.307 295.855 191.916 296.033C191.809 296.08 191.702 296.104 191.595 296.104ZM6.56953 303.183C6.48652 303.183 6.40351 303.16 6.30864 303.136C5.90546 302.994 5.69201 302.543 5.83431 302.14C6.91342 299.14 8.13483 296.163 9.48668 293.293C9.66456 292.902 10.127 292.736 10.5184 292.914C10.9097 293.104 11.0757 293.566 10.8978 293.958C9.56969 296.792 8.36014 299.709 7.31661 302.662C7.19802 302.982 6.88971 303.183 6.56953 303.183ZM197.608 314.081C197.252 314.081 196.932 313.832 196.849 313.464C196.149 310.417 195.283 307.369 194.299 304.405C194.157 304.002 194.382 303.563 194.785 303.42C195.2 303.278 195.639 303.503 195.781 303.919C196.778 306.919 197.655 310.014 198.378 313.121C198.473 313.536 198.212 313.951 197.786 314.057C197.726 314.069 197.667 314.081 197.608 314.081ZM1.93291 321.564C1.88548 321.564 1.8499 321.552 1.81433 321.552C1.38743 321.493 1.09097 321.089 1.15026 320.663C1.63645 317.52 2.2768 314.366 3.0476 311.283C3.15432 310.868 3.58122 310.618 4.00812 310.725C4.42317 310.82 4.67219 311.247 4.56547 311.674C3.80653 314.698 3.17804 317.805 2.70371 320.9C2.64441 321.279 2.30052 321.564 1.93291 321.564ZM200.145 333.043C199.73 333.043 199.386 332.711 199.363 332.296C199.244 329.165 198.971 326.011 198.568 322.904L198.544 322.726C198.485 322.299 198.782 321.908 199.22 321.848C199.647 321.801 200.039 322.097 200.086 322.524L200.11 322.702C200.537 325.856 200.809 329.058 200.928 332.236C200.94 332.663 200.608 333.019 200.181 333.043C200.169 333.043 200.157 333.043 200.145 333.043ZM0.853802 340.49C0.438758 340.49 0.0948661 340.158 0.0830085 339.743C0.0237144 338.426 0 337.11 0 335.817C0 333.932 0.0592925 332.035 0.166017 330.173C0.189735 329.746 0.557346 329.414 0.984244 329.438C1.41115 329.461 1.74318 329.829 1.71946 330.268C1.62459 332.094 1.5653 333.968 1.5653 335.817C1.5653 337.086 1.58902 338.391 1.63645 339.683C1.66017 340.11 1.31628 340.466 0.889377 340.49C0.877519 340.49 0.865659 340.49 0.853802 340.49ZM199.066 351.969C199.019 351.969 198.983 351.969 198.948 351.957C198.521 351.897 198.224 351.494 198.284 351.067C198.77 347.984 199.102 344.83 199.28 341.711C199.303 341.272 199.671 340.952 200.098 340.964C200.537 340.988 200.857 341.367 200.833 341.794C200.655 344.972 200.311 348.174 199.837 351.305C199.778 351.696 199.446 351.969 199.066 351.969ZM3.36777 359.273C3.01202 359.273 2.69184 359.036 2.60884 358.68C1.89734 355.585 1.31628 352.419 0.901235 349.265C0.841944 348.838 1.1384 348.447 1.5653 348.387C1.9922 348.34 2.39539 348.636 2.45468 349.063C2.86972 352.17 3.42706 355.289 4.12671 358.325C4.23343 358.74 3.96069 359.167 3.54565 359.261C3.48636 359.273 3.42706 359.273 3.36777 359.273ZM194.394 370.349C194.311 370.349 194.228 370.325 194.133 370.302C193.73 370.159 193.517 369.709 193.659 369.305C194.714 366.353 195.639 363.329 196.41 360.293C196.517 359.878 196.944 359.629 197.359 359.724C197.774 359.831 198.035 360.258 197.928 360.684C197.145 363.756 196.208 366.839 195.129 369.827C195.023 370.147 194.714 370.349 194.394 370.349ZM9.3681 377.262C9.07164 377.262 8.78704 377.085 8.6566 376.8C7.36404 373.895 6.20192 370.895 5.19396 367.882C5.06352 367.467 5.27697 367.029 5.69201 366.886C6.09519 366.756 6.54581 366.981 6.67625 367.384C7.67236 370.361 8.81076 373.314 10.0796 376.16C10.2575 376.563 10.0796 377.025 9.67642 377.191C9.58155 377.239 9.47483 377.262 9.3681 377.262ZM186.33 387.508C186.2 387.508 186.058 387.472 185.939 387.401C185.56 387.176 185.441 386.702 185.666 386.334C187.255 383.63 188.738 380.832 190.066 378.01C190.244 377.618 190.718 377.452 191.109 377.63C191.501 377.808 191.667 378.282 191.477 378.662C190.125 381.543 188.631 384.389 187.006 387.129C186.864 387.366 186.603 387.508 186.33 387.508ZM18.6769 393.781C18.4279 393.781 18.1789 393.663 18.0366 393.437C16.2104 390.828 14.5028 388.113 12.9493 385.35C12.7359 384.97 12.8663 384.496 13.2458 384.283C13.6134 384.069 14.0996 384.2 14.3012 384.579C15.8428 387.295 17.5266 389.975 19.3173 392.548C19.5663 392.904 19.4714 393.39 19.1157 393.639C18.9852 393.734 18.8311 393.781 18.6769 393.781ZM175.183 402.841C174.994 402.841 174.816 402.77 174.662 402.639C174.342 402.355 174.306 401.869 174.591 401.536C176.666 399.2 178.646 396.734 180.484 394.196C180.745 393.852 181.231 393.769 181.575 394.03C181.931 394.279 182.002 394.765 181.753 395.121C179.879 397.683 177.863 400.197 175.765 402.58C175.61 402.746 175.397 402.841 175.183 402.841ZM30.9503 408.225C30.7487 408.225 30.5471 408.153 30.4048 408.011C28.1162 405.782 25.9224 403.434 23.8709 401.015C23.5863 400.683 23.6337 400.197 23.9539 399.912C24.2859 399.639 24.784 399.675 25.0567 400.007C27.0845 402.39 29.2427 404.703 31.4958 406.885C31.8041 407.181 31.8041 407.679 31.5077 407.987C31.3535 408.142 31.1519 408.225 30.9503 408.225ZM161.345 415.802C161.108 415.802 160.882 415.695 160.728 415.494C160.455 415.162 160.527 414.664 160.87 414.403C163.337 412.494 165.756 410.442 168.033 408.296C168.353 408.011 168.851 408.023 169.136 408.331C169.432 408.652 169.42 409.15 169.1 409.434C166.776 411.616 164.333 413.691 161.819 415.636C161.677 415.743 161.511 415.802 161.345 415.802ZM45.7258 420.107C45.5717 420.107 45.4294 420.059 45.2989 419.976C42.6308 418.233 40.0338 416.336 37.5673 414.344C37.2234 414.071 37.1759 413.585 37.4487 413.253C37.7214 412.909 38.2076 412.861 38.5397 413.122C40.9825 415.079 43.5439 416.952 46.1527 418.672C46.5085 418.909 46.6152 419.395 46.378 419.751C46.2239 419.988 45.9748 420.107 45.7258 420.107ZM145.3 425.905C145.016 425.905 144.743 425.751 144.601 425.479C144.411 425.087 144.565 424.625 144.945 424.423C147.743 423.024 150.494 421.459 153.151 419.798C153.518 419.561 153.993 419.68 154.23 420.036C154.455 420.403 154.348 420.889 153.981 421.115C151.289 422.81 148.49 424.399 145.656 425.822C145.538 425.882 145.419 425.905 145.3 425.905ZM62.4817 428.989C62.375 428.989 62.2801 428.977 62.1734 428.929C59.2443 427.708 56.3272 426.344 53.5286 424.85C53.1373 424.648 52.995 424.186 53.1966 423.795C53.3982 423.415 53.8725 423.273 54.252 423.474C57.015 424.945 59.8847 426.297 62.7781 427.483C63.1813 427.649 63.3711 428.111 63.205 428.502C63.0746 428.811 62.79 428.989 62.4817 428.989ZM127.62 432.771C127.276 432.771 126.967 432.534 126.873 432.19C126.754 431.775 126.991 431.348 127.406 431.23C130.43 430.388 133.43 429.38 136.347 428.253C136.739 428.099 137.201 428.289 137.355 428.692C137.509 429.095 137.308 429.546 136.905 429.7C133.952 430.85 130.893 431.87 127.833 432.736C127.762 432.76 127.691 432.771 127.62 432.771ZM80.6131 434.538C80.5657 434.538 80.5182 434.526 80.4589 434.526C77.3521 433.886 74.2333 433.092 71.1857 432.167C70.7707 432.036 70.5454 431.609 70.6639 431.182C70.7944 430.779 71.2331 430.542 71.6363 430.672C74.6365 431.586 77.7078 432.368 80.7673 432.985C81.1942 433.08 81.4669 433.495 81.3839 433.91C81.3009 434.277 80.9807 434.538 80.6131 434.538ZM108.966 436.151C108.563 436.151 108.219 435.843 108.184 435.44C108.148 435.013 108.468 434.633 108.895 434.598C110.425 434.467 111.978 434.289 113.52 434.088C115.097 433.874 116.686 433.637 118.24 433.352C118.667 433.269 119.07 433.554 119.141 433.981C119.224 434.408 118.939 434.811 118.512 434.882C116.947 435.179 115.334 435.428 113.733 435.641C112.168 435.843 110.579 436.021 109.026 436.151C109.002 436.151 108.99 436.151 108.966 436.151ZM99.4797 436.519C99.4679 436.519 99.4679 436.519 99.4679 436.519C96.278 436.495 93.0762 436.305 89.9219 435.973C89.4831 435.938 89.1748 435.546 89.2223 435.119C89.2697 434.692 89.6492 434.384 90.0761 434.42C93.183 434.752 96.3491 434.93 99.4797 434.953C99.9185 434.965 100.262 435.321 100.251 435.748C100.251 436.175 99.9066 436.519 99.4797 436.519Z"/>
</mask>
<path d="M91.9497 237.286C91.5465 237.286 91.2026 236.99 91.167 236.575C91.1315 236.148 91.4516 235.769 91.8785 235.733C94.7838 235.484 97.7247 235.354 100.63 235.354H101.448C101.875 235.354 102.219 235.709 102.219 236.148C102.219 236.575 101.863 236.919 101.436 236.919C101.436 236.919 101.436 236.919 101.425 236.919H100.63C97.7721 236.919 94.8787 237.037 92.0208 237.286C91.9971 237.286 91.9734 237.286 91.9497 237.286ZM120.303 238.887C120.244 238.887 120.196 238.887 120.149 238.875C117.078 238.247 113.947 237.773 110.828 237.441C110.401 237.405 110.093 237.014 110.14 236.587C110.176 236.16 110.555 235.84 110.994 235.899C114.149 236.219 117.338 236.705 120.457 237.334C120.872 237.429 121.145 237.832 121.062 238.259C120.991 238.626 120.659 238.887 120.303 238.887ZM73.2965 240.702C72.9526 240.702 72.6443 240.476 72.5376 240.132C72.419 239.717 72.668 239.279 73.083 239.172C76.1306 238.306 79.2612 237.583 82.4037 237.002C82.8188 236.931 83.2338 237.215 83.3049 237.63C83.388 238.057 83.1034 238.46 82.6765 238.543C79.5933 239.101 76.5101 239.824 73.5099 240.666C73.4388 240.69 73.3676 240.702 73.2965 240.702ZM138.434 244.413C138.34 244.413 138.245 244.401 138.138 244.354C135.256 243.168 132.268 242.089 129.28 241.176C128.865 241.057 128.628 240.619 128.758 240.204C128.877 239.789 129.315 239.563 129.73 239.682C132.766 240.619 135.802 241.698 138.743 242.919C139.134 243.073 139.324 243.536 139.158 243.927C139.039 244.235 138.743 244.413 138.434 244.413ZM55.6275 247.579C55.3311 247.579 55.0583 247.425 54.9279 247.153C54.7263 246.761 54.8923 246.299 55.2718 246.097C58.1178 244.662 61.0468 243.358 64.0114 242.208C64.4146 242.042 64.8652 242.243 65.0194 242.646C65.1735 243.05 64.9838 243.5 64.5806 243.654C61.6634 244.793 58.77 246.085 55.9714 247.496C55.8647 247.544 55.7461 247.579 55.6275 247.579ZM155.202 253.283C155.06 253.283 154.906 253.248 154.775 253.165C152.155 251.433 149.427 249.821 146.664 248.362C146.285 248.161 146.142 247.686 146.344 247.307C146.546 246.927 147.02 246.785 147.399 246.987C150.21 248.469 152.973 250.105 155.629 251.848C155.997 252.086 156.092 252.572 155.854 252.939C155.712 253.165 155.451 253.283 155.202 253.283ZM39.595 257.695C39.3579 257.695 39.1207 257.588 38.9666 257.386C38.7057 257.054 38.765 256.556 39.1089 256.295C41.6228 254.351 44.2672 252.501 46.9472 250.817C47.3148 250.58 47.7892 250.686 48.0263 251.054C48.2516 251.422 48.1449 251.908 47.7773 252.133C45.1329 253.805 42.5478 255.619 40.0694 257.529C39.9271 257.635 39.7611 257.695 39.595 257.695ZM169.99 265.154C169.8 265.154 169.598 265.082 169.444 264.928C167.203 262.758 164.831 260.659 162.388 258.691C162.056 258.43 161.997 257.932 162.27 257.6C162.542 257.268 163.029 257.208 163.373 257.481C165.851 259.473 168.258 261.596 170.535 263.814C170.843 264.11 170.855 264.608 170.547 264.916C170.405 265.071 170.191 265.154 169.99 265.154ZM25.7563 270.668C25.5785 270.668 25.3887 270.608 25.2464 270.478C24.9263 270.182 24.8907 269.695 25.1753 269.375C27.2742 266.992 29.5154 264.679 31.8278 262.497C32.148 262.213 32.6461 262.225 32.9425 262.533C33.2271 262.853 33.2153 263.351 32.8951 263.636C30.6183 265.782 28.4126 268.059 26.3493 270.407C26.1951 270.573 25.9817 270.668 25.7563 270.668ZM182.275 279.597C182.026 279.597 181.789 279.478 181.634 279.253C179.844 276.704 177.911 274.19 175.883 271.806C175.599 271.474 175.646 270.988 175.966 270.703C176.298 270.431 176.796 270.466 177.069 270.798C179.132 273.217 181.101 275.767 182.915 278.364C183.164 278.72 183.081 279.206 182.725 279.455C182.583 279.55 182.429 279.597 182.275 279.597ZM14.6214 286.012C14.4909 286.012 14.3486 285.977 14.23 285.906C13.8506 285.68 13.732 285.206 13.9454 284.838C15.57 282.099 17.3251 279.407 19.1987 276.834C19.4477 276.49 19.9339 276.407 20.2896 276.656C20.6335 276.917 20.7165 277.403 20.4557 277.747C18.6295 280.285 16.8863 282.929 15.2973 285.621C15.155 285.87 14.8941 286.012 14.6214 286.012ZM191.595 296.104C191.299 296.104 191.014 295.926 190.884 295.63C189.615 292.772 188.192 289.949 186.651 287.222C186.437 286.842 186.568 286.368 186.947 286.155C187.326 285.953 187.801 286.084 188.014 286.463C189.58 289.214 191.026 292.096 192.319 295.001C192.485 295.392 192.307 295.855 191.916 296.033C191.809 296.08 191.702 296.104 191.595 296.104ZM6.56953 303.183C6.48652 303.183 6.40351 303.16 6.30864 303.136C5.90546 302.994 5.69201 302.543 5.83431 302.14C6.91342 299.14 8.13483 296.163 9.48668 293.293C9.66456 292.902 10.127 292.736 10.5184 292.914C10.9097 293.104 11.0757 293.566 10.8978 293.958C9.56969 296.792 8.36014 299.709 7.31661 302.662C7.19802 302.982 6.88971 303.183 6.56953 303.183ZM197.608 314.081C197.252 314.081 196.932 313.832 196.849 313.464C196.149 310.417 195.283 307.369 194.299 304.405C194.157 304.002 194.382 303.563 194.785 303.42C195.2 303.278 195.639 303.503 195.781 303.919C196.778 306.919 197.655 310.014 198.378 313.121C198.473 313.536 198.212 313.951 197.786 314.057C197.726 314.069 197.667 314.081 197.608 314.081ZM1.93291 321.564C1.88548 321.564 1.8499 321.552 1.81433 321.552C1.38743 321.493 1.09097 321.089 1.15026 320.663C1.63645 317.52 2.2768 314.366 3.0476 311.283C3.15432 310.868 3.58122 310.618 4.00812 310.725C4.42317 310.82 4.67219 311.247 4.56547 311.674C3.80653 314.698 3.17804 317.805 2.70371 320.9C2.64441 321.279 2.30052 321.564 1.93291 321.564ZM200.145 333.043C199.73 333.043 199.386 332.711 199.363 332.296C199.244 329.165 198.971 326.011 198.568 322.904L198.544 322.726C198.485 322.299 198.782 321.908 199.22 321.848C199.647 321.801 200.039 322.097 200.086 322.524L200.11 322.702C200.537 325.856 200.809 329.058 200.928 332.236C200.94 332.663 200.608 333.019 200.181 333.043C200.169 333.043 200.157 333.043 200.145 333.043ZM0.853802 340.49C0.438758 340.49 0.0948661 340.158 0.0830085 339.743C0.0237144 338.426 0 337.11 0 335.817C0 333.932 0.0592925 332.035 0.166017 330.173C0.189735 329.746 0.557346 329.414 0.984244 329.438C1.41115 329.461 1.74318 329.829 1.71946 330.268C1.62459 332.094 1.5653 333.968 1.5653 335.817C1.5653 337.086 1.58902 338.391 1.63645 339.683C1.66017 340.11 1.31628 340.466 0.889377 340.49C0.877519 340.49 0.865659 340.49 0.853802 340.49ZM199.066 351.969C199.019 351.969 198.983 351.969 198.948 351.957C198.521 351.897 198.224 351.494 198.284 351.067C198.77 347.984 199.102 344.83 199.28 341.711C199.303 341.272 199.671 340.952 200.098 340.964C200.537 340.988 200.857 341.367 200.833 341.794C200.655 344.972 200.311 348.174 199.837 351.305C199.778 351.696 199.446 351.969 199.066 351.969ZM3.36777 359.273C3.01202 359.273 2.69184 359.036 2.60884 358.68C1.89734 355.585 1.31628 352.419 0.901235 349.265C0.841944 348.838 1.1384 348.447 1.5653 348.387C1.9922 348.34 2.39539 348.636 2.45468 349.063C2.86972 352.17 3.42706 355.289 4.12671 358.325C4.23343 358.74 3.96069 359.167 3.54565 359.261C3.48636 359.273 3.42706 359.273 3.36777 359.273ZM194.394 370.349C194.311 370.349 194.228 370.325 194.133 370.302C193.73 370.159 193.517 369.709 193.659 369.305C194.714 366.353 195.639 363.329 196.41 360.293C196.517 359.878 196.944 359.629 197.359 359.724C197.774 359.831 198.035 360.258 197.928 360.684C197.145 363.756 196.208 366.839 195.129 369.827C195.023 370.147 194.714 370.349 194.394 370.349ZM9.3681 377.262C9.07164 377.262 8.78704 377.085 8.6566 376.8C7.36404 373.895 6.20192 370.895 5.19396 367.882C5.06352 367.467 5.27697 367.029 5.69201 366.886C6.09519 366.756 6.54581 366.981 6.67625 367.384C7.67236 370.361 8.81076 373.314 10.0796 376.16C10.2575 376.563 10.0796 377.025 9.67642 377.191C9.58155 377.239 9.47483 377.262 9.3681 377.262ZM186.33 387.508C186.2 387.508 186.058 387.472 185.939 387.401C185.56 387.176 185.441 386.702 185.666 386.334C187.255 383.63 188.738 380.832 190.066 378.01C190.244 377.618 190.718 377.452 191.109 377.63C191.501 377.808 191.667 378.282 191.477 378.662C190.125 381.543 188.631 384.389 187.006 387.129C186.864 387.366 186.603 387.508 186.33 387.508ZM18.6769 393.781C18.4279 393.781 18.1789 393.663 18.0366 393.437C16.2104 390.828 14.5028 388.113 12.9493 385.35C12.7359 384.97 12.8663 384.496 13.2458 384.283C13.6134 384.069 14.0996 384.2 14.3012 384.579C15.8428 387.295 17.5266 389.975 19.3173 392.548C19.5663 392.904 19.4714 393.39 19.1157 393.639C18.9852 393.734 18.8311 393.781 18.6769 393.781ZM175.183 402.841C174.994 402.841 174.816 402.77 174.662 402.639C174.342 402.355 174.306 401.869 174.591 401.536C176.666 399.2 178.646 396.734 180.484 394.196C180.745 393.852 181.231 393.769 181.575 394.03C181.931 394.279 182.002 394.765 181.753 395.121C179.879 397.683 177.863 400.197 175.765 402.58C175.61 402.746 175.397 402.841 175.183 402.841ZM30.9503 408.225C30.7487 408.225 30.5471 408.153 30.4048 408.011C28.1162 405.782 25.9224 403.434 23.8709 401.015C23.5863 400.683 23.6337 400.197 23.9539 399.912C24.2859 399.639 24.784 399.675 25.0567 400.007C27.0845 402.39 29.2427 404.703 31.4958 406.885C31.8041 407.181 31.8041 407.679 31.5077 407.987C31.3535 408.142 31.1519 408.225 30.9503 408.225ZM161.345 415.802C161.108 415.802 160.882 415.695 160.728 415.494C160.455 415.162 160.527 414.664 160.87 414.403C163.337 412.494 165.756 410.442 168.033 408.296C168.353 408.011 168.851 408.023 169.136 408.331C169.432 408.652 169.42 409.15 169.1 409.434C166.776 411.616 164.333 413.691 161.819 415.636C161.677 415.743 161.511 415.802 161.345 415.802ZM45.7258 420.107C45.5717 420.107 45.4294 420.059 45.2989 419.976C42.6308 418.233 40.0338 416.336 37.5673 414.344C37.2234 414.071 37.1759 413.585 37.4487 413.253C37.7214 412.909 38.2076 412.861 38.5397 413.122C40.9825 415.079 43.5439 416.952 46.1527 418.672C46.5085 418.909 46.6152 419.395 46.378 419.751C46.2239 419.988 45.9748 420.107 45.7258 420.107ZM145.3 425.905C145.016 425.905 144.743 425.751 144.601 425.479C144.411 425.087 144.565 424.625 144.945 424.423C147.743 423.024 150.494 421.459 153.151 419.798C153.518 419.561 153.993 419.68 154.23 420.036C154.455 420.403 154.348 420.889 153.981 421.115C151.289 422.81 148.49 424.399 145.656 425.822C145.538 425.882 145.419 425.905 145.3 425.905ZM62.4817 428.989C62.375 428.989 62.2801 428.977 62.1734 428.929C59.2443 427.708 56.3272 426.344 53.5286 424.85C53.1373 424.648 52.995 424.186 53.1966 423.795C53.3982 423.415 53.8725 423.273 54.252 423.474C57.015 424.945 59.8847 426.297 62.7781 427.483C63.1813 427.649 63.3711 428.111 63.205 428.502C63.0746 428.811 62.79 428.989 62.4817 428.989ZM127.62 432.771C127.276 432.771 126.967 432.534 126.873 432.19C126.754 431.775 126.991 431.348 127.406 431.23C130.43 430.388 133.43 429.38 136.347 428.253C136.739 428.099 137.201 428.289 137.355 428.692C137.509 429.095 137.308 429.546 136.905 429.7C133.952 430.85 130.893 431.87 127.833 432.736C127.762 432.76 127.691 432.771 127.62 432.771ZM80.6131 434.538C80.5657 434.538 80.5182 434.526 80.4589 434.526C77.3521 433.886 74.2333 433.092 71.1857 432.167C70.7707 432.036 70.5454 431.609 70.6639 431.182C70.7944 430.779 71.2331 430.542 71.6363 430.672C74.6365 431.586 77.7078 432.368 80.7673 432.985C81.1942 433.08 81.4669 433.495 81.3839 433.91C81.3009 434.277 80.9807 434.538 80.6131 434.538ZM108.966 436.151C108.563 436.151 108.219 435.843 108.184 435.44C108.148 435.013 108.468 434.633 108.895 434.598C110.425 434.467 111.978 434.289 113.52 434.088C115.097 433.874 116.686 433.637 118.24 433.352C118.667 433.269 119.07 433.554 119.141 433.981C119.224 434.408 118.939 434.811 118.512 434.882C116.947 435.179 115.334 435.428 113.733 435.641C112.168 435.843 110.579 436.021 109.026 436.151C109.002 436.151 108.99 436.151 108.966 436.151ZM99.4797 436.519C99.4679 436.519 99.4679 436.519 99.4679 436.519C96.278 436.495 93.0762 436.305 89.9219 435.973C89.4831 435.938 89.1748 435.546 89.2223 435.119C89.2697 434.692 89.6492 434.384 90.0761 434.42C93.183 434.752 96.3491 434.93 99.4797 434.953C99.9185 434.965 100.262 435.321 100.251 435.748C100.251 436.175 99.9066 436.519 99.4797 436.519Z" fill="#77C360" stroke="black" stroke-width="2" mask="url(#path-85-inside-1_1036_4264)"/>
</svg>
