<svg width="573" height="358" viewBox="0 0 573 358" fill="none" xmlns="http://www.w3.org/2000/svg">
<g clip-path="url(#clip0_385_34)">
<path d="M213.833 73.4792C292.653 34.7337 373.712 -15.9179 465.274 4.81092C493.663 11.2362 519.497 27.3075 536.962 50.6678C583.656 113.137 579.864 208.814 554.491 279.129C551.184 288.307 547.044 297.202 541.724 305.403C515.971 345.077 472.583 346.949 430.724 335.479C395.309 325.769 363.928 315.784 327.34 325.656C307.078 331.12 287.437 338.635 267.247 344.358C239.756 352.148 211.416 357.435 182.793 357.968C107.054 359.38 20.5371 320.812 13.826 236.38C13.3894 230.907 13.3166 225.41 13.5592 219.921C15.0712 186.212 26.2294 152.455 57.1653 134.955C88.2628 117.358 125.158 110.4 158.422 97.9211C177.335 90.8258 195.689 82.3987 213.833 73.4792Z" fill="#77C360"/>
<path opacity="0.7" d="M213.833 73.4792C292.653 34.7337 373.712 -15.9179 465.274 4.81092C493.663 11.2362 519.497 27.3075 536.962 50.6678C583.656 113.137 579.864 208.814 554.491 279.129C551.184 288.307 547.044 297.202 541.724 305.403C515.971 345.077 472.583 346.949 430.724 335.479C395.309 325.769 363.928 315.784 327.34 325.656C307.078 331.12 287.437 338.635 267.247 344.358C239.756 352.148 211.416 357.435 182.793 357.968C107.054 359.38 20.5371 320.812 13.826 236.38C13.3894 230.907 13.3166 225.41 13.5592 219.921C15.0712 186.212 26.2294 152.455 57.1653 134.955C88.2628 117.358 125.158 110.4 158.422 97.9211C177.335 90.8258 195.689 82.3987 213.833 73.4792Z" fill="white"/>
<path d="M6.29883 340.137H567.623" stroke="#263238" stroke-miterlimit="10" stroke-linecap="round" stroke-linejoin="round"/>
<path d="M439.676 237.469V239.487H437.654" stroke="#263238" stroke-miterlimit="10"/>
<path d="M433.546 239.487H213.793" stroke="#263238" stroke-miterlimit="10" stroke-dasharray="5.08 5.08"/>
<path d="M211.74 239.487H209.719V237.469" stroke="#263238" stroke-miterlimit="10"/>
<path d="M209.719 233.425V33.3855" stroke="#263238" stroke-miterlimit="10" stroke-dasharray="5.01 5.01"/>
<path d="M209.719 31.3676V29.3496H211.74" stroke="#263238" stroke-miterlimit="10"/>
<path d="M215.848 29.3496H435.6" stroke="#263238" stroke-miterlimit="10" stroke-dasharray="5.08 5.08"/>
<path d="M437.654 29.3496H439.676V31.3676" stroke="#263238" stroke-miterlimit="10"/>
<path d="M439.676 35.4036V235.443" stroke="#263238" stroke-miterlimit="10" stroke-dasharray="5.01 5.01"/>
<path d="M180.99 302.215V304.233H178.969" stroke="#263238" stroke-miterlimit="10"/>
<path d="M174.86 304.233H4.47852" stroke="#263238" stroke-miterlimit="10" stroke-dasharray="5.08 5.08"/>
<path d="M2.42572 304.233H0.404297V302.215" stroke="#263238" stroke-miterlimit="10"/>
<path d="M0.404297 298.235V140.993" stroke="#263238" stroke-miterlimit="10" stroke-dasharray="4.93 4.93"/>
<path d="M0.404297 138.999V136.981H2.42572" stroke="#263238" stroke-miterlimit="10"/>
<path d="M6.5332 136.981H176.915" stroke="#263238" stroke-miterlimit="10" stroke-dasharray="5.08 5.08"/>
<path d="M178.969 136.981H180.99V138.999" stroke="#263238" stroke-miterlimit="10"/>
<path d="M180.99 142.979V300.221" stroke="#263238" stroke-miterlimit="10" stroke-dasharray="4.93 4.93"/>
<path d="M563.652 302.215V304.233H561.631" stroke="#263238" stroke-miterlimit="10"/>
<path d="M557.53 304.233H387.141" stroke="#263238" stroke-miterlimit="10" stroke-dasharray="5.08 5.08"/>
<path d="M385.088 304.233H383.066V302.215" stroke="#263238" stroke-miterlimit="10"/>
<path d="M383.066 298.235V140.993" stroke="#263238" stroke-miterlimit="10" stroke-dasharray="4.93 4.93"/>
<path d="M383.066 138.999V136.981H385.088" stroke="#263238" stroke-miterlimit="10"/>
<path d="M389.195 136.981H559.577" stroke="#263238" stroke-miterlimit="10" stroke-dasharray="5.08 5.08"/>
<path d="M561.631 136.981H563.652V138.999" stroke="#263238" stroke-miterlimit="10"/>
<path d="M563.652 142.979V300.221" stroke="#263238" stroke-miterlimit="10" stroke-dasharray="4.93 4.93"/>
<path d="M293.438 226.653C293.438 226.653 291.546 231.843 287.535 232.545C283.516 233.256 276.433 225.466 280.921 221.462C285.4 217.451 291.546 223.82 293.438 226.653Z" fill="#77C360" stroke="#263238" stroke-miterlimit="10" stroke-linecap="round" stroke-linejoin="round"/>
<path d="M299.576 201.178C299.576 201.178 293.673 215.562 296.034 222.641C298.395 229.72 313.046 234.902 317.299 225.708C321.552 216.506 312.1 203.535 308.559 200.71C305.017 197.876 300.764 198.821 299.576 201.178Z" fill="#77C360" stroke="#263238" stroke-miterlimit="10" stroke-linecap="round" stroke-linejoin="round"/>
<path d="M334.069 207.312C334.069 207.312 323.914 216.514 322.733 225.708C321.553 234.91 328.401 238.212 335.492 237.025C342.583 235.847 346.125 217.919 343.998 209.669C341.872 201.42 334.069 207.312 334.069 207.312Z" fill="#77C360" stroke="#263238" stroke-miterlimit="10" stroke-linecap="round" stroke-linejoin="round"/>
<path d="M335.961 258.255C335.961 258.255 324.625 258.723 324.147 264.147C323.678 269.572 329.112 270.75 334.546 266.036C339.979 261.322 340.683 258.489 335.961 258.255Z" fill="#77C360" stroke="#263238" stroke-miterlimit="10" stroke-linecap="round" stroke-linejoin="round"/>
<path d="M324.334 265.439C324.334 265.439 333.269 261.354 337.295 260.644" stroke="#263238" stroke-miterlimit="10"/>
<path d="M338.491 293.747C338.491 293.747 330.163 286.054 325.975 289.541C321.786 293.029 324.778 297.71 331.966 298.235C339.146 298.752 341.653 297.258 338.491 293.747Z" fill="#77C360" stroke="#263238" stroke-miterlimit="10" stroke-linecap="round" stroke-linejoin="round"/>
<path d="M325.189 290.583C325.189 290.583 334.391 294.029 337.73 296.387" stroke="#263238" stroke-miterlimit="10"/>
<path d="M294.553 291.479C294.553 291.479 306.035 280.872 311.808 285.683C317.581 290.494 313.458 296.944 303.553 297.662C293.648 298.38 290.187 296.322 294.553 291.479Z" fill="#77C360" stroke="#263238" stroke-miterlimit="10" stroke-linecap="round" stroke-linejoin="round"/>
<path d="M312.891 287.12C312.891 287.12 300.204 291.875 295.604 295.111" stroke="#263238" stroke-miterlimit="10"/>
<path d="M307.848 269.571C307.848 269.571 306.667 275.23 302.414 277.353C298.161 279.476 290.601 274.996 294.619 268.151C298.638 261.322 305.721 266.746 307.848 269.571Z" fill="#77C360" stroke="#263238" stroke-miterlimit="10" stroke-linecap="round" stroke-linejoin="round"/>
<path d="M297.926 251.886C297.926 251.886 295.799 247.172 287.527 250.231C279.256 253.299 275.949 258.013 281.148 259.667C286.347 261.322 297.926 251.886 297.926 251.886Z" fill="#77C360" stroke="#263238" stroke-miterlimit="10" stroke-linecap="round" stroke-linejoin="round"/>
<path d="M296.341 251.668C296.341 251.668 287.584 252.612 282.846 256.632" stroke="#263238" stroke-miterlimit="10"/>
<path d="M321.553 195.277C321.553 195.277 322.968 198.579 325.806 197.868C328.644 197.158 329.347 192.912 333.835 194.099C338.322 195.277 342.107 200.467 342.107 198.11C342.107 195.753 336.438 189.619 330.059 189.619C323.679 189.619 321.787 192.218 321.553 195.277Z" fill="#77C360" stroke="#263238" stroke-miterlimit="10" stroke-linecap="round" stroke-linejoin="round"/>
<path d="M297.926 251.886C297.926 251.886 308.098 249.932 312.334 261.217C312.747 262.323 313.103 263.477 313.394 264.672" stroke="#263238" stroke-miterlimit="10"/>
<path d="M340.383 240.956C340.383 240.956 342.509 236.242 350.781 239.302C359.053 242.369 362.36 247.083 357.161 248.738C351.953 250.393 340.383 240.956 340.383 240.956Z" fill="#77C360" stroke="#263238" stroke-miterlimit="10" stroke-linecap="round" stroke-linejoin="round"/>
<path d="M342.268 241.271C342.268 241.271 350.79 240.795 354.817 245.759" stroke="#263238" stroke-miterlimit="10"/>
<path d="M340.384 240.956C340.384 240.956 337.013 240.311 333.342 241.917" stroke="#263238" stroke-miterlimit="10"/>
<path d="M303.351 232.497C298.362 227.412 293.437 226.645 293.437 226.645C293.437 226.645 286.16 224.724 283.322 227.323" stroke="#263238" stroke-miterlimit="10"/>
<path d="M304.363 206.376L303.918 204.398" stroke="#263238" stroke-miterlimit="10"/>
<path d="M315.869 310.642C315.869 310.642 316.928 270.024 315.869 257.69C314.81 245.356 309.869 230.907 309.869 230.907L304.832 208.467" stroke="#263238" stroke-miterlimit="10"/>
<path d="M336.859 215.094L337.773 213.148" stroke="#263238" stroke-miterlimit="10"/>
<path d="M318.334 310.593C318.334 310.593 318.69 273.543 320.097 262.977C321.512 252.402 327.155 235.839 327.155 235.839L335.823 217.305" stroke="#263238" stroke-miterlimit="10"/>
<path d="M324.334 265.439C324.334 265.439 321.86 286.676 320.453 310.642" stroke="#263238" stroke-miterlimit="10"/>
<path d="M312.335 310.593C312.335 310.593 313.039 276.715 311.632 272.138C310.217 267.553 307.848 269.571 307.848 269.571C307.848 269.571 301.314 270.338 298.945 274.124" stroke="#263238" stroke-miterlimit="10"/>
<path d="M313.961 267.303C315.804 277.635 314.106 310.634 314.106 310.634" stroke="#263238" stroke-miterlimit="10"/>
<path d="M331.337 243.023C329.291 244.419 327.326 246.671 325.968 250.287C321.731 261.564 322.216 310.642 322.216 310.642" stroke="#263238" stroke-miterlimit="10"/>
<path d="M304.58 233.845C306.787 236.428 308.93 239.931 310.572 244.653C316.223 260.862 318.334 302.844 317.283 310.601" stroke="#263238" stroke-miterlimit="10"/>
<path d="M318.924 249.012C318.577 269.475 318.334 310.593 318.334 310.593" stroke="#263238" stroke-miterlimit="10"/>
<path d="M318.965 246.47C319.199 232.941 319.474 219.703 319.749 212.575C320.453 194.252 321.552 195.277 321.552 195.277C321.552 195.277 322.862 191.16 330.196 191.637" stroke="#263238" stroke-miterlimit="10"/>
<path d="M309.925 261.919C309.925 261.919 304.023 256.665 306.384 254.073C308.745 251.49 323.396 249.593 327.649 252.951C331.902 256.309 322.45 261.056 318.908 262.089C315.359 263.122 311.106 262.783 309.925 261.919Z" fill="#77C360" stroke="#263238" stroke-miterlimit="10" stroke-linecap="round" stroke-linejoin="round"/>
<path d="M315.383 257.617C315.302 258.15 315.254 258.682 315.254 259.183" stroke="#263238" stroke-miterlimit="10"/>
<path d="M317.412 251.474C317.412 251.474 316.531 253.226 315.9 255.381" stroke="#263238" stroke-miterlimit="10"/>
<path d="M309.925 296.298C309.925 296.298 304.023 291.043 306.384 288.452C308.745 285.869 323.396 283.972 327.649 287.33C331.902 290.688 322.45 295.434 318.908 296.467C315.359 297.5 311.106 297.161 309.925 296.298Z" fill="#77C360" stroke="#263238" stroke-miterlimit="10" stroke-linecap="round" stroke-linejoin="round"/>
<path d="M317.413 285.853C317.413 285.853 315.254 290.171 315.254 293.561" stroke="#263238" stroke-miterlimit="10"/>
<path d="M314.324 281.76C314.324 281.76 310.314 278.192 311.915 276.433C313.515 274.681 323.461 273.39 326.347 275.674C329.234 277.958 322.822 281.179 320.413 281.881C318.011 282.575 315.125 282.341 314.324 281.76Z" fill="#77C360" stroke="#263238" stroke-miterlimit="10" stroke-linecap="round" stroke-linejoin="round"/>
<path d="M319.401 274.665C319.401 274.665 317.93 277.595 317.93 279.896" stroke="#263238" stroke-miterlimit="10"/>
<path d="M324.763 304.749H308.777V340.145H324.763V304.749Z" fill="#263238" stroke="#263238" stroke-miterlimit="10" stroke-linecap="round" stroke-linejoin="round"/>
<path d="M90.2441 64.1641V69.9275L95.7747 70.7185C96.2922 73.5437 97.3919 76.159 98.9524 78.4434L95.5888 82.9233L99.672 86.9997L104.143 83.6498C106.424 85.2238 109.035 86.3378 111.865 86.8705L112.658 92.416H118.431L119.223 86.8947C122.053 86.3781 124.673 85.2804 126.961 83.7225L131.449 87.0804L135.532 83.0041L132.176 78.5403C133.753 76.264 134.869 73.6567 135.403 70.8315L140.958 70.0405V64.2771L135.427 63.486C134.909 60.6608 133.81 58.0455 132.249 55.7612L135.613 51.2812L131.53 47.2049L127.058 50.5547C124.778 48.9807 122.166 47.8668 119.336 47.334L118.544 41.7886H112.771L111.978 47.3098C109.148 47.8264 106.529 48.9242 104.24 50.4821L99.7529 47.1241L95.6696 51.2005L99.0252 55.6643C97.4485 57.9406 96.3327 60.5478 95.799 63.373L90.2441 64.1641ZM115.601 53.1216C123.331 53.1216 129.605 59.3774 129.605 67.1023C129.605 74.8191 123.339 81.0829 115.601 81.0829C107.871 81.0829 101.596 74.8271 101.596 67.1023C101.596 59.3855 107.871 53.1216 115.601 53.1216Z" stroke="#263238" stroke-miterlimit="10"/>
<path d="M137.732 58.6186V63.5506L142.463 64.2286C142.899 66.6421 143.845 68.8861 145.179 70.8396L142.309 74.6657L145.802 78.1528L149.626 75.2953C151.575 76.6433 153.815 77.5958 156.224 78.0478L156.904 82.7861H161.844L162.523 78.064C164.941 77.6281 167.189 76.6837 169.137 75.3518L172.978 78.2254L176.471 74.7383L173.609 70.9203C174.959 68.9749 175.913 66.739 176.366 64.3335L181.112 63.6555V58.7235L176.382 58.0455C175.945 55.632 174.999 53.388 173.665 51.4426L176.544 47.6084L173.051 44.1213L169.226 46.9869C167.278 45.6389 165.038 44.6864 162.628 44.2343L161.949 39.4961H157.009L156.329 44.2182C153.912 44.6541 151.664 45.5985 149.707 46.9304L145.875 44.0568L142.382 47.5438L145.244 51.3619C143.894 53.3072 142.94 55.5432 142.487 57.9486L137.732 58.6186ZM159.418 49.1744C166.032 49.1744 171.393 54.5261 171.393 61.129C171.393 67.7319 166.032 73.0836 159.418 73.0836C152.804 73.0836 147.443 67.7319 147.443 61.129C147.443 54.5261 152.804 49.1744 159.418 49.1744Z" stroke="#263238" stroke-miterlimit="10"/>
<path d="M385.016 268.385V274.148L390.546 274.939C391.064 277.765 392.163 280.38 393.724 282.664L390.36 287.144L394.444 291.221L398.915 287.871C401.195 289.445 403.807 290.559 406.637 291.091L407.429 296.637H413.202L413.995 291.116C416.825 290.599 419.444 289.501 421.733 287.943L426.22 291.301L430.304 287.225L426.948 282.761C428.525 280.485 429.641 277.878 430.174 275.052L435.729 274.261V268.498L430.198 267.707C429.681 264.882 428.581 262.266 427.021 259.982L430.384 255.502L426.301 251.426L421.83 254.776C419.55 253.202 416.938 252.088 414.108 251.555L413.316 246.01H407.542L406.75 251.531C403.92 252.047 401.3 253.145 399.012 254.703L394.524 251.345L390.441 255.421L393.797 259.885C392.22 262.162 391.104 264.769 390.57 267.594L385.016 268.385ZM410.372 257.351C418.102 257.351 424.377 263.606 424.377 271.331C424.377 279.048 418.11 285.312 410.372 285.312C402.642 285.312 396.368 279.056 396.368 271.331C396.368 263.606 402.634 257.351 410.372 257.351Z" stroke="#263238" stroke-miterlimit="10"/>
<path d="M432.504 262.84V267.772L437.234 268.45C437.671 270.863 438.617 273.107 439.951 275.06L437.072 278.895L440.565 282.382L444.39 279.524C446.338 280.872 448.578 281.825 450.988 282.277L451.667 287.015H456.607L457.286 282.293C459.704 281.857 461.952 280.913 463.901 279.581L467.733 282.454L471.226 278.967L468.364 275.149C469.714 273.204 470.668 270.968 471.121 268.563L475.867 267.884V262.953L471.137 262.274C470.701 259.861 469.755 257.617 468.42 255.672L471.299 251.837L467.806 248.35L463.981 251.216C462.033 249.868 459.793 248.915 457.384 248.463L456.704 243.725H451.764L451.085 248.447C448.667 248.883 446.419 249.828 444.463 251.159L440.63 248.286L437.137 251.773L439.999 255.591C438.649 257.536 437.695 259.772 437.242 262.178L432.504 262.84ZM454.19 253.403C460.804 253.403 466.165 258.755 466.165 265.358C466.165 271.961 460.804 277.313 454.19 277.313C447.576 277.313 442.215 271.961 442.215 265.358C442.215 258.755 447.576 253.403 454.19 253.403Z" stroke="#263238" stroke-miterlimit="10"/>
<path d="M490.283 45.6388V50.5708L495.013 51.2488C495.45 53.6624 496.396 55.9064 497.73 57.8598L494.852 61.694L498.345 65.1811L502.169 62.3236C504.118 63.6716 506.358 64.6241 508.767 65.0761L509.446 69.8144H514.387L515.066 65.0923C517.483 64.6564 519.731 63.712 521.68 62.3801L525.521 65.2537L529.014 61.7666L526.151 57.9486C527.502 56.0032 528.456 53.7673 528.909 51.3619L533.655 50.6838V45.7518L528.925 45.0738C528.488 42.6603 527.542 40.4163 526.208 38.4709L529.086 34.6448L525.593 31.1577L521.769 34.0233C519.82 32.6752 517.58 31.7228 515.171 31.2707L514.492 26.5325H509.551L508.872 31.2546C506.455 31.6905 504.207 32.6349 502.25 33.9668L498.417 31.0931L494.924 34.5802L497.787 38.3983C496.436 40.3436 495.482 42.5796 495.029 44.985L490.283 45.6388ZM511.969 36.2027C518.583 36.2027 523.944 41.5544 523.944 48.1573C523.944 54.7602 518.583 60.1119 511.969 60.1119C505.355 60.1119 499.994 54.7602 499.994 48.1573C499.994 41.5544 505.355 36.2027 511.969 36.2027Z" stroke="#263238" stroke-miterlimit="10"/>
<path d="M503.746 226.548H322.408V53.0087C322.408 49.2068 325.497 46.1313 329.297 46.1313H496.849C500.657 46.1313 503.738 49.2148 503.738 53.0087V226.548H503.746Z" fill="#263238" stroke="#263238" stroke-miterlimit="10" stroke-linecap="round" stroke-linejoin="round"/>
<path d="M507.869 222.423H326.539V48.892C326.539 45.0901 329.628 42.0146 333.428 42.0146H500.98C504.788 42.0146 507.869 45.0901 507.869 48.892V222.423Z" fill="white" stroke="#263238" stroke-miterlimit="10" stroke-linecap="round" stroke-linejoin="round"/>
<path d="M507.869 59.2564H326.539V48.892C326.539 45.0901 329.628 42.0146 333.428 42.0146H500.98C504.788 42.0146 507.869 45.0901 507.869 48.892V59.2564Z" fill="#77C360" stroke="#263238" stroke-miterlimit="10" stroke-linecap="round" stroke-linejoin="round"/>
<path d="M475.89 53.9933C477.444 53.9933 478.704 52.7357 478.704 51.1843C478.704 49.6329 477.444 48.3752 475.89 48.3752C474.336 48.3752 473.076 49.6329 473.076 51.1843C473.076 52.7357 474.336 53.9933 475.89 53.9933Z" fill="white" stroke="#263238" stroke-miterlimit="10" stroke-linecap="round" stroke-linejoin="round"/>
<path d="M487.153 51.1843C487.153 49.6345 485.892 48.3752 484.339 48.3752C482.787 48.3752 481.525 49.6345 481.525 51.1843C481.525 52.7341 482.787 53.9933 484.339 53.9933C485.892 53.9933 487.153 52.7341 487.153 51.1843Z" fill="white" stroke="#263238" stroke-miterlimit="10" stroke-linecap="round" stroke-linejoin="round"/>
<path d="M492.781 53.9933C494.335 53.9933 495.594 52.7357 495.594 51.1843C495.594 49.6329 494.335 48.3752 492.781 48.3752C491.227 48.3752 489.967 49.6329 489.967 51.1843C489.967 52.7357 491.227 53.9933 492.781 53.9933Z" fill="#263238" stroke="#263238" stroke-miterlimit="10" stroke-linecap="round" stroke-linejoin="round"/>
<path d="M345.145 69.5642H358.478" stroke="#263238" stroke-width="3" stroke-miterlimit="10" stroke-linecap="round" stroke-linejoin="round"/>
<path d="M345.145 77.386H395.235" stroke="#C4C4C4" stroke-width="3" stroke-miterlimit="10" stroke-linecap="round" stroke-linejoin="round"/>
<path d="M422.621 77.386H472.712" stroke="#C4C4C4" stroke-width="3" stroke-miterlimit="10" stroke-linecap="round" stroke-linejoin="round"/>
<path d="M398.479 77.386H418.297" stroke="#263238" stroke-width="3" stroke-miterlimit="10" stroke-linecap="round" stroke-linejoin="round"/>
<path d="M345.145 85.1997H373.97" stroke="#263238" stroke-width="3" stroke-miterlimit="10" stroke-linecap="round" stroke-linejoin="round"/>
<path d="M377.576 85.1997H406.402" stroke="#263238" stroke-width="3" stroke-miterlimit="10" stroke-linecap="round" stroke-linejoin="round"/>
<path d="M410.008 85.1997H438.841" stroke="#263238" stroke-width="3" stroke-miterlimit="10" stroke-linecap="round" stroke-linejoin="round"/>
<path d="M442.439 85.1997H454.697" stroke="#263238" stroke-width="3" stroke-miterlimit="10" stroke-linecap="round" stroke-linejoin="round"/>
<path d="M362.084 69.5642H375.417" stroke="#263238" stroke-width="3" stroke-miterlimit="10" stroke-linecap="round" stroke-linejoin="round"/>
<path d="M441.365 69.5642H454.699" stroke="#263238" stroke-width="3" stroke-miterlimit="10" stroke-linecap="round" stroke-linejoin="round"/>
<path d="M423.705 69.5642H437.038" stroke="#C4C4C4" stroke-width="3" stroke-miterlimit="10" stroke-linecap="round" stroke-linejoin="round"/>
<path d="M379.016 69.5642H417.94" stroke="#263238" stroke-width="3" stroke-miterlimit="10" stroke-linecap="round" stroke-linejoin="round"/>
<path d="M345.145 117.302H358.478" stroke="#263238" stroke-width="3" stroke-miterlimit="10" stroke-linecap="round" stroke-linejoin="round"/>
<path d="M345.145 125.124H395.235" stroke="#C4C4C4" stroke-width="3" stroke-miterlimit="10" stroke-linecap="round" stroke-linejoin="round"/>
<path d="M422.621 125.124H472.712" stroke="#263238" stroke-width="3" stroke-miterlimit="10" stroke-linecap="round" stroke-linejoin="round"/>
<path d="M398.479 125.124H418.297" stroke="#263238" stroke-width="3" stroke-miterlimit="10" stroke-linecap="round" stroke-linejoin="round"/>
<path d="M345.145 132.937H373.97" stroke="#263238" stroke-width="3" stroke-miterlimit="10" stroke-linecap="round" stroke-linejoin="round"/>
<path d="M377.576 132.937H406.402" stroke="#263238" stroke-width="3" stroke-miterlimit="10" stroke-linecap="round" stroke-linejoin="round"/>
<path d="M410.008 132.937H438.841" stroke="#C4C4C4" stroke-width="3" stroke-miterlimit="10" stroke-linecap="round" stroke-linejoin="round"/>
<path d="M442.439 132.937H454.697" stroke="#263238" stroke-width="3" stroke-miterlimit="10" stroke-linecap="round" stroke-linejoin="round"/>
<path d="M362.084 117.302H375.417" stroke="#263238" stroke-width="3" stroke-miterlimit="10" stroke-linecap="round" stroke-linejoin="round"/>
<path d="M441.365 117.302H454.699" stroke="#263238" stroke-width="3" stroke-miterlimit="10" stroke-linecap="round" stroke-linejoin="round"/>
<path d="M423.705 117.302H437.038" stroke="#C4C4C4" stroke-width="3" stroke-miterlimit="10" stroke-linecap="round" stroke-linejoin="round"/>
<path d="M379.016 117.302H417.94" stroke="#263238" stroke-width="3" stroke-miterlimit="10" stroke-linecap="round" stroke-linejoin="round"/>
<path d="M345.145 187.673H358.478" stroke="#263238" stroke-width="3" stroke-miterlimit="10" stroke-linecap="round" stroke-linejoin="round"/>
<path d="M345.145 195.495H395.235" stroke="#C4C4C4" stroke-width="3" stroke-miterlimit="10" stroke-linecap="round" stroke-linejoin="round"/>
<path d="M422.621 195.495H472.712" stroke="#263238" stroke-width="3" stroke-miterlimit="10" stroke-linecap="round" stroke-linejoin="round"/>
<path d="M398.479 195.495H418.297" stroke="#263238" stroke-width="3" stroke-miterlimit="10" stroke-linecap="round" stroke-linejoin="round"/>
<path d="M345.145 203.309H373.97" stroke="#263238" stroke-width="3" stroke-miterlimit="10" stroke-linecap="round" stroke-linejoin="round"/>
<path d="M377.576 203.309H406.402" stroke="#263238" stroke-width="3" stroke-miterlimit="10" stroke-linecap="round" stroke-linejoin="round"/>
<path d="M410.008 203.309H438.841" stroke="#C4C4C4" stroke-width="3" stroke-miterlimit="10" stroke-linecap="round" stroke-linejoin="round"/>
<path d="M442.439 203.309H454.697" stroke="#263238" stroke-width="3" stroke-miterlimit="10" stroke-linecap="round" stroke-linejoin="round"/>
<path d="M362.084 187.673H375.417" stroke="#263238" stroke-width="3" stroke-miterlimit="10" stroke-linecap="round" stroke-linejoin="round"/>
<path d="M441.365 187.673H454.699" stroke="#263238" stroke-width="3" stroke-miterlimit="10" stroke-linecap="round" stroke-linejoin="round"/>
<path d="M423.705 187.673H437.038" stroke="#C4C4C4" stroke-width="3" stroke-miterlimit="10" stroke-linecap="round" stroke-linejoin="round"/>
<path d="M379.016 187.673H417.94" stroke="#263238" stroke-width="3" stroke-miterlimit="10" stroke-linecap="round" stroke-linejoin="round"/>
<path d="M420.098 93.4331H433.431" stroke="#263238" stroke-width="3" stroke-miterlimit="10" stroke-linecap="round" stroke-linejoin="round"/>
<path d="M402.439 93.4331H415.773" stroke="#263238" stroke-width="3" stroke-miterlimit="10" stroke-linecap="round" stroke-linejoin="round"/>
<path d="M357.758 93.4331H396.674" stroke="#263238" stroke-width="3" stroke-miterlimit="10" stroke-linecap="round" stroke-linejoin="round"/>
<path d="M420.098 107.422H433.431" stroke="#263238" stroke-width="3" stroke-miterlimit="10" stroke-linecap="round" stroke-linejoin="round"/>
<path d="M402.439 107.422H415.773" stroke="#263238" stroke-width="3" stroke-miterlimit="10" stroke-linecap="round" stroke-linejoin="round"/>
<path d="M357.758 107.422H396.674" stroke="#C4C4C4" stroke-width="3" stroke-miterlimit="10" stroke-linecap="round" stroke-linejoin="round"/>
<path d="M371.091 100.431H357.758" stroke="#263238" stroke-width="3" stroke-miterlimit="10" stroke-linecap="round" stroke-linejoin="round"/>
<path d="M388.749 100.431H375.416" stroke="#263238" stroke-width="3" stroke-miterlimit="10" stroke-linecap="round" stroke-linejoin="round"/>
<path d="M433.432 100.431H394.516" stroke="#C4C4C4" stroke-width="3" stroke-miterlimit="10" stroke-linecap="round" stroke-linejoin="round"/>
<path d="M420.098 142.406H433.431" stroke="#263238" stroke-width="3" stroke-miterlimit="10" stroke-linecap="round" stroke-linejoin="round"/>
<path d="M402.439 142.406H415.773" stroke="#263238" stroke-width="3" stroke-miterlimit="10" stroke-linecap="round" stroke-linejoin="round"/>
<path d="M357.758 142.406H396.674" stroke="#263238" stroke-width="3" stroke-miterlimit="10" stroke-linecap="round" stroke-linejoin="round"/>
<path d="M420.098 156.395H433.431" stroke="#263238" stroke-width="3" stroke-miterlimit="10" stroke-linecap="round" stroke-linejoin="round"/>
<path d="M402.439 156.395H415.773" stroke="#263238" stroke-width="3" stroke-miterlimit="10" stroke-linecap="round" stroke-linejoin="round"/>
<path d="M357.758 156.395H396.674" stroke="#C4C4C4" stroke-width="3" stroke-miterlimit="10" stroke-linecap="round" stroke-linejoin="round"/>
<path d="M371.091 149.404H357.758" stroke="#263238" stroke-width="3" stroke-miterlimit="10" stroke-linecap="round" stroke-linejoin="round"/>
<path d="M388.749 149.404H375.416" stroke="#263238" stroke-width="3" stroke-miterlimit="10" stroke-linecap="round" stroke-linejoin="round"/>
<path d="M433.432 149.404H394.516" stroke="#C4C4C4" stroke-width="3" stroke-miterlimit="10" stroke-linecap="round" stroke-linejoin="round"/>
<path d="M371.091 164.628H357.758" stroke="#263238" stroke-width="3" stroke-miterlimit="10" stroke-linecap="round" stroke-linejoin="round"/>
<path d="M388.749 164.628H375.416" stroke="#263238" stroke-width="3" stroke-miterlimit="10" stroke-linecap="round" stroke-linejoin="round"/>
<path d="M433.432 164.628H394.516" stroke="#C4C4C4" stroke-width="3" stroke-miterlimit="10" stroke-linecap="round" stroke-linejoin="round"/>
<path d="M371.091 178.617H357.758" stroke="#263238" stroke-width="3" stroke-miterlimit="10" stroke-linecap="round" stroke-linejoin="round"/>
<path d="M388.749 178.617H375.416" stroke="#263238" stroke-width="3" stroke-miterlimit="10" stroke-linecap="round" stroke-linejoin="round"/>
<path d="M433.432 178.617H394.516" stroke="#C4C4C4" stroke-width="3" stroke-miterlimit="10" stroke-linecap="round" stroke-linejoin="round"/>
<path d="M420.098 171.626H433.431" stroke="#263238" stroke-width="3" stroke-miterlimit="10" stroke-linecap="round" stroke-linejoin="round"/>
<path d="M402.439 171.626H415.773" stroke="#263238" stroke-width="3" stroke-miterlimit="10" stroke-linecap="round" stroke-linejoin="round"/>
<path d="M357.758 171.626H396.674" stroke="#C4C4C4" stroke-width="3" stroke-miterlimit="10" stroke-linecap="round" stroke-linejoin="round"/>
<path d="M340.205 66.8521H335.943V71.6549H340.205V66.8521Z" fill="#263238"/>
<path d="M340.205 74.7383H335.943V79.5411H340.205V74.7383Z" fill="#263238"/>
<path d="M340.205 82.6248H335.943V87.4276H340.205V82.6248Z" fill="#263238"/>
<path d="M340.205 90.511H335.943V95.3138H340.205V90.511Z" fill="#263238"/>
<path d="M340.205 98.4053H335.943V103.208H340.205V98.4053Z" fill="#263238"/>
<path d="M340.205 106.292H335.943V111.095H340.205V106.292Z" fill="#263238"/>
<path d="M340.205 114.178H335.943V118.981H340.205V114.178Z" fill="#263238"/>
<path d="M340.205 122.064H335.943V126.867H340.205V122.064Z" fill="#263238"/>
<path d="M340.205 129.959H335.943V134.762H340.205V129.959Z" fill="#263238"/>
<path d="M340.205 137.845H335.943V142.648H340.205V137.845Z" fill="#263238"/>
<path d="M340.205 145.731H335.943V150.534H340.205V145.731Z" fill="#263238"/>
<path d="M340.205 153.618H335.943V158.42H340.205V153.618Z" fill="#263238"/>
<path d="M340.205 161.512H335.943V166.315H340.205V161.512Z" fill="#263238"/>
<path d="M340.205 169.398H335.943V174.201H340.205V169.398Z" fill="#263238"/>
<path d="M340.205 177.285H335.943V182.087H340.205V177.285Z" fill="#263238"/>
<path d="M340.205 185.179H335.943V189.982H340.205V185.179Z" fill="#263238"/>
<path d="M340.205 193.065H335.943V197.868H340.205V193.065Z" fill="#263238"/>
<path d="M340.205 200.952H335.943V205.754H340.205V200.952Z" fill="#263238"/>
<path d="M129.248 107.026V222.019H221.861V107.026H129.248Z" fill="white" stroke="#263238" stroke-miterlimit="10" stroke-linecap="round" stroke-linejoin="round"/>
<path d="M143.336 203.293H209.242" stroke="#263238" stroke-miterlimit="10" stroke-linecap="round" stroke-linejoin="round"/>
<path d="M143.336 190.37H209.242" stroke="#263238" stroke-miterlimit="10" stroke-linecap="round" stroke-linejoin="round"/>
<path d="M143.336 177.446H209.242" stroke="#263238" stroke-miterlimit="10" stroke-linecap="round" stroke-linejoin="round"/>
<path d="M143.336 164.523H209.242" stroke="#263238" stroke-miterlimit="10" stroke-linecap="round" stroke-linejoin="round"/>
<path d="M143.336 151.592H209.242" stroke="#263238" stroke-miterlimit="10" stroke-linecap="round" stroke-linejoin="round"/>
<path d="M143.336 138.669H209.242" stroke="#263238" stroke-miterlimit="10" stroke-linecap="round" stroke-linejoin="round"/>
<path d="M143.336 125.745H209.242" stroke="#263238" stroke-miterlimit="10" stroke-linecap="round" stroke-linejoin="round"/>
<path d="M221.581 106.663H189.537V180.594H221.581V106.663Z" fill="#263238" stroke="#263238" stroke-miterlimit="10" stroke-linecap="round" stroke-linejoin="round"/>
<path d="M193.213 61.8246V176.818H285.826V61.8246H193.213Z" fill="white" stroke="#263238" stroke-miterlimit="10" stroke-linecap="round" stroke-linejoin="round"/>
<path d="M207.311 158.098H273.217" stroke="#263238" stroke-miterlimit="10" stroke-linecap="round" stroke-linejoin="round"/>
<path d="M207.311 145.175H273.217" stroke="#263238" stroke-miterlimit="10" stroke-linecap="round" stroke-linejoin="round"/>
<path d="M207.311 132.243H273.217" stroke="#263238" stroke-miterlimit="10" stroke-linecap="round" stroke-linejoin="round"/>
<path d="M207.311 119.32H273.217" stroke="#263238" stroke-miterlimit="10" stroke-linecap="round" stroke-linejoin="round"/>
<path d="M207.311 106.397H273.217" stroke="#263238" stroke-miterlimit="10" stroke-linecap="round" stroke-linejoin="round"/>
<path d="M207.311 93.4736H273.217" stroke="#263238" stroke-miterlimit="10" stroke-linecap="round" stroke-linejoin="round"/>
<path d="M207.311 80.5503H273.217" stroke="#263238" stroke-miterlimit="10" stroke-linecap="round" stroke-linejoin="round"/>
<path d="M252.759 254.356H128.943L141.314 340.129H263.538L252.759 254.356Z" fill="#263238" stroke="#263238" stroke-miterlimit="10" stroke-linecap="round" stroke-linejoin="round"/>
<path d="M165.329 206.538H157.139V221.463H165.329V206.538Z" fill="#263238" stroke="#263238" stroke-miterlimit="10" stroke-linecap="round" stroke-linejoin="round"/>
<path d="M161.23 201.114V316.107H253.844V201.114H161.23Z" fill="white" stroke="#263238" stroke-miterlimit="10" stroke-linecap="round" stroke-linejoin="round"/>
<path d="M175.324 297.379H241.231" stroke="#263238" stroke-miterlimit="10" stroke-linecap="round" stroke-linejoin="round"/>
<path d="M175.324 284.456H241.231" stroke="#263238" stroke-miterlimit="10" stroke-linecap="round" stroke-linejoin="round"/>
<path d="M175.324 271.533H241.231" stroke="#263238" stroke-miterlimit="10" stroke-linecap="round" stroke-linejoin="round"/>
<path d="M175.324 258.61H241.231" stroke="#263238" stroke-miterlimit="10" stroke-linecap="round" stroke-linejoin="round"/>
<path d="M175.324 245.687H241.231" stroke="#263238" stroke-miterlimit="10" stroke-linecap="round" stroke-linejoin="round"/>
<path d="M175.324 232.763H241.231" stroke="#263238" stroke-miterlimit="10" stroke-linecap="round" stroke-linejoin="round"/>
<path d="M175.324 219.84H241.231" stroke="#263238" stroke-miterlimit="10" stroke-linecap="round" stroke-linejoin="round"/>
<path d="M263.554 258.626V255.696C263.554 253.549 261.807 251.805 259.656 251.805H209.978C207.827 251.805 206.081 253.549 206.081 255.696C206.081 257.318 204.763 258.626 203.145 258.626H148.987L141.322 340.129H263.505L271.17 258.626H263.554Z" fill="#77C360" stroke="#263238" stroke-miterlimit="10" stroke-linecap="round" stroke-linejoin="round"/>
<path d="M250.98 101.328H242.854C242.118 101.328 241.52 100.73 241.52 99.9957C241.52 99.2611 242.118 98.6638 242.854 98.6638H250.98C251.716 98.6638 252.314 99.2611 252.314 99.9957C252.314 100.73 251.716 101.328 250.98 101.328Z" fill="#263238"/>
<path d="M251.409 92.8116C251.086 92.8116 250.762 92.6986 250.504 92.4645L242.806 85.4177C242.264 84.9172 242.224 84.0777 242.725 83.5369C243.226 82.9961 244.067 82.9557 244.609 83.4562L252.307 90.503C252.848 91.0035 252.889 91.843 252.387 92.3838C252.129 92.6663 251.765 92.8116 251.409 92.8116Z" fill="#263238"/>
<path d="M243.712 115.227C243.348 115.227 242.992 115.082 242.725 114.791C242.224 114.251 242.264 113.403 242.806 112.911L250.504 105.864C251.045 105.363 251.894 105.404 252.387 105.945C252.889 106.485 252.848 107.333 252.307 107.825L244.609 114.872C244.358 115.114 244.035 115.227 243.712 115.227Z" fill="#263238"/>
<path d="M265.736 101.328H273.863C274.598 101.328 275.197 100.73 275.197 99.9957C275.197 99.2611 274.598 98.6638 273.863 98.6638H265.736C265.001 98.6638 264.402 99.2611 264.402 99.9957C264.402 100.73 265.001 101.328 265.736 101.328Z" fill="#263238"/>
<path d="M265.307 92.8116C265.63 92.8116 265.954 92.6986 266.213 92.4645L273.91 85.4177C274.452 84.9172 274.492 84.0777 273.991 83.5369C273.49 82.9961 272.649 82.9557 272.107 83.4562L264.409 90.503C263.868 91.0035 263.827 91.843 264.329 92.3838C264.587 92.6663 264.943 92.8116 265.307 92.8116Z" fill="#263238"/>
<path d="M273.005 115.227C273.368 115.227 273.724 115.082 273.991 114.791C274.492 114.251 274.452 113.403 273.91 112.911L266.213 105.864C265.671 105.363 264.822 105.404 264.329 105.945C263.827 106.485 263.868 107.333 264.409 107.825L272.107 114.872C272.358 115.114 272.681 115.227 273.005 115.227Z" fill="#263238"/>
<path d="M258.661 91.4152C261.457 91.4152 263.723 89.1529 263.723 86.3621C263.723 83.5714 261.457 81.3091 258.661 81.3091C255.866 81.3091 253.6 83.5714 253.6 86.3621C253.6 89.1529 255.866 91.4152 258.661 91.4152Z" fill="#263238" stroke="#263238" stroke-miterlimit="10" stroke-linecap="round" stroke-linejoin="round"/>
<path d="M261.539 112.37H255.774C252.127 112.37 249.176 109.416 249.176 105.783V94.2C249.176 90.5595 252.135 87.6133 255.774 87.6133H261.539C265.185 87.6133 268.137 90.5676 268.137 94.2V105.783C268.145 109.424 265.185 112.37 261.539 112.37Z" fill="#77C360" stroke="#263238" stroke-miterlimit="10" stroke-linecap="round" stroke-linejoin="round"/>
<path d="M258.661 94.6843C262.195 94.6843 265.397 93.2556 267.725 90.947C266.9 88.9855 264.96 87.6133 262.704 87.6133H254.635C252.371 87.6133 250.438 88.9855 249.613 90.947C251.918 93.2556 255.12 94.6843 258.661 94.6843Z" fill="#9E9E9E" stroke="#263238" stroke-miterlimit="10" stroke-linecap="round" stroke-linejoin="round"/>
<path d="M258.662 94.6843V111.765" stroke="#263238" stroke-miterlimit="10" stroke-linecap="round" stroke-linejoin="round"/>
<path d="M146.91 150.163L141.162 144.424C140.644 143.907 140.644 143.06 141.162 142.543C141.679 142.026 142.528 142.026 143.046 142.543L148.794 148.282C149.312 148.799 149.312 149.646 148.794 150.163C148.277 150.68 147.436 150.688 146.91 150.163Z" fill="#263238"/>
<path d="M153.241 144.448C153.014 144.222 152.869 143.907 152.853 143.56L152.4 133.147C152.367 132.413 152.941 131.791 153.677 131.759C154.413 131.727 155.036 132.3 155.068 133.034L155.521 143.447C155.553 144.182 154.979 144.803 154.243 144.835C153.855 144.852 153.499 144.706 153.241 144.448Z" fill="#263238"/>
<path d="M131.919 154.861C131.66 154.603 131.514 154.247 131.531 153.86C131.563 153.125 132.185 152.552 132.921 152.585L143.352 153.037C144.088 153.069 144.662 153.69 144.629 154.425C144.597 155.16 143.974 155.733 143.239 155.7L132.808 155.248C132.46 155.24 132.153 155.095 131.919 154.861Z" fill="#263238"/>
<path d="M157.347 160.576L163.096 166.315C163.614 166.832 164.463 166.832 164.98 166.315C165.498 165.798 165.498 164.951 164.98 164.434L159.231 158.695C158.714 158.178 157.865 158.178 157.347 158.695C156.822 159.212 156.822 160.059 157.347 160.576Z" fill="#263238"/>
<path d="M163.072 154.263C163.299 154.489 163.614 154.635 163.962 154.651L174.392 155.103C175.128 155.135 175.751 154.562 175.783 153.828C175.815 153.093 175.241 152.471 174.505 152.439L164.075 151.987C163.339 151.955 162.716 152.528 162.684 153.263C162.66 153.65 162.814 154.005 163.072 154.263Z" fill="#263238"/>
<path d="M152.633 175.541C152.892 175.8 153.248 175.945 153.636 175.929C154.372 175.896 154.946 175.275 154.913 174.54L154.461 164.128C154.428 163.393 153.806 162.82 153.07 162.852C152.334 162.884 151.76 163.506 151.792 164.241L152.245 174.653C152.261 175.009 152.407 175.315 152.633 175.541Z" fill="#263238"/>
<path d="M162.943 150.058C165.738 150.058 168.004 147.796 168.004 145.005C168.004 142.214 165.738 139.952 162.943 139.952C160.147 139.952 157.881 142.214 157.881 145.005C157.881 147.796 160.147 150.058 162.943 150.058Z" fill="#263238" stroke="#263238" stroke-miterlimit="10" stroke-linecap="round" stroke-linejoin="round"/>
<path d="M146.555 165.435L142.479 161.367C139.9 158.792 139.9 154.619 142.479 152.044L150.686 143.851C153.266 141.276 157.446 141.276 160.025 143.851L164.101 147.919C166.68 150.494 166.68 154.667 164.101 157.242L155.894 165.435C153.314 168.002 149.134 168.002 146.555 165.435Z" fill="#77C360" stroke="#263238" stroke-miterlimit="10" stroke-linecap="round" stroke-linejoin="round"/>
<path d="M157.041 150.89C159.539 153.384 162.822 154.635 166.097 154.643C166.897 152.673 166.501 150.333 164.908 148.742L159.2 143.044C157.599 141.445 155.254 141.05 153.289 141.857C153.289 145.118 154.542 148.395 157.041 150.89Z" fill="#9E9E9E" stroke="#263238" stroke-miterlimit="10" stroke-linecap="round" stroke-linejoin="round"/>
<path d="M157.041 150.889L144.945 162.965" stroke="#263238" stroke-miterlimit="10" stroke-linecap="round" stroke-linejoin="round"/>
<path d="M484.818 333.735C484.818 333.735 481.923 335.14 477.824 337.481C473.724 339.822 471.242 340.548 471.678 341.719C472.115 342.889 475.188 343.18 480.46 343.325C485.723 343.47 489.386 342.154 489.968 342.154C490.55 342.154 494.795 342.3 496.404 341.719C498.014 341.137 496.841 336.754 496.841 336.754C496.841 336.754 487.276 332.767 484.818 333.735Z" fill="white" stroke="#263238" stroke-miterlimit="10" stroke-linecap="round" stroke-linejoin="round"/>
<path d="M516.934 339.58C516.934 339.58 513.942 345.819 512.883 347.232C511.824 348.636 513.239 349.339 515.697 350.218C518.163 351.098 522.036 348.992 525.028 347.579C528.019 346.174 528.553 339.668 528.553 339.668L516.934 339.58Z" fill="white" stroke="#263238" stroke-miterlimit="10" stroke-linecap="round" stroke-linejoin="round"/>
<path d="M532.831 224.045C532.831 224.045 536.527 232.101 536.324 240.165C536.122 248.229 528.045 280.904 528.449 284.932C528.853 288.968 532.492 292.189 532.088 301.867C531.683 311.546 529.055 333.526 529.055 333.526C529.055 333.526 529.662 337.158 529.258 338.571C528.853 339.983 528.247 340.992 528.247 340.992C528.247 340.992 526.428 340.992 524.002 340.992C521.576 340.992 516.935 340.185 516.935 339.58C516.935 338.974 518.35 334.736 518.35 334.736L518.552 330.095C518.552 330.095 514.711 290.373 513.903 283.722C513.094 277.07 510.062 245.404 510.062 245.404C510.062 245.404 503.197 285.336 502.995 286.748C502.793 288.161 504.006 296.427 501.782 302.473C499.559 308.519 498.144 323.242 498.144 326.471C498.144 329.699 497.335 338.167 497.335 338.167C497.335 338.167 493.292 338.167 491.077 337.158C488.853 336.149 487.236 334.535 486.63 334.333C486.023 334.131 484.811 333.727 484.811 333.727C484.811 333.727 485.013 332.113 485.417 330.7C485.821 329.288 487.438 326.463 487.438 326.463L488.045 299.446C488.045 299.446 487.641 284.521 488.045 282.107C488.449 279.686 488.247 277.264 488.247 276.465C488.247 275.658 488.247 245.606 489.258 239.156C490.268 232.707 490.551 224.36 490.551 224.36L530.058 219.8L532.831 224.045Z" fill="#263238" stroke="#263238" stroke-miterlimit="10" stroke-linecap="round" stroke-linejoin="round"/>
<path d="M530.922 217.854L532.83 224.045C532.83 224.045 519.909 232.634 507.514 233.264C495.119 233.901 491.141 230.907 490.187 230.116C489.232 229.324 490.55 224.36 490.55 224.36C490.55 224.36 504.377 225.789 511.533 224.045C518.689 222.302 530.922 217.854 530.922 217.854Z" fill="#77C360" stroke="#263238" stroke-miterlimit="10" stroke-linecap="round" stroke-linejoin="round"/>
<path d="M490.219 205.738L483.928 212.495L482.238 214.303L490.453 216.595L491.302 205.98L490.219 205.738Z" fill="#77C360" stroke="#263238" stroke-miterlimit="10" stroke-linecap="round" stroke-linejoin="round"/>
<path d="M514.606 159.413C514.606 159.413 528.068 163.029 528.942 164.474C529.807 165.919 525.57 197.674 524.964 200.112C524.357 202.55 526.184 210.154 527.405 211.824C528.626 213.495 532.127 215.328 532.127 218.217C532.127 221.107 512.463 228.259 505.453 228.259C498.442 228.259 490.632 227.089 489.872 226.33C489.112 225.571 489.75 222.94 489.75 222.326C489.75 221.721 489.904 204.527 489.904 204.527C489.904 204.527 485.942 199.813 485.028 194.179C484.115 188.553 485.36 181.393 485.36 181.393C485.36 181.393 484.204 171.134 485.214 167.227C486.225 163.328 493.898 160.575 493.898 160.575C493.898 160.575 501.426 157.387 514.606 159.413Z" fill="#77C360" stroke="#263238" stroke-miterlimit="10" stroke-linecap="round" stroke-linejoin="round"/>
<path d="M503.456 202.469C502.114 201.799 500.456 200.742 498.58 199.079" stroke="#263238" stroke-miterlimit="10" stroke-linecap="round" stroke-linejoin="round"/>
<path d="M507.006 203.623C507.006 203.623 506.375 203.599 505.268 203.228" stroke="#263238" stroke-miterlimit="10" stroke-linecap="round" stroke-linejoin="round"/>
<path d="M491.327 159.437C491.327 159.437 489.855 163.651 490.93 165.613C492.014 167.574 496.137 167.865 496.137 167.865C496.137 167.865 495.741 166.686 496.631 164.531C497.512 162.376 498.984 158.945 498.984 158.945L491.327 159.437Z" fill="#263238" stroke="#263238" stroke-miterlimit="10" stroke-linecap="round" stroke-linejoin="round"/>
<path d="M481.606 145.715C481.606 145.715 481.8 149.049 482.391 149.832C482.981 150.615 484.646 149.832 484.946 151.987C485.237 154.142 485.342 157.767 486.126 158.065C486.91 158.356 489.069 157.968 489.069 157.968C489.069 157.968 492.7 161.302 493.783 161.794C494.867 162.287 495.158 162.384 495.942 161.794C496.726 161.205 498.788 159.639 498.788 159.639C498.788 159.639 497.22 164.151 497.81 165.524C498.4 166.896 500.559 169.148 503.017 166.896C505.475 164.644 506.947 159.542 506.947 159.542L500.47 141.211L482.698 136.997C482.69 136.989 480.725 144.343 481.606 145.715Z" fill="white" stroke="#263238" stroke-miterlimit="10" stroke-linecap="round" stroke-linejoin="round"/>
<path d="M499.574 144.246C499.574 144.246 502.719 158.065 503.503 163.264C504.288 168.462 502.913 170.52 502.913 170.52C502.913 170.52 510.764 170.028 513.513 165.225C516.262 160.422 518.615 157.775 517.047 153.166C515.478 148.556 511.152 133.954 507.029 128.958C502.905 123.961 493.776 122.783 490.34 123.372C486.903 123.961 482.974 128.465 481.211 131.799C479.44 135.133 478.268 141.8 477.087 142.486C475.907 143.172 474.831 144.835 476.594 145.328C478.365 145.82 481.599 145.723 481.599 145.723C481.599 145.723 481.793 142.583 482.286 141.114C482.78 139.645 483.168 138.765 483.168 138.765C483.168 138.765 483.758 140.428 490.332 142.389C496.913 144.351 499.363 143.366 499.363 143.366L499.574 144.246Z" fill="#263238" stroke="#263238" stroke-miterlimit="10" stroke-linecap="round" stroke-linejoin="round"/>
<path d="M483.176 138.757C483.176 138.757 489.361 147.184 500.067 145.328" stroke="#263238" stroke-miterlimit="10" stroke-linecap="round" stroke-linejoin="round"/>
<path d="M485.828 148.556C485.828 148.556 487.3 146.208 489.758 147.184" stroke="#263238" stroke-miterlimit="10" stroke-linecap="round" stroke-linejoin="round"/>
<path d="M493.484 154.538C493.484 154.538 493.678 156.007 492.506 156.887" stroke="#263238" stroke-miterlimit="10" stroke-linecap="round" stroke-linejoin="round"/>
<path d="M488.229 151.059C488.472 151.721 488.973 152.148 489.353 152.003C489.733 151.866 489.854 151.22 489.612 150.558C489.369 149.896 488.868 149.469 488.488 149.614C488.108 149.751 487.986 150.397 488.229 151.059Z" fill="#263238"/>
<path d="M498.789 159.631L501.247 157.081L499.573 164.24L498.789 159.631Z" fill="#263238" stroke="#263238" stroke-miterlimit="10" stroke-linecap="round" stroke-linejoin="round"/>
<path d="M487.987 227.016L511.63 216.038L475.931 211.316L457.617 218.984L487.987 227.016Z" fill="#D1D1D1" stroke="#263238" stroke-miterlimit="10" stroke-linecap="round" stroke-linejoin="round"/>
<path d="M487.098 224.934L504.474 216.87L478.236 213.399L464.766 219.033L487.098 224.934Z" fill="#828282" stroke="#263238" stroke-miterlimit="10" stroke-linecap="round" stroke-linejoin="round"/>
<path d="M487.987 227.016L476.877 201.17L444.615 196.1L457.617 218.984L487.987 227.016Z" fill="#B2B2B2" stroke="#263238" stroke-miterlimit="10" stroke-linecap="round" stroke-linejoin="round"/>
<path d="M474.394 220.639L477.111 224.296C477.111 224.296 476.165 225.361 475.34 225.006C474.515 224.651 472.744 219.929 474.394 220.639Z" fill="white" stroke="#263238" stroke-miterlimit="10" stroke-linecap="round" stroke-linejoin="round"/>
<path d="M474.28 223.828C474.28 223.828 473.1 224.183 472.388 223.707C471.677 223.238 470.375 219.227 470.973 219.105C471.564 218.984 473.221 221.705 473.221 221.705L474.28 223.828Z" fill="white" stroke="#263238" stroke-miterlimit="10" stroke-linecap="round" stroke-linejoin="round"/>
<path d="M472.39 223.707C472.39 223.707 469.439 222.883 468.962 222.407C468.493 221.939 467.547 217.451 468.493 218.04C469.439 218.629 470.741 221.931 470.741 221.931L472.39 223.707Z" fill="white" stroke="#263238" stroke-miterlimit="10" stroke-linecap="round" stroke-linejoin="round"/>
<path d="M468.961 222.407C468.961 222.407 467.425 222.641 466.947 221.818C466.479 220.994 466.357 219.574 466.826 218.75C467.295 217.927 468.007 219.695 468.007 219.695L468.961 222.407Z" fill="white" stroke="#263238" stroke-miterlimit="10" stroke-linecap="round" stroke-linejoin="round"/>
<path d="M520.832 162.448C520.832 162.448 529.088 163.029 530.68 164.184C532.273 165.338 542.946 197.069 543.561 201.169C544.167 205.278 542.801 205.73 542.033 205.73C541.265 205.73 523.436 211.51 521.301 211.97C519.166 212.43 518.714 212.123 517.945 211.51C517.185 210.904 513.523 206.489 514.59 203.906C515.657 201.323 517.485 200.863 517.485 200.863L529.071 196.601L519.959 180.368" fill="#77C360"/>
<path d="M520.832 162.448C520.832 162.448 529.088 163.029 530.68 164.184C532.273 165.338 542.946 197.069 543.561 201.169C544.167 205.278 542.801 205.73 542.033 205.73C541.265 205.73 523.436 211.51 521.301 211.97C519.166 212.43 518.714 212.123 517.945 211.51C517.185 210.904 513.523 206.489 514.59 203.906C515.657 201.323 517.485 200.863 517.485 200.863L529.071 196.601L519.959 180.368" stroke="#263238" stroke-miterlimit="10" stroke-linecap="round" stroke-linejoin="round"/>
<path d="M534.546 198.401C534.546 198.401 532.08 196.633 529.08 196.609" stroke="#263238" stroke-miterlimit="10" stroke-linecap="round" stroke-linejoin="round"/>
<path d="M532.879 195.915C532.879 195.915 536.032 196.907 537.86 198.901" stroke="#263238" stroke-miterlimit="10" stroke-linecap="round" stroke-linejoin="round"/>
<path d="M508.655 206.19C508.655 206.19 513.837 204.519 514.598 203.906C515.358 203.3 517.039 203.753 517.953 205.884C518.867 208.015 517.953 211.51 517.953 211.51L511.856 213.035C511.856 213.035 510.336 213.342 508.808 210.751C507.28 208.168 506.973 206.344 508.655 206.19Z" fill="#77C360" stroke="#263238" stroke-miterlimit="10" stroke-linecap="round" stroke-linejoin="round"/>
<path d="M495.458 210.259C495.458 210.259 492.442 211.502 492.264 212.293C492.087 213.092 491.108 216.458 491.197 217.16C491.286 217.87 491.197 218.226 491.998 218.048C492.798 217.87 493.768 216.014 494.48 214.238C495.191 212.47 496.073 210.162 496.073 210.162L495.458 210.259Z" fill="white" stroke="#263238" stroke-miterlimit="10" stroke-linecap="round" stroke-linejoin="round"/>
<path d="M508.501 207.159C508.501 207.159 511.428 209.193 511.516 210.436C511.605 211.679 508.412 213.713 506.374 214.424C504.336 215.134 501.498 215.134 501.143 215.134C500.787 215.134 495.733 218.5 494.488 219.033C493.243 219.566 492.895 218.766 492.895 218.766C492.895 218.766 491.917 218.589 492.006 218.056C492.095 217.523 492.806 216.466 492.806 216.466C492.806 216.466 493.251 214.698 493.785 212.656C494.318 210.614 497.067 209.201 498.046 209.024C499.008 208.846 506.018 206.279 508.501 207.159Z" fill="white" stroke="#263238" stroke-miterlimit="10" stroke-linecap="round" stroke-linejoin="round"/>
<path d="M499.897 213.181C499.897 213.181 497.415 214.157 497.059 214.513C496.703 214.868 492.887 218.766 492.887 218.766" stroke="#263238" stroke-miterlimit="10" stroke-linecap="round" stroke-linejoin="round"/>
<path d="M497.763 211.146L492.799 216.458" stroke="#263238" stroke-miterlimit="10" stroke-linecap="round" stroke-linejoin="round"/>
<path d="M111.8 197.36L108.55 197.142L106.787 202.429L114.129 206.166L118.786 198.417L111.8 197.36Z" fill="#C2C2C2" stroke="#263238" stroke-miterlimit="10" stroke-linecap="round" stroke-linejoin="round"/>
<path d="M68.5176 179.174L75.8755 186.527L108.55 197.142L106.787 202.429L68.6874 196.601L68.5176 179.174Z" fill="#77C360" stroke="#263238" stroke-miterlimit="10"/>
<path d="M47.9644 131.097C47.9644 131.097 47.738 137.337 47.075 141.574C46.4039 145.812 46.1855 147.596 46.1855 147.596L58.4677 152.278C58.4677 152.278 57.3519 143.802 58.9124 140.242C60.473 136.675 60.6993 134.221 60.6993 134.221C60.6993 134.221 56.6808 124.413 52.4358 123.743C48.1908 123.073 47.9644 131.097 47.9644 131.097Z" fill="#C2C2C2" stroke="#263238" stroke-miterlimit="10"/>
<path d="M64.7168 113.04C64.7168 113.04 66.9484 111.03 64.0457 104.346C61.1429 97.6547 47.0738 98.1067 40.3708 104.12C33.6677 110.142 31.4361 120.845 37.2416 127.755C43.0471 134.665 49.9685 135.561 54.4399 132.881C58.9032 130.209 59.356 125.075 59.356 123.073C59.356 121.063 57.7954 116.164 60.0271 114.824C62.2587 113.484 64.7168 113.04 64.7168 113.04Z" fill="#263238" stroke="#263238" stroke-miterlimit="10"/>
<path d="M64.0473 111.474C64.0473 111.474 53.5521 116.382 53.5521 118.166C53.5521 119.949 58.0153 120.619 56.6812 122.847C55.339 125.075 54.4496 125.971 54.4496 125.971C54.4496 125.971 56.2365 129.095 54.676 129.539C53.1154 129.983 52.4443 129.983 50.8757 127.755C49.3151 125.527 47.7465 124.413 47.3018 128.199C46.8571 131.993 48.644 132.655 49.9782 132.881C51.3204 133.107 53.1073 132.881 53.1073 132.881C53.1073 132.881 55.339 138.232 56.9076 138.902C58.4681 139.572 66.0606 140.46 67.6292 138.676C69.1898 136.893 68.0739 128.869 68.0739 128.869C68.0739 128.869 70.3056 128.425 70.3056 126.415C70.3056 124.405 66.7317 121.507 66.7317 121.507C66.7317 121.507 67.6211 120.167 66.9581 117.052C66.2789 113.928 64.0473 111.474 64.0473 111.474Z" fill="#C2C2C2" stroke="#263238" stroke-miterlimit="10"/>
<path d="M64.3537 122.5C64.3537 123.202 64.0707 123.776 63.7149 123.776C63.3592 123.776 63.0762 123.202 63.0762 122.5C63.0762 121.798 63.3592 121.225 63.7149 121.225C64.0707 121.225 64.3537 121.798 64.3537 122.5Z" fill="#263238"/>
<path d="M61.5254 120.224C61.5254 120.224 61.8569 118.335 64.7516 118.674" stroke="#263238" stroke-miterlimit="10" stroke-linecap="round" stroke-linejoin="round"/>
<path d="M65.3088 131.767C65.3088 131.767 63.53 131.654 62.5273 130.322" stroke="#263238" stroke-miterlimit="10" stroke-linecap="round" stroke-linejoin="round"/>
<path d="M35.6737 326.309C35.6737 326.309 38.0023 331.548 40.3391 333.292C42.6678 335.035 47.0421 334.745 47.6243 337.659C48.2065 340.564 45.8778 340.863 43.8321 340.863C41.7945 340.863 35.3826 340.863 34.2101 340.573C33.0458 340.282 27.5071 337.957 24.006 335.043C20.5049 332.137 19.6317 332.428 22.2595 326.899C24.8874 321.361 35.6737 326.309 35.6737 326.309Z" fill="#77C360" stroke="#263238" stroke-miterlimit="10"/>
<path d="M47.7046 338.223C44.8827 338.724 39.3359 339.402 34.4602 338.191C29.5684 336.972 23.8195 332.63 20.9086 330.224C20.2941 332.492 21.4423 332.904 24.0135 335.043C27.5146 337.949 33.0533 340.282 34.2176 340.572C35.382 340.863 41.7939 340.863 43.8396 340.863C45.7317 340.863 47.8825 340.605 47.7046 338.223Z" fill="white" stroke="#263238" stroke-miterlimit="10"/>
<path d="M44.4223 231.262C44.4223 231.262 40.4199 264.777 37.2099 273.22C33.9999 281.655 29.1808 286.999 28.0165 293.4C26.8522 299.801 22.2676 326.899 22.2676 326.899C22.2676 326.899 25.1784 329.805 27.2241 329.514C29.2617 329.223 35.3826 330.095 37.1371 326.899C38.8837 323.694 39.3203 318.496 39.6114 317.624C39.9025 316.752 52.1442 293.158 55.0631 283.851C57.974 274.536 67.3695 236.065 67.0784 231.407" fill="#263238"/>
<path d="M44.4223 231.262C44.4223 231.262 40.4199 264.777 37.2099 273.22C33.9999 281.655 29.1808 286.999 28.0165 293.4C26.8522 299.801 22.2676 326.899 22.2676 326.899C22.2676 326.899 25.1784 329.805 27.2241 329.514C29.2617 329.223 35.3826 330.095 37.1371 326.899C38.8837 323.694 39.3203 318.496 39.6114 317.624C39.9025 316.752 52.1442 293.158 55.0631 283.851C57.974 274.536 67.3695 236.065 67.0784 231.407" stroke="#263238" stroke-miterlimit="10"/>
<path d="M42.2793 208.265C42.2793 208.265 38.7054 218.742 40.0476 228.106C41.3898 237.469 51.8851 242.151 59.2511 240.811C66.6172 239.471 71.6384 234.345 71.6384 225.426C71.6384 216.506 70.5226 208.927 70.5226 208.927C70.5226 208.927 56.13 213.399 42.2793 208.265Z" fill="#263238" stroke="#263238" stroke-miterlimit="10"/>
<path d="M44.9967 143.721C44.9967 143.721 38.2937 156.209 37.849 166.242C37.4043 176.276 42.2799 208.273 42.2799 208.273C42.2799 208.273 44.2933 212.285 53.891 212.729C63.4968 213.173 70.5151 209.831 70.5151 209.831C70.5151 209.831 71.1135 190.765 71.1135 178.73C71.1135 166.694 61.7341 148.855 61.7341 148.855L44.9967 143.721Z" fill="#77C360" stroke="#263238" stroke-miterlimit="10"/>
<path d="M39.8223 171.481C39.8223 171.481 40.4125 178.544 48.9591 179.424" stroke="#263238" stroke-miterlimit="10" stroke-linecap="round" stroke-linejoin="round"/>
<path d="M42.1836 180.901C42.1836 180.901 46.6065 183.839 52.4928 182.669" stroke="#263238" stroke-miterlimit="10" stroke-linecap="round" stroke-linejoin="round"/>
<path d="M45.166 208.701C45.166 208.701 53.7126 201.347 58.1274 194.583" stroke="#263238" stroke-miterlimit="10" stroke-linecap="round" stroke-linejoin="round"/>
<path d="M57.2467 201.638C57.2467 201.638 49.8806 209.282 47.2285 210.17" stroke="#263238" stroke-miterlimit="10" stroke-linecap="round" stroke-linejoin="round"/>
<path d="M43.6543 144.165L63.5289 152.189L62.4131 145.723L44.7701 138.37L43.6543 144.165Z" fill="white" stroke="#263238" stroke-miterlimit="10"/>
<path d="M68.9061 334.163C68.9061 334.163 74.7359 337.659 77.9459 339.112C81.1559 340.564 81.447 340.274 81.447 342.316C81.447 344.35 81.7381 344.641 76.4905 344.641C71.2428 344.641 56.0903 344.931 54.6268 343.769C53.1633 342.607 66.8604 333.292 68.9061 334.163Z" fill="#77C360" stroke="#263238" stroke-miterlimit="10"/>
<path d="M76.4826 344.641C81.3906 344.641 81.4553 344.383 81.4391 342.679C66.4968 343.131 59.2197 342.566 55.6781 341.913C54.7483 342.809 54.2874 343.503 54.6189 343.769C56.0824 344.932 71.235 344.641 76.4826 344.641Z" fill="white" stroke="#263238" stroke-miterlimit="10"/>
<path d="M42.668 231.843C42.668 231.843 44.7056 251.918 47.3334 260.652C49.9532 269.378 49.9532 273.164 49.0799 280.727C48.2067 288.29 45.2877 295.273 47.3334 302.263C49.371 309.245 53.4543 339.12 53.4543 340.282C53.4543 341.444 53.1632 343.188 54.6186 343.777C56.074 344.358 68.6068 335.923 68.8979 334.171C69.189 332.428 66.8603 327.189 66.8603 322.532C66.8603 317.874 68.3158 290.623 68.3158 277.53C68.3158 264.438 74.4043 236.347 69.7388 224.716" fill="#263238"/>
<path d="M42.668 231.843C42.668 231.843 44.7056 251.918 47.3334 260.652C49.9532 269.378 49.9532 273.164 49.0799 280.727C48.2067 288.29 45.2877 295.273 47.3334 302.263C49.371 309.245 53.4543 339.12 53.4543 340.282C53.4543 341.444 53.1632 343.188 54.6186 343.777C56.074 344.358 68.6068 335.923 68.8979 334.171C69.189 332.428 66.8603 327.189 66.8603 322.532C66.8603 317.874 68.3158 290.623 68.3158 277.53C68.3158 264.438 74.4043 236.347 69.7388 224.716" stroke="#263238" stroke-miterlimit="10"/>
<path d="M44.3262 244.508C44.3262 244.508 45.7007 254.275 47.334 260.644C48.9674 267.013 50.6249 269.991 48.6358 277.934C46.6468 285.877 45.9837 288.524 46.9783 292.496" stroke="white" stroke-miterlimit="10" stroke-linecap="round" stroke-linejoin="round"/>
<path d="M166.542 190.258C188.296 186.734 203.068 166.272 199.538 144.555C196.007 122.839 175.511 108.091 153.757 111.615C132.004 115.14 117.231 135.602 120.762 157.318C124.292 179.035 144.789 193.783 166.542 190.258Z" stroke="#263238" stroke-width="7" stroke-miterlimit="10" stroke-linecap="round" stroke-linejoin="round"/>
<path d="M135.08 184.17L91.6841 235.12C89.8001 237.332 86.4688 237.606 84.2533 235.718C82.0379 233.837 81.763 230.511 83.655 228.299C83.7359 228.203 83.8248 228.106 83.9138 228.017L130.908 180.352C132.007 179.238 133.794 179.222 134.91 180.32C135.977 181.369 136.034 183.056 135.08 184.17Z" fill="#263238"/>
<path d="M47.5922 155.789C47.5922 155.789 43.509 161.609 44.3822 167.429C45.2555 173.249 58.1198 198.676 59.5752 200.71C61.0307 202.744 70.6526 204.786 71.5259 196.633C72.3991 188.489 61.2894 168.301 59.5429 162.481C57.7964 156.661 54.0042 155.499 54.0042 155.499" fill="#77C360"/>
<path d="M47.5922 155.789C47.5922 155.789 43.509 161.609 44.3822 167.429C45.2555 173.249 58.1198 198.676 59.5752 200.71C61.0307 202.744 70.6526 204.786 71.5259 196.633C72.3991 188.489 61.2894 168.301 59.5429 162.481C57.7964 156.661 54.0042 155.499 54.0042 155.499" stroke="#263238" stroke-miterlimit="10"/>
<path d="M69.3589 190.547C69.3589 190.547 77.9055 191.629 83.8889 195.237C89.8723 198.853 102.656 203.826 102.656 203.826L101.289 209.46C101.289 209.46 86.6461 208.83 77.7519 207.208C68.8576 205.577 63.1168 204.802 59.834 200.096" fill="#77C360"/>
<path d="M69.3589 190.547C69.3589 190.547 77.9055 191.629 83.8889 195.237C89.8723 198.853 102.656 203.826 102.656 203.826L101.289 209.46C101.289 209.46 86.6461 208.83 77.7519 207.208C68.8576 205.577 63.1168 204.802 59.834 200.096" stroke="#263238" stroke-miterlimit="10"/>
<path d="M102.648 203.825C102.648 203.825 107.337 203.761 108.089 203.01C108.841 202.259 116.216 206.917 116.216 206.917C116.216 206.917 116.515 208.12 115.763 208.572C115.011 209.024 113.96 209.322 113.96 209.322C113.96 209.322 112.003 212.777 110.798 213.229C109.593 213.681 106.286 212.931 104.774 212.325C103.27 211.728 101.281 209.46 101.281 209.46L102.648 203.825Z" fill="#C2C2C2" stroke="#263238" stroke-miterlimit="10" stroke-linecap="round" stroke-linejoin="round"/>
<path d="M120.695 201.719L117.865 200.403C117.355 200.169 117.137 199.563 117.371 199.063L117.436 198.918C117.671 198.409 118.277 198.191 118.778 198.425L121.608 199.741C122.118 199.975 122.336 200.58 122.102 201.081L122.037 201.226C121.802 201.735 121.196 201.953 120.695 201.719Z" fill="#C2C2C2" stroke="#263238" stroke-miterlimit="10" stroke-linecap="round" stroke-linejoin="round"/>
<path d="M116.507 206.901L115.019 206.207C114.51 205.972 114.291 205.367 114.526 204.867C114.76 204.358 115.367 204.14 115.868 204.374L117.356 205.068C117.865 205.302 118.083 205.908 117.849 206.408C117.614 206.917 117.016 207.143 116.507 206.901Z" fill="#C2C2C2" stroke="#263238" stroke-miterlimit="10" stroke-linecap="round" stroke-linejoin="round"/>
<path d="M117.622 205.165L115.447 204.148C114.937 203.914 114.719 203.309 114.953 202.808L114.962 202.784C115.196 202.276 115.802 202.058 116.304 202.292L118.479 203.309C118.988 203.543 119.207 204.148 118.972 204.649L118.964 204.673C118.729 205.181 118.131 205.407 117.622 205.165Z" fill="#C2C2C2" stroke="#263238" stroke-miterlimit="10" stroke-linecap="round" stroke-linejoin="round"/>
<path d="M118.931 203.688L116.101 202.372C115.592 202.138 115.373 201.533 115.608 201.032L115.672 200.887C115.907 200.379 116.513 200.161 117.015 200.395L119.845 201.71C120.354 201.945 120.572 202.55 120.338 203.05L120.273 203.196C120.039 203.704 119.432 203.93 118.931 203.688Z" fill="#C2C2C2" stroke="#263238" stroke-miterlimit="10" stroke-linecap="round" stroke-linejoin="round"/>
<path d="M109.893 197.852C109.893 197.852 115.415 195.745 115.868 195.592C116.321 195.439 120.396 197.699 120.396 197.699C120.396 197.699 119.943 200.411 119.644 201.162C119.345 201.912 117.986 202.364 117.679 201.315C117.38 200.258 117.38 199.353 117.38 199.353C117.38 199.353 115.722 200.104 114.364 200.258C113.006 200.411 111.041 199.806 111.041 199.806" fill="#C2C2C2"/>
<path d="M109.893 197.852C109.893 197.852 115.415 195.745 115.868 195.592C116.321 195.439 120.396 197.699 120.396 197.699C120.396 197.699 119.943 200.411 119.644 201.162C119.345 201.912 117.986 202.364 117.679 201.315C117.38 200.258 117.38 199.353 117.38 199.353C117.38 199.353 115.722 200.104 114.364 200.258C113.006 200.411 111.041 199.806 111.041 199.806" stroke="#263238" stroke-miterlimit="10" stroke-linecap="round" stroke-linejoin="round"/>
</g>
<defs>
<clipPath id="clip0_385_34">
<rect width="573" height="358" fill="white"/>
</clipPath>
</defs>
</svg>
