<svg width="45" height="42" viewBox="0 0 45 42" fill="none" xmlns="http://www.w3.org/2000/svg">
<g id="Group 67491">
<path id="Vector" d="M36.3216 11.3627C32.9012 9.58168 7.69337 12.9452 4.77861 19.0488C2.17207 24.5069 -0.831065 39.5927 10.4696 40.5529C21.0043 41.4482 36.5949 36.4942 39.4153 32.2618C43.3748 26.3149 38.9134 12.7147 36.3216 11.3627Z" fill="#FFDE17"/>
<path id="Vector_2" d="M20.366 31.5001H14.8283C14.3188 31.5001 13.9053 31.0721 13.9053 30.5456C13.9053 30.0184 14.3188 29.5911 14.8283 29.5911H20.366C20.8755 29.5911 21.289 30.0184 21.289 30.5456C21.289 31.0721 20.8755 31.5001 20.366 31.5001Z" fill="black"/>
<path id="Vector_3" d="M20.366 36.2724H16.6744C15.1474 36.2724 13.9053 34.9875 13.9053 33.4089V27.6814C13.9053 26.1027 15.1474 24.8179 16.6744 24.8179H20.366C20.8755 24.8179 21.289 25.2458 21.289 25.7724C21.289 26.2995 20.8755 26.7269 20.366 26.7269H16.6744C16.1649 26.7269 15.7513 27.1565 15.7513 27.6814V33.4089C15.7513 33.9338 16.1649 34.3634 16.6744 34.3634H20.366C20.8755 34.3634 21.289 34.7913 21.289 35.3179C21.289 35.845 20.8755 36.2724 20.366 36.2724Z" fill="black"/>
<path id="Vector_4" d="M10.2136 36.2726C9.7041 36.2726 9.29059 35.8453 9.29059 35.3181V29.8161L8.26991 31.9258C7.95568 32.5708 6.93118 32.5708 6.6175 31.9258L5.59845 29.8161V35.3181C5.59845 35.8453 5.18494 36.2726 4.67542 36.2726C4.16644 36.2726 3.75293 35.8453 3.75293 35.3181V25.7726C3.75293 25.3317 4.04806 24.9444 4.46321 24.8446C4.8789 24.7358 5.30878 24.9517 5.5008 25.3469L7.44452 29.3656L9.38824 25.3469C9.58027 24.95 10.0101 24.7358 10.4258 24.8446C10.841 24.9444 11.1367 25.3317 11.1367 25.7726V35.3181C11.1367 35.8453 10.7232 36.2726 10.2136 36.2726Z" fill="black"/>
<path id="Vector_5" d="M29.5955 36.2724C29.278 36.2724 28.973 36.1004 28.8034 35.8084L24.9803 29.2182V35.3179C24.9803 35.845 24.5673 36.2724 24.0578 36.2724C23.5483 36.2724 23.1348 35.845 23.1348 35.3179V25.7724C23.1348 25.3428 23.4113 24.9667 23.8123 24.854C24.2105 24.7378 24.6372 24.9154 24.8494 25.2836L28.6724 31.8737V25.7724C28.6724 25.2458 29.0859 24.8179 29.5955 24.8179C30.105 24.8179 30.5185 25.2458 30.5185 25.7724V35.3179C30.5185 35.7475 30.2414 36.1235 29.841 36.2363C29.7597 36.2611 29.6767 36.2724 29.5955 36.2724Z" fill="black"/>
<path id="Vector_6" d="M37.9023 36.2724H36.0562C34.5293 36.2724 33.2871 34.9875 33.2871 33.4089V25.7724C33.2871 25.2458 33.7006 24.8179 34.2101 24.8179C34.7197 24.8179 35.1332 25.2458 35.1332 25.7724V33.4089C35.1332 33.9338 35.5467 34.3634 36.0562 34.3634H37.9023C38.4113 34.3634 38.8248 33.9338 38.8248 33.4089V25.7724C38.8248 25.2458 39.2383 24.8179 39.7478 24.8179C40.2573 24.8179 40.6708 25.2458 40.6708 25.7724V33.4089C40.6708 34.9875 39.4287 36.2724 37.9023 36.2724Z" fill="black"/>
<g id="Clip path group">
<mask id="mask0_1728_200" style="mask-type:luminance" maskUnits="userSpaceOnUse" x="16" y="0" width="12" height="12">
<g id="532b9cda11">
<path id="Vector_7" d="M16.6191 0H27.7916V11.552H16.6191V0Z" fill="white"/>
</g>
</mask>
<g mask="url(#mask0_1728_200)">
<g id="Group">
<path id="Vector_8" d="M22.2125 11.4545C19.1591 11.4545 16.6748 8.88475 16.6748 5.72697C16.6748 2.56975 19.1591 0 22.2125 0C25.2658 0 27.7501 2.56975 27.7501 5.72697C27.7501 8.88475 25.2658 11.4545 22.2125 11.4545ZM22.2125 1.90899C20.1766 1.90899 18.5203 3.62122 18.5203 5.72697C18.5203 7.83272 20.1766 9.54552 22.2125 9.54552C24.2484 9.54552 25.9041 7.83272 25.9041 5.72697C25.9041 3.62122 24.2484 1.90899 22.2125 1.90899Z" fill="black"/>
</g>
</g>
</g>
<g id="Clip path group_2">
<mask id="mask1_1728_200" style="mask-type:luminance" maskUnits="userSpaceOnUse" x="0" y="17" width="45" height="25">
<g id="0b51aaea2e">
<path id="Vector_9" d="M0 17.1809H44.3744V42H0V17.1809Z" fill="white"/>
</g>
</mask>
<g mask="url(#mask1_1728_200)">
<g id="Group_2">
<path id="Vector_10" d="M39.7478 42H4.67518C2.13192 42 0.0605469 39.8598 0.0605469 37.2269V21.9544C0.0605469 19.3215 2.13192 17.1814 4.67518 17.1814H39.7478C42.2916 17.1814 44.3629 19.3215 44.3629 21.9544V37.2269C44.3629 39.8598 42.2916 42 39.7478 42ZM4.67518 19.091C3.14879 19.091 1.90662 20.3753 1.90662 21.9544V37.2269C1.90662 38.8061 3.14879 40.091 4.67518 40.091H39.7478C41.2747 40.091 42.5169 38.8061 42.5169 37.2269V21.9544C42.5169 20.3753 41.2747 19.091 39.7478 19.091H4.67518Z" fill="black"/>
</g>
</g>
</g>
<path id="Vector_11" d="M12.0591 19.0911C11.9303 19.0911 11.7989 19.0623 11.6734 19.0031C11.2102 18.7816 11.0089 18.2144 11.2212 17.7352L16.7588 5.32619C16.9732 4.84922 17.5231 4.64287 17.9846 4.8605C18.4478 5.08207 18.6491 5.64867 18.4369 6.12789L12.8992 18.5375C12.7421 18.8864 12.4066 19.0911 12.0591 19.0911Z" fill="black"/>
<path id="Vector_12" d="M32.3641 19.0911C32.0155 19.0911 31.6811 18.8864 31.5245 18.5375L25.9868 6.12789C25.7724 5.64867 25.9754 5.08206 26.4391 4.86049C26.9022 4.64118 27.4505 4.84922 27.6643 5.32618L33.2025 17.7352C33.4164 18.2144 33.2135 18.7816 32.7503 19.0031C32.6265 19.0623 32.4934 19.0911 32.3641 19.0911Z" fill="black"/>
</g>
</svg>
