<svg width="41" height="40" viewBox="0 0 41 40" fill="none" xmlns="http://www.w3.org/2000/svg">
<path d="M16.9266 4.6656H19.9166C20.0726 4.6656 20.2222 4.6046 20.3325 4.49601C20.4428 4.38743 20.5048 4.24015 20.5048 4.08659C20.5048 3.93302 20.4428 3.78575 20.3325 3.67716C20.2222 3.56857 20.0726 3.50757 19.9166 3.50757H16.9266C16.7706 3.50757 16.621 3.56857 16.5106 3.67716C16.4003 3.78575 16.3383 3.93302 16.3383 4.08659C16.3383 4.24015 16.4003 4.38743 16.5106 4.49601C16.621 4.6046 16.7706 4.6656 16.9266 4.6656ZM14.2601 35.8376H19.5931C19.7491 35.8376 19.8987 35.7766 20.009 35.668C20.1193 35.5594 20.1813 35.4121 20.1813 35.2585C20.1813 35.105 20.1193 34.9577 20.009 34.8491C19.8987 34.7405 19.7491 34.6795 19.5931 34.6795H14.2601C14.1041 34.6795 13.9545 34.7405 13.8442 34.8491C13.7338 34.9577 13.6719 35.105 13.6719 35.2585C13.6719 35.4121 13.7338 35.5594 13.8442 35.668C13.9545 35.7766 14.1041 35.8376 14.2601 35.8376Z" fill="#17282F"/>
<path d="M6.67808 30.0765C6.83409 30.0765 6.98371 30.0155 7.09402 29.9069C7.20434 29.7983 7.26631 29.651 7.26631 29.4974V6.83819H26.5869V9.81665C26.5869 9.97021 26.6489 10.1175 26.7592 10.2261C26.8695 10.3347 27.0191 10.3957 27.1751 10.3957C27.3312 10.3957 27.4808 10.3347 27.5911 10.2261C27.7014 10.1175 27.7634 9.97021 27.7634 9.81665L27.7657 3.64201C27.7657 2.37397 26.7128 1.33752 25.4204 1.33752H8.43102C7.20161 1.33752 6.08984 2.33343 6.08984 3.64375V29.4974C6.08984 29.651 6.15182 29.7983 6.26213 29.9069C6.37245 30.0155 6.52207 30.0765 6.67808 30.0765ZM25.4193 2.49556C26.041 2.49556 26.5875 2.99641 26.5875 3.64375V5.68015H7.26631V3.64201C7.26631 3.01088 7.7922 2.49556 8.43278 2.49556H25.4193Z" fill="#17282F"/>
<path d="M20.5567 15.9264C20.6676 16.0345 20.8175 16.0947 20.9734 16.0939C21.1294 16.0932 21.2787 16.0315 21.3885 15.9224L23.8473 13.4801C23.9563 13.3717 24.0175 13.2253 24.0175 13.0728C24.0175 12.9202 23.9563 12.7738 23.8473 12.6654L21.3885 10.2231C21.2776 10.1197 21.1301 10.0627 20.9773 10.0644C20.8245 10.0661 20.6784 10.1262 20.5698 10.2321C20.4613 10.338 20.3988 10.4812 20.3957 10.6316C20.3926 10.782 20.4491 10.9277 20.5532 11.0378L22.6008 13.073L20.5526 15.1077C20.4429 15.2168 20.3816 15.3644 20.3824 15.5179C20.3832 15.6715 20.4459 15.8184 20.5567 15.9264ZM13.2961 10.2191C13.2413 10.1655 13.1763 10.123 13.1048 10.0942C13.0332 10.0654 12.9567 10.0507 12.8794 10.0511C12.8021 10.0515 12.7257 10.0669 12.6544 10.0964C12.5832 10.1259 12.5186 10.169 12.4644 10.2231L10.0061 12.6654C9.89709 12.7738 9.83594 12.9202 9.83594 13.0728C9.83594 13.2253 9.89709 13.3717 10.0061 13.4801L12.4649 15.9224C12.5186 15.9792 12.5833 16.0248 12.6553 16.0565C12.7272 16.0882 12.8049 16.1053 12.8837 16.1069C12.9624 16.1085 13.0407 16.0944 13.1139 16.0656C13.1871 16.0368 13.2536 15.9939 13.3096 15.9393C13.3656 15.8847 13.4099 15.8196 13.4398 15.7478C13.4697 15.6761 13.4847 15.5991 13.4838 15.5215C13.4829 15.444 13.4662 15.3674 13.4347 15.2963C13.4032 15.2252 13.3574 15.1611 13.3002 15.1077L11.2526 13.073L13.3002 11.0378C13.41 10.9287 13.4712 10.7811 13.4704 10.6276C13.4696 10.4741 13.4069 10.3271 13.2961 10.2191ZM17.8749 8.58277L14.422 17.1349C14.3935 17.2055 14.3793 17.281 14.3804 17.3571C14.3815 17.4331 14.3979 17.5082 14.4285 17.5781C14.459 17.6479 14.5033 17.7112 14.5587 17.7642C14.6141 17.8172 14.6796 17.8589 14.7514 17.887C14.8232 17.9151 14.8999 17.929 14.9772 17.9279C15.0545 17.9268 15.1307 17.9108 15.2017 17.8806C15.2726 17.8505 15.3369 17.807 15.3907 17.7524C15.4446 17.6979 15.487 17.6334 15.5155 17.5627L18.9685 9.01066C19.0261 8.86785 19.0238 8.70834 18.9619 8.56723C18.9001 8.42612 18.7839 8.31497 18.6388 8.25823C18.4937 8.20149 18.3316 8.2038 18.1883 8.26467C18.0449 8.32553 17.932 8.43995 17.8744 8.58277H17.8749ZM27.1779 19.3102C25.4544 19.3102 24.0544 20.6883 24.0544 22.3848C24.0544 24.0975 25.4732 25.4594 27.1779 25.4594C28.8755 25.4594 30.2955 24.0998 30.2955 22.3848C30.2955 20.6883 28.8955 19.3102 27.1779 19.3102ZM27.7661 24.2087V22.0026C27.7661 21.6842 27.5014 21.4236 27.1779 21.4236C26.8485 21.4236 26.5896 21.6842 26.5896 22.0026V24.2145C26.1475 24.0751 25.7704 23.7849 25.5262 23.3961C25.2821 23.0074 25.1869 22.5457 25.2578 22.094C25.3287 21.6423 25.5611 21.2304 25.9131 20.9324C26.2651 20.6344 26.7136 20.4698 27.1779 20.4683C28.2485 20.4683 29.1191 21.331 29.1191 22.3848C29.1191 23.2417 28.5485 23.9655 27.7661 24.2087Z" fill="#17282F"/>
<path d="M34.7957 20.5551L33.3487 20.393C33.2369 20.0572 33.0957 19.7271 32.9251 19.4087L33.7722 18.2275C33.9428 18.0017 33.9134 17.6832 33.7134 17.4863L32.0251 15.8303C31.9236 15.7289 31.7874 15.668 31.643 15.6595C31.4985 15.6509 31.356 15.6953 31.2428 15.784L30.1075 16.6815C29.784 16.5194 29.4487 16.3862 29.1016 16.282L28.8604 14.8518C28.8368 14.7168 28.7653 14.5945 28.6587 14.5065C28.5521 14.4185 28.4172 14.3706 28.2781 14.3712H25.8957C25.5957 14.3712 25.3428 14.5912 25.3075 14.8865L25.1487 16.3167C24.8016 16.4267 24.4722 16.5657 24.1546 16.7278L22.9487 15.8882C22.8361 15.8088 22.6983 15.7715 22.5602 15.7832C22.4222 15.7949 22.2929 15.8547 22.1957 15.9519L20.5134 17.6079C20.3016 17.8164 20.284 18.1464 20.4722 18.378L21.3781 19.5013C21.2134 19.8198 21.0781 20.1498 20.9722 20.4914L19.5251 20.7288C19.2428 20.7809 19.031 21.0183 19.031 21.3021V23.6471C19.031 23.9424 19.2604 24.1856 19.5546 24.2203L21.0016 24.3824C21.1134 24.724 21.2604 25.0541 21.4251 25.3668L20.5781 26.5422C20.4134 26.7738 20.4369 27.0864 20.6428 27.2891L22.3251 28.9451C22.5369 29.1535 22.8722 29.1709 23.1075 28.9856L24.2487 28.0939C24.5722 28.2503 24.9016 28.3834 25.2487 28.4877L25.4898 29.9178C25.5122 30.0538 25.5832 30.1775 25.6899 30.2667C25.7967 30.3558 25.9322 30.4046 26.0722 30.4042H26.5898V31.6838H6.67808C6.35455 31.6838 6.08984 31.9444 6.08984 32.2628V36.0902C6.0914 36.7009 6.33855 37.2861 6.77727 37.718C7.21599 38.1498 7.81058 38.3931 8.43102 38.3946H25.4193C26.7134 38.3946 27.7663 37.3582 27.7663 36.0902V30.4042H28.4546C28.7546 30.4042 29.0075 30.1842 29.0428 29.8889L29.2075 28.4587C29.5495 28.3482 29.882 28.2107 30.2016 28.0476L31.4016 28.8872C31.6369 29.0493 31.9545 29.0204 32.1604 28.8235L33.8369 27.1617C34.0487 26.9533 34.0663 26.6232 33.8781 26.3974L32.9722 25.2741C33.1369 24.9499 33.2722 24.6198 33.3781 24.284L34.8251 24.0408C35.1075 23.9945 35.3193 23.7513 35.3193 23.4734V21.1284C35.3193 20.8331 35.0957 20.5841 34.7957 20.5551ZM26.5898 36.0902C26.5898 36.7213 26.0663 37.2366 25.4193 37.2366H8.43102C7.78984 37.2366 7.26631 36.7213 7.26631 36.0902V32.8419H26.5898V36.0902ZM34.1428 22.9812L32.8134 23.2012C32.5781 23.2418 32.3957 23.4097 32.3369 23.6413C32.2193 24.1277 32.0251 24.5967 31.7663 25.0425C31.6428 25.2452 31.6604 25.5057 31.8134 25.691L32.631 26.7101L31.6781 27.6597L30.5722 26.8838C30.4779 26.8189 30.3663 26.7827 30.2513 26.7796C30.1363 26.7765 30.0229 26.8067 29.9251 26.8664C29.4957 27.127 29.0251 27.3238 28.5251 27.4454C28.284 27.5033 28.1075 27.706 28.0781 27.9434L27.931 29.2462H26.5663L26.3428 27.9318C26.3244 27.8202 26.2726 27.7164 26.194 27.6339C26.1154 27.5514 26.0136 27.4939 25.9016 27.4686C25.4075 27.347 24.931 27.1559 24.4898 26.9012C24.3874 26.8414 24.2689 26.8138 24.1501 26.8221C24.0314 26.8304 23.918 26.8741 23.8251 26.9475L22.784 27.7581L21.8251 26.8143L22.6016 25.7431C22.7269 25.5688 22.7487 25.3112 22.6251 25.0946C22.3604 24.6719 22.1546 24.2029 22.0251 23.705C21.9967 23.5916 21.9335 23.4896 21.844 23.4129C21.7545 23.3362 21.6431 23.2886 21.5251 23.2765L20.2075 23.126V21.7942L21.5369 21.5742C21.7722 21.5337 21.9604 21.36 22.0134 21.1341C22.131 20.642 22.3251 20.173 22.5898 19.7445C22.7134 19.5361 22.7016 19.2755 22.5487 19.0844L21.7193 18.0596L22.6781 17.1158L23.7781 17.8859C23.8718 17.9516 23.9831 17.9888 24.0981 17.993C24.2131 17.9971 24.3268 17.9679 24.4251 17.909C24.8546 17.6485 25.331 17.4516 25.8369 17.3242C26.0722 17.2663 26.2428 17.0694 26.2722 16.832L26.4193 15.5293H27.784L28.0075 16.8378C28.0487 17.0694 28.2193 17.2547 28.4487 17.3068C28.9487 17.4226 29.4251 17.6137 29.8663 17.8743C30.0781 17.9959 30.3428 17.9785 30.531 17.828L31.5663 17.0115L32.5251 17.9611L31.7487 19.0381C31.6251 19.2101 31.5998 19.4614 31.7251 19.6808C31.9957 20.1151 32.1957 20.5841 32.3193 21.0647C32.3781 21.2963 32.5781 21.47 32.8251 21.4989L34.1428 21.6437V22.9812Z" fill="#17282F"/>
</svg>
