<svg width="56" height="56" viewBox="0 0 56 56" fill="none" xmlns="http://www.w3.org/2000/svg">
<g clip-path="url(#clip0_344_154)">
<path d="M28 30.625C25.6801 30.6224 23.456 29.6998 21.8156 28.0594C20.1752 26.419 19.2525 24.1949 19.25 21.875V20.125C19.25 17.8043 20.1719 15.5788 21.8128 13.9378C23.4538 12.2969 25.6794 11.375 28 11.375C30.3206 11.375 32.5462 12.2969 34.1872 13.9378C35.8281 15.5788 36.75 17.8043 36.75 20.125V21.875C36.7474 24.1949 35.8248 26.419 34.1844 28.0594C32.544 29.6998 30.3199 30.6224 28 30.625ZM28 13.125C26.1441 13.1271 24.3649 13.8652 23.0526 15.1775C21.7403 16.4899 21.0021 18.2691 21 20.125V21.875C21 23.7315 21.7375 25.512 23.0503 26.8247C24.363 28.1375 26.1435 28.875 28 28.875C29.8565 28.875 31.637 28.1375 32.9497 26.8247C34.2625 25.512 35 23.7315 35 21.875V20.125C34.9979 18.2691 34.2597 16.4899 32.9474 15.1775C31.6351 13.8652 29.8559 13.1271 28 13.125ZM12.25 44.625C12.0179 44.625 11.7954 44.5328 11.6313 44.3687C11.4672 44.2046 11.375 43.9821 11.375 43.75V37.632C11.3749 36.6654 11.6949 35.726 12.285 34.9605C12.8752 34.1949 13.7022 33.6464 14.637 33.4005C18.9962 32.2197 23.4844 31.5814 28 31.5C32.5156 31.5814 37.0038 32.2197 41.363 33.4005C42.2978 33.6464 43.1248 34.1949 43.715 34.9605C44.3051 35.726 44.6251 36.6654 44.625 37.632V39.375C44.625 39.6071 44.5328 39.8296 44.3687 39.9937C44.2046 40.1578 43.9821 40.25 43.75 40.25C43.5179 40.25 43.2954 40.1578 43.1313 39.9937C42.9672 39.8296 42.875 39.6071 42.875 39.375V37.632C42.8749 37.0527 42.6833 36.4897 42.3299 36.0308C41.9764 35.5718 41.4811 35.2426 40.9211 35.0945C36.7042 33.9612 32.3656 33.3418 28 33.25C23.6344 33.3415 19.2959 33.9606 15.0789 35.0936C14.5187 35.2418 14.0233 35.5711 13.6699 36.0302C13.3164 36.4894 13.1249 37.0526 13.125 37.632V43.75C13.125 43.9821 13.0328 44.2046 12.8687 44.3687C12.7046 44.5328 12.4821 44.625 12.25 44.625ZM52.2069 41.125C52.0697 41.1254 51.9344 41.093 51.8122 41.0305C51.6052 40.9256 51.4484 40.7428 51.3762 40.5222C51.304 40.3017 51.3224 40.0615 51.4272 39.8545C53.8193 35.12 54.7221 29.7723 54.0168 24.5149C53.3114 19.2575 51.0311 14.3368 47.4757 10.4002C47.32 10.2281 47.2391 10.0011 47.2507 9.76919C47.2624 9.53732 47.3657 9.31958 47.5379 9.16387C47.7101 9.00815 47.9371 8.92722 48.1689 8.93887C48.4008 8.95052 48.6185 9.0538 48.7742 9.22599C52.5668 13.4253 54.9991 18.6744 55.7513 24.2826C56.5035 29.8907 55.5402 35.5953 52.9882 40.6455C52.9151 40.7899 52.8033 40.9111 52.6654 40.9958C52.5274 41.0804 52.3687 41.1252 52.2069 41.125ZM46.1869 8.74999C45.9699 8.75012 45.7607 8.66967 45.5997 8.52424C41.7819 5.0766 37.0361 2.8255 31.9507 2.05012C26.8654 1.27473 21.6643 2.00918 16.9925 4.16237C16.7818 4.25984 16.541 4.2696 16.3231 4.18953C16.1051 4.10945 15.928 3.94608 15.8305 3.73537C15.733 3.52465 15.7233 3.28385 15.8033 3.06593C15.8834 2.84802 16.0468 2.67084 16.2575 2.57337C21.2411 0.276613 26.7892 -0.506831 32.2139 0.320187C37.6386 1.1472 42.7012 3.5483 46.774 7.22574C46.9052 7.34432 46.9975 7.4999 47.0385 7.67195C47.0796 7.844 47.0675 8.02445 47.0039 8.18951C46.9403 8.35457 46.8282 8.49648 46.6824 8.59654C46.5365 8.6966 46.3638 8.7501 46.1869 8.74999Z" fill="#3C8B24"/>
<path d="M21.8752 55.3052C21.8087 55.3052 21.7424 55.2979 21.6775 55.2833C15.5008 53.8774 9.98766 50.4086 6.04702 45.4489C2.10638 40.4891 -0.026429 34.3345 0.000247231 28C0.000277121 26.7923 0.0774341 25.5858 0.231247 24.388C0.245955 24.274 0.282971 24.164 0.34018 24.0643C0.39739 23.9646 0.473673 23.8772 0.564674 23.807C0.655676 23.7368 0.759613 23.6852 0.870552 23.6552C0.981492 23.6251 1.09726 23.6172 1.21125 23.632C1.32523 23.6467 1.43521 23.6837 1.53489 23.7409C1.63457 23.7981 1.72201 23.8744 1.79221 23.9654C1.86241 24.0564 1.914 24.1603 1.94404 24.2713C1.97407 24.3822 1.98196 24.498 1.96725 24.612C1.82251 25.7355 1.75003 26.8671 1.75025 28C1.72498 33.9385 3.72435 39.7083 7.41864 44.358C11.1129 49.0076 16.2815 52.2594 22.0721 53.5771C22.2821 53.6249 22.467 53.7485 22.5915 53.9242C22.7161 54.0999 22.7715 54.3153 22.7471 54.5293C22.7227 54.7432 22.6203 54.9407 22.4594 55.0838C22.2986 55.227 22.0906 55.3058 21.8752 55.3052ZM55.1252 56H25.3752C25.1432 56 24.9206 55.9078 24.7565 55.7437C24.5924 55.5796 24.5002 55.357 24.5002 55.125V42.875C24.5002 42.6429 24.5924 42.4203 24.7565 42.2562C24.9206 42.0921 25.1432 42 25.3752 42H55.1252C55.3573 42 55.5799 42.0921 55.744 42.2562C55.9081 42.4203 56.0002 42.6429 56.0002 42.875V55.125C56.0002 55.357 55.9081 55.5796 55.744 55.7437C55.5799 55.9078 55.3573 56 55.1252 56ZM26.2502 54.25H54.2502V43.75H26.2502V54.25Z" fill="#3C8B24"/>
<path d="M31.5 52.5C31.2679 52.5 31.0454 52.4078 30.8813 52.2437C30.7172 52.0796 30.625 51.8571 30.625 51.625V46.375C30.625 46.1429 30.7172 45.9204 30.8813 45.7563C31.0454 45.5922 31.2679 45.5 31.5 45.5C31.7321 45.5 31.9546 45.5922 32.1187 45.7563C32.2828 45.9204 32.375 46.1429 32.375 46.375V51.625C32.375 51.8571 32.2828 52.0796 32.1187 52.2437C31.9546 52.4078 31.7321 52.5 31.5 52.5Z" fill="#3C8B24"/>
<path d="M34.1245 51.1875C33.9894 51.1889 33.8558 51.1589 33.7342 51.1L28.4842 48.475C28.2765 48.3713 28.1186 48.1893 28.045 47.9691C27.9715 47.7489 27.9885 47.5085 28.0922 47.3008C28.196 47.0931 28.378 46.9351 28.5982 46.8616C28.8184 46.7881 29.0588 46.805 29.2665 46.9088L34.5165 49.5338C34.6908 49.623 34.83 49.7682 34.9121 49.9459C34.9941 50.1237 35.0141 50.3239 34.969 50.5144C34.9238 50.7049 34.8161 50.8747 34.663 50.9968C34.5099 51.1188 34.3203 51.186 34.1245 51.1875Z" fill="#3C8B24"/>
<path d="M28.876 51.1875C28.677 51.1899 28.4831 51.1245 28.3264 51.0019C28.1696 50.8794 28.0593 50.7071 28.0136 50.5134C27.9679 50.3197 27.9896 50.1162 28.0751 49.9366C28.1607 49.7569 28.3049 49.6117 28.484 49.525L33.734 46.9C33.9417 46.7963 34.1821 46.7793 34.4023 46.8528C34.5113 46.8892 34.6121 46.9467 34.6989 47.0221C34.7857 47.0974 34.8569 47.1892 34.9082 47.292C34.9596 47.3948 34.9902 47.5068 34.9983 47.6215C35.0064 47.7361 34.9918 47.8513 34.9554 47.9603C34.919 48.0693 34.8615 48.1702 34.7861 48.257C34.7108 48.3438 34.6191 48.4149 34.5162 48.4662L29.2662 51.0912C29.1454 51.1532 29.0118 51.1861 28.876 51.1875ZM40.251 52.5C40.0189 52.5 39.7963 52.4078 39.6322 52.2437C39.4682 52.0796 39.376 51.8571 39.376 51.625V46.375C39.376 46.1429 39.4682 45.9204 39.6322 45.7563C39.7963 45.5922 40.0189 45.5 40.251 45.5C40.483 45.5 40.7056 45.5922 40.8697 45.7563C41.0338 45.9204 41.126 46.1429 41.126 46.375V51.625C41.126 51.8571 41.0338 52.0796 40.8697 52.2437C40.7056 52.4078 40.483 52.5 40.251 52.5Z" fill="#3C8B24"/>
<path d="M42.8745 51.1875C42.7394 51.1889 42.6058 51.1589 42.4842 51.1L37.2342 48.475C37.0265 48.3713 36.8686 48.1893 36.795 47.9691C36.7215 47.7489 36.7385 47.5085 36.8422 47.3008C36.946 47.0931 37.128 46.9351 37.3482 46.8616C37.5684 46.7881 37.8088 46.805 38.0165 46.9088L43.2665 49.5338C43.4408 49.623 43.58 49.7682 43.6621 49.9459C43.7441 50.1237 43.7641 50.3239 43.719 50.5144C43.6738 50.7049 43.5661 50.8747 43.413 50.9968C43.2599 51.1188 43.0703 51.186 42.8745 51.1875Z" fill="#3C8B24"/>
<path d="M37.626 51.1875C37.427 51.1899 37.2331 51.1245 37.0764 51.0019C36.9196 50.8794 36.8093 50.7071 36.7636 50.5134C36.7179 50.3197 36.7396 50.1162 36.8251 49.9366C36.9107 49.7569 37.0549 49.6117 37.234 49.525L42.484 46.9C42.6917 46.7963 42.9321 46.7793 43.1523 46.8528C43.2613 46.8892 43.3621 46.9467 43.4489 47.0221C43.5357 47.0974 43.6069 47.1892 43.6582 47.292C43.7096 47.3948 43.7402 47.5068 43.7483 47.6215C43.7564 47.7361 43.7418 47.8513 43.7054 47.9603C43.669 48.0693 43.6115 48.1702 43.5361 48.257C43.4608 48.3438 43.3691 48.4149 43.2662 48.4662L38.0162 51.0912C37.8954 51.1532 37.7618 51.1861 37.626 51.1875ZM49.001 52.5C48.7689 52.5 48.5463 52.4078 48.3822 52.2437C48.2182 52.0796 48.126 51.8571 48.126 51.625V46.375C48.126 46.1429 48.2182 45.9204 48.3822 45.7563C48.5463 45.5922 48.7689 45.5 49.001 45.5C49.233 45.5 49.4556 45.5922 49.6197 45.7563C49.7838 45.9204 49.876 46.1429 49.876 46.375V51.625C49.876 51.8571 49.7838 52.0796 49.6197 52.2437C49.4556 52.4078 49.233 52.5 49.001 52.5Z" fill="#3C8B24"/>
<path d="M51.6245 51.1875C51.4894 51.1889 51.3558 51.1589 51.2342 51.1L45.9842 48.475C45.7765 48.3713 45.6186 48.1893 45.545 47.9691C45.4715 47.7489 45.4885 47.5085 45.5922 47.3008C45.696 47.0931 45.878 46.9351 46.0982 46.8616C46.3184 46.7881 46.5588 46.805 46.7665 46.9088L52.0165 49.5338C52.1908 49.623 52.33 49.7682 52.4121 49.9459C52.4941 50.1237 52.5141 50.3239 52.469 50.5144C52.4238 50.7049 52.3161 50.8747 52.163 50.9968C52.0099 51.1188 51.8203 51.186 51.6245 51.1875Z" fill="#3C8B24"/>
<path d="M46.375 51.1875C46.176 51.1899 45.9822 51.1245 45.8254 51.0019C45.6686 50.8794 45.5583 50.7071 45.5126 50.5134C45.467 50.3197 45.4887 50.1162 45.5742 49.9366C45.6597 49.7569 45.8039 49.6117 45.983 49.525L51.233 46.9C51.3358 46.8486 51.4478 46.818 51.5625 46.8099C51.6771 46.8018 51.7923 46.8164 51.9013 46.8528C52.0103 46.8892 52.1112 46.9467 52.198 47.0221C52.2848 47.0974 52.3559 47.1892 52.4072 47.292C52.4586 47.3948 52.4892 47.5068 52.4973 47.6215C52.5054 47.7361 52.4908 47.8513 52.4544 47.9603C52.418 48.0694 52.3605 48.1702 52.2852 48.257C52.2098 48.3438 52.1181 48.4149 52.0153 48.4663L46.7653 51.0913C46.6444 51.1532 46.5108 51.1861 46.375 51.1875ZM11.375 24.5H6.125C4.50112 24.4981 2.94428 23.8522 1.79602 22.704C0.647758 21.5557 0.00185269 19.9989 0 18.375L0 10.5C0 9.80381 0.276562 9.13613 0.768845 8.64384C1.26113 8.15156 1.92881 7.875 2.625 7.875H14.875C15.5712 7.875 16.2389 8.15156 16.7312 8.64384C17.2234 9.13613 17.5 9.80381 17.5 10.5V12.25C17.5 12.4821 17.4078 12.7046 17.2437 12.8687C17.0796 13.0328 16.8571 13.125 16.625 13.125C16.3929 13.125 16.1704 13.0328 16.0063 12.8687C15.8422 12.7046 15.75 12.4821 15.75 12.25V10.5C15.75 10.2679 15.6578 10.0454 15.4937 9.88128C15.3296 9.71719 15.1071 9.625 14.875 9.625H2.625C2.39294 9.625 2.17038 9.71719 2.00628 9.88128C1.84219 10.0454 1.75 10.2679 1.75 10.5V18.375C1.75139 19.5349 2.21277 20.6469 3.03294 21.4671C3.85311 22.2872 4.9651 22.7486 6.125 22.75H11.375C12.5349 22.7486 13.6469 22.2872 14.4671 21.4671C15.2872 20.6469 15.7486 19.5349 15.75 18.375V14.875C15.75 14.6429 15.8422 14.4204 16.0063 14.2563C16.1704 14.0922 16.3929 14 16.625 14C16.8571 14 17.0796 14.0922 17.2437 14.2563C17.4078 14.4204 17.5 14.6429 17.5 14.875V18.375C17.4981 19.9989 16.8522 21.5557 15.704 22.704C14.5557 23.8522 12.9989 24.4981 11.375 24.5Z" fill="#3C8B24"/>
<path d="M8.75 17.5C8.51794 17.5 8.29538 17.4078 8.13128 17.2437C7.96719 17.0796 7.875 16.8571 7.875 16.625V14C7.875 13.7679 7.96719 13.5454 8.13128 13.3813C8.29538 13.2172 8.51794 13.125 8.75 13.125C8.98206 13.125 9.20462 13.2172 9.36872 13.3813C9.53281 13.5454 9.625 13.7679 9.625 14V16.625C9.625 16.8571 9.53281 17.0796 9.36872 17.2437C9.20462 17.4078 8.98206 17.5 8.75 17.5ZM14 9.625H3.5C3.26794 9.625 3.04538 9.53281 2.88128 9.36872C2.71719 9.20462 2.625 8.98206 2.625 8.75V6.125C2.625 4.50055 3.27031 2.94263 4.41897 1.79397C5.56763 0.645311 7.12555 0 8.75 0C10.3745 0 11.9324 0.645311 13.081 1.79397C14.2297 2.94263 14.875 4.50055 14.875 6.125V8.75C14.875 8.98206 14.7828 9.20462 14.6187 9.36872C14.4546 9.53281 14.2321 9.625 14 9.625ZM4.375 7.875H13.125V6.125C13.125 4.96468 12.6641 3.85188 11.8436 3.03141C11.0231 2.21094 9.91032 1.75 8.75 1.75C7.58968 1.75 6.47688 2.21094 5.65641 3.03141C4.83594 3.85188 4.375 4.96468 4.375 6.125V7.875Z" fill="#3C8B24"/>
</g>
<defs>
<clipPath id="clip0_344_154">
<rect width="56" height="56" fill="white"/>
</clipPath>
</defs>
</svg>
