<?xml version="1.0" encoding="UTF-8" ?>
<!DOCTYPE svg PUBLIC "-//W3C//DTD SVG 1.1//EN" "http://www.w3.org/Graphics/SVG/1.1/DTD/svg11.dtd">
<svg width="231pt" height="142pt" viewBox="0 0 231 142" version="1.1" xmlns="http://www.w3.org/2000/svg">
<g id="#ff5f00ff">
<path fill="#ff5f00" opacity="1.00" d=" M 196.16 6.25 C 197.58 4.13 200.64 4.09 202.68 5.28 C 207.06 7.81 209.82 12.25 212.27 16.53 C 220.25 31.16 223.09 48.42 220.90 64.90 C 218.75 80.63 211.02 95.54 199.28 106.26 C 183.16 121.17 161.57 129.34 139.88 131.25 C 124.09 132.58 108.19 130.73 92.79 127.18 C 83.46 125.11 74.33 122.25 65.05 119.98 C 63.81 125.56 62.77 131.18 61.51 136.75 C 42.88 120.09 24.17 103.51 5.47 86.93 C 29.20 79.11 52.91 71.20 76.64 63.37 C 75.43 69.65 74.05 75.89 72.81 82.16 C 94.14 89.60 116.28 95.76 138.99 96.50 C 151.34 96.99 163.87 94.66 174.84 88.85 C 184.67 83.91 193.60 76.23 197.87 65.88 C 201.48 57.36 201.83 47.63 199.18 38.80 C 196.74 30.72 194.36 22.46 194.28 13.95 C 194.38 11.33 194.60 8.46 196.16 6.25 M 200.34 11.69 C 199.61 17.11 199.52 22.69 200.99 28.01 C 203.14 36.21 206.21 44.40 205.61 53.03 C 205.35 64.50 199.32 74.94 191.46 82.97 L 191.48 83.23 C 187.25 86.47 183.15 89.96 178.41 92.48 C 168.28 98.10 156.66 100.21 145.23 101.10 C 127.05 101.77 109.01 98.18 91.70 92.89 C 86.35 91.52 81.11 89.76 75.82 88.15 C 73.36 87.29 70.32 86.52 69.24 83.84 C 67.34 79.39 69.33 74.61 70.50 70.25 C 52.68 76.37 34.94 82.70 17.12 88.82 C 31.13 101.80 44.76 115.18 58.72 128.21 C 59.36 124.81 59.50 121.21 61.01 118.05 C 63.12 115.40 66.94 115.61 69.91 116.31 C 77.30 118.09 84.45 120.78 91.93 122.20 L 91.93 122.53 C 108.78 126.32 126.20 128.12 143.43 126.13 C 160.43 123.96 177.33 118.06 190.83 107.32 C 200.76 100.58 207.76 90.19 212.21 79.19 C 219.44 61.22 218.41 40.40 210.18 22.95 C 207.98 18.37 204.56 14.51 200.34 11.69 Z" />
</g>
<g id="#ffb000ff">
<path fill="#ffb000" opacity="1.00" d=" M 200.34 11.69 C 204.56 14.51 207.98 18.37 210.18 22.95 C 218.41 40.40 219.44 61.22 212.21 79.19 C 207.76 90.19 200.76 100.58 190.83 107.32 C 190.78 99.28 192.37 91.27 191.48 83.23 L 191.46 82.97 C 199.32 74.94 205.35 64.50 205.61 53.03 C 206.21 44.40 203.14 36.21 200.99 28.01 C 199.52 22.69 199.61 17.11 200.34 11.69 Z" />
</g>
<g id="#ffc900ff">
<path fill="#ffc900" opacity="1.00" d=" M 17.12 88.82 C 34.94 82.70 52.68 76.37 70.50 70.25 C 69.33 74.61 67.34 79.39 69.24 83.84 C 70.32 86.52 73.36 87.29 75.82 88.15 C 81.11 89.76 86.35 91.52 91.70 92.89 C 94.96 102.43 91.27 112.41 91.93 122.20 C 84.45 120.78 77.30 118.09 69.91 116.31 C 66.94 115.61 63.12 115.40 61.01 118.05 C 59.50 121.21 59.36 124.81 58.72 128.21 C 44.76 115.18 31.13 101.80 17.12 88.82 Z" />
</g>
<g id="#ffb700ff">
<path fill="#ffb700" opacity="1.00" d=" M 178.41 92.48 C 183.15 89.96 187.25 86.47 191.48 83.23 C 192.37 91.27 190.78 99.28 190.83 107.32 C 177.33 118.06 160.43 123.96 143.43 126.13 C 144.10 117.79 144.70 109.45 145.23 101.10 C 156.66 100.21 168.28 98.10 178.41 92.48 Z" />
</g>
<g id="#ffbf00ff">
<path fill="#ffbf00" opacity="1.00" d=" M 91.70 92.89 C 109.01 98.18 127.05 101.77 145.23 101.10 C 144.70 109.45 144.10 117.79 143.43 126.13 C 126.20 128.12 108.78 126.32 91.93 122.53 L 91.93 122.20 C 91.27 112.41 94.96 102.43 91.70 92.89 Z" />
</g>
</svg>
