<svg width="1401" height="1401" viewBox="0 0 1401 1401" fill="none" xmlns="http://www.w3.org/2000/svg">
<g clip-path="url(#clip0_617_389)">
<rect width="1401" height="1401" rx="700.5" fill="white"/>
<path fill-rule="evenodd" clip-rule="evenodd" d="M1321.81 666.386C1322.55 680.113 1322.85 693.76 1322.71 707.312L1323.88 707.326L1392.55 708.118L1395.71 708.154C1395.87 693.006 1395.54 677.751 1394.7 662.408C1389.24 562.416 1362.88 468.525 1320.09 384.743L1317.05 386.296L1255.9 417.541L1255.06 417.969C1293.34 492.928 1316.92 576.928 1321.81 666.386ZM755.666 1319C824.297 1313.04 889.492 1296.05 949.586 1269.88L949.684 1270.11L976.89 1332.92L978.61 1336.89C911.449 1366.12 838.589 1385.09 761.889 1391.73L761.607 1388.44L755.753 1320.02L755.666 1319ZM1113.72 1165.93L1113.25 1165.39C1181.79 1104.65 1236.64 1029.11 1272.99 944.116L1273.85 944.484L1336.99 971.495L1340.13 972.838C1299.48 1067.83 1238.17 1152.26 1161.55 1220.13L1159.01 1217.25L1113.72 1165.93ZM218.43 1090.59C164.839 1024.37 124.492 946.74 101.677 861.55L101.066 861.715L34.762 879.575L31.1729 880.542C56.6783 975.759 101.783 1062.52 161.692 1136.53L163.984 1134.68L217.713 1091.17L218.43 1090.59ZM562.033 1305.63C490.124 1289.08 422.747 1259.98 362.486 1220.65L362.126 1221.2L324.471 1279.18L322.723 1281.88C389.997 1325.78 465.207 1358.26 545.47 1376.74L546.349 1372.97L561.925 1306.09L562.033 1305.63ZM81.2523 668.516C84.5698 602.033 98.4404 538.075 121.294 478.392L120.985 478.275L58.5581 454.537L53.0411 452.439C27.5286 519.103 12.0441 590.539 8.33912 664.792L11.9189 664.975L80.4973 668.478L81.2523 668.516ZM1012.9 79.6938C1079.47 113.165 1140.07 157.08 1192.43 209.405L1189.99 211.847L1141.49 260.459L1140.87 261.086C1094.03 214.263 1039.81 174.964 980.26 145.006L980.476 144.573L1011.17 83.1491L1012.9 79.6938ZM806.042 13.8697C759.855 6.89068 712.267 4.4955 663.789 7.14097C607.971 10.1869 554.055 19.747 502.737 35.0435L503.839 38.7015L523.646 104.451L523.799 104.959C569.676 91.2969 617.872 82.7575 667.766 80.0348C711.189 77.6652 753.813 79.815 795.181 86.0743L795.198 85.9613L805.412 18.0575L806.042 13.8697ZM348.696 189.007L348.637 188.922L309.482 132.511L307.064 129.028C252.152 167.034 203.094 212.708 161.358 264.411L165.582 267.809L217.618 309.676L218.237 310.174C255.605 263.896 299.531 223.017 348.696 189.007Z" fill="#19BAD7"/>
<path d="M1241 699.5C1241 995.801 1000.8 1236 704.5 1236C408.199 1236 168 995.801 168 699.5C168 403.199 408.199 163 704.5 163C1000.8 163 1241 403.199 1241 699.5Z" fill="#19BAD7"/>
<path d="M519.388 296.367C524.352 295.592 529.354 295.046 534.395 295.059C639.748 295.085 745.101 295.059 850.454 295.072C863.48 295.313 876.621 294.247 889.558 296.253L889.139 297.433C890.333 297.535 891.526 297.636 892.745 297.763C894.929 298.728 897.163 299.604 899.436 300.417L899.41 301.89C899.842 301.75 900.718 301.471 901.162 301.331C903.257 302.867 905.53 304.226 907.396 306.067C909.009 307.184 910.418 308.593 912.208 309.469L911.916 309.85C913.046 311.031 914.138 312.275 915.281 313.469C917.058 315.538 918.708 317.722 920.384 319.893C921.26 321.264 922.187 322.635 923.178 323.981C923.254 324.692 923.432 326.114 923.52 326.825L924.498 326.635C925.057 328.425 925.628 330.266 926.923 331.7C927.075 333.084 927.228 334.481 927.38 335.89C927.621 335.839 928.129 335.763 928.383 335.725C930.973 348.955 929.83 362.463 930.097 375.845C930.237 382.003 929.221 388.097 928.332 394.178C927.989 394.191 927.291 394.229 926.948 394.242C927.101 394.851 927.418 396.07 927.583 396.667L926.364 396.705C925.691 399.168 925.044 401.733 923.444 403.789C923.444 404.031 923.432 404.5 923.419 404.742C921.971 406.354 921.146 408.373 920.448 410.404C920.054 410.48 919.255 410.62 918.848 410.696C918.429 412.905 917.134 414.454 915.052 415.203C914.849 415.889 914.455 417.26 914.252 417.933C913.605 418.136 912.284 418.542 911.637 418.745C910.799 420.282 909.834 421.755 908.298 422.669L908.285 423.659L905.593 423.303C905.923 423.722 906.584 424.573 906.914 425.005C904.819 425.614 902.305 425.779 901.378 428.115C899.385 428.674 897.442 429.347 895.449 429.855L895.551 430.667C891.78 432.051 887.92 433.156 883.946 433.689C883.667 448.404 883.642 463.131 883.959 477.846C888.72 478.265 893.443 478.989 898.217 479.408L898.001 480.601C899.994 480.601 902 480.614 904.019 480.639C904.108 481.122 904.286 482.061 904.375 482.531C906.177 482.696 908.006 482.861 909.847 483.026L909.516 483.953C912.868 485.096 916.334 486.124 919.204 488.295C919.445 488.206 919.927 488.041 920.169 487.965C922.454 489.857 925.158 491.139 927.799 492.485C931.176 495.088 934.807 497.386 938.032 500.204C939.302 501.271 940.584 502.375 941.866 503.48L942.857 503.086L942.539 504.115C943.695 504.94 944.736 505.905 945.688 506.997L946.513 506.933V507.885C947.453 508.736 948.38 509.612 949.306 510.501C949.598 510.818 950.17 511.44 950.462 511.758C951.363 513.065 952.315 514.373 953.204 515.732C953.623 515.935 954.474 516.316 954.893 516.519C955.807 518.398 956.772 520.328 958.448 521.673C959.298 523.146 960.238 524.632 961.546 525.8C961.495 526.041 961.406 526.536 961.368 526.777C962.764 528.885 964.097 531.056 965.532 533.164C965.494 533.443 965.418 534.027 965.38 534.306C966.814 535.703 967.436 537.633 968.224 539.435C968.579 540.083 969.29 541.391 969.646 542.038C970.801 545.301 971.588 548.704 972.87 551.941C972.985 553.097 973.213 555.395 973.328 556.537L974.419 556.271C975.016 560.803 975.359 565.425 976.667 569.843C977.34 596.962 976.794 624.106 976.971 651.238C976.87 771.687 977.162 892.148 976.819 1012.61C976.565 1012.57 976.057 1012.5 975.803 1012.44C975.549 1016.79 975.029 1021.09 974.432 1025.41C974.153 1025.36 973.594 1025.26 973.302 1025.2C973.175 1026.35 972.921 1028.63 972.794 1029.76C971.664 1032.39 970.903 1035.17 970.331 1037.98C970.141 1037.98 969.735 1037.98 969.544 1037.98C968.452 1040.88 967.297 1043.78 966.434 1046.78L965.138 1046.56C965.189 1047.04 965.291 1047.99 965.342 1048.48C964.301 1050.03 963.361 1051.63 962.498 1053.29H961.292C961.444 1053.9 961.723 1055.12 961.876 1055.73L960.428 1055.38C959.793 1056.89 959.197 1058.43 958.562 1059.97C957.076 1061.11 955.82 1062.49 954.791 1064.05C953.052 1066.12 951.287 1068.18 949.484 1070.2C948.265 1071.52 947.008 1072.83 945.701 1074.07C944.444 1075.3 943.212 1076.56 941.981 1077.82C939.86 1079.53 937.753 1081.28 935.658 1083.02C934.274 1084.01 932.903 1085.03 931.621 1086.13C931.379 1086.12 930.897 1086.08 930.656 1086.06C929.437 1087.97 927.139 1088.39 925.222 1089.22C925.082 1089.61 924.828 1090.4 924.701 1090.79C922.886 1091.24 921.337 1092.1 920.029 1093.38C919.305 1093.46 917.845 1093.6 917.121 1093.68L917.299 1094.87C915.052 1095.3 912.843 1095.92 910.621 1096.37L910.773 1097.85C910.329 1097.75 909.453 1097.56 909.009 1097.46C906.342 1098.56 903.613 1099.53 900.985 1100.7C885.762 1104.87 869.879 1103.86 854.275 1103.98C749.722 1103.98 645.182 1103.97 540.629 1103.98C531.894 1104.14 523.184 1103.46 514.5 1102.5L514.83 1101.71C510.488 1100.78 506.209 1099.59 501.854 1098.74L502.159 1097.51C501.156 1097.55 499.15 1097.62 498.147 1097.66L498.401 1096.39C497.576 1096.21 495.938 1095.86 495.113 1095.68C493.373 1094.41 491.291 1093.74 489.222 1093.29L489.438 1092.53C487.85 1092 486.276 1091.49 484.727 1090.95C482.81 1089.07 480.499 1087.72 478.29 1086.27C478.049 1086.2 477.579 1086.03 477.338 1085.96C476.03 1084.9 474.634 1083.99 473.25 1083.1C471.257 1081.22 469.009 1079.68 467.003 1077.86C465.772 1076.57 464.528 1075.32 463.296 1074.07C461.988 1072.82 460.706 1071.53 459.487 1070.23C458.243 1068.89 457.011 1067.55 455.767 1066.25C454.155 1064.38 452.682 1062.4 451.527 1060.25C451.171 1059.94 450.473 1059.34 450.117 1059.05C449.445 1057.73 448.81 1056.41 448.188 1055.12C446.486 1053.01 445.128 1050.67 443.592 1048.48C443.693 1048.03 443.909 1047.14 444.011 1046.71L442.589 1046.79C441.586 1043.78 440.456 1040.83 439.376 1037.88L438.665 1038.1C438.081 1035.27 437.345 1032.47 436.19 1029.84C435.961 1028.04 435.758 1026.26 435.542 1024.51C432.419 1021.62 434.082 1016.32 433.27 1012.47C433.003 1012.5 432.457 1012.57 432.178 1012.61C431.822 879.059 432.127 745.495 432.025 611.943C432.025 597.736 431.975 583.517 432.152 569.31C432.406 569.297 432.927 569.259 433.181 569.246C433.422 564.942 433.866 560.663 434.45 556.41C434.704 556.474 435.212 556.588 435.466 556.652C436.355 551.167 437.802 545.695 440.214 540.68C441.052 538.813 441.776 536.884 442.474 534.966L443.261 535.17C444.176 532.567 445.344 530.078 446.423 527.552L447.667 527.653C447.654 527.184 447.616 526.269 447.604 525.8C448.556 524.644 449.445 523.438 450.27 522.181L451.247 522.511C451.247 522.054 451.222 521.14 451.222 520.683C453.063 519.236 454.041 517.052 455.653 515.389C456.719 513.815 458.065 512.469 459.703 511.491C459.919 510.806 460.363 509.434 460.592 508.749C461.328 508.584 462.801 508.228 463.55 508.063C463.715 507.314 464.071 505.816 464.248 505.08C464.909 504.851 466.254 504.407 466.927 504.191C467.994 502.629 469.378 501.322 470.901 500.217C472.742 498.744 474.57 497.284 476.36 495.761C476.767 495.799 477.579 495.875 477.986 495.913L477.63 494.618C479.141 494.008 480.639 493.361 482.15 492.726C484.105 490.796 486.594 489.603 488.841 488.079C489.095 488.117 489.603 488.181 489.857 488.219C492.193 486.607 494.846 485.578 497.474 484.55C498.604 484.258 499.76 483.966 500.915 483.674C503.048 482.138 505.663 481.769 508.203 481.325L508.139 480.398C509.904 480.386 511.681 480.385 513.471 480.385C513.408 480.068 513.294 479.446 513.23 479.141C516.722 478.76 520.213 478.253 523.717 477.91C523.87 463.093 523.819 448.277 523.743 433.46C521.533 433.041 519.324 432.61 517.115 432.229L517.382 430.985C516.392 430.997 514.424 431.035 513.433 431.061L513.598 429.766C511.77 429.245 509.967 428.712 508.114 428.318L508.609 426.808L507.555 427.392C505.397 425.944 503.2 424.573 501.334 422.783C498.515 420.536 495.963 417.984 493.653 415.241C491.901 413.121 490.225 410.937 488.435 408.868C486.568 404.31 483.267 400.336 482.721 395.296L481.985 395.473C480.245 389.049 478.887 382.472 479.204 375.769C479.433 363.187 478.506 350.516 480.499 338.023L481.693 338.429C481.706 337.134 481.731 334.557 481.756 333.262L482.924 333.605C483.534 330.799 484.461 328.082 485.616 325.467L486.479 325.594C487.114 323.727 487.838 321.886 488.562 320.058C490.555 318.115 492.142 315.817 493.805 313.608C495.075 312.326 496.357 311.056 497.665 309.812C499.658 307.984 501.766 306.257 503.873 304.531C505.194 303.528 506.539 302.55 507.86 301.56C508.317 301.623 509.231 301.763 509.688 301.826L509.637 300.442C513.027 299.262 516.392 298.005 519.896 297.179L519.388 296.367ZM524.2 328.768C520.911 330.494 518.055 332.945 516.303 336.258C514.398 338.112 513.256 340.512 511.973 342.784C512.024 343.063 512.126 343.597 512.176 343.863C509.98 347.291 510.208 351.57 509.967 355.48C510.005 365.015 509.574 374.588 510.818 384.072C511.148 384.047 511.821 384.009 512.151 383.983C512.113 384.948 512.037 386.891 511.999 387.868L513.243 387.652C513.763 389.519 514.386 391.36 514.97 393.213C516.404 394.521 517.763 395.918 519.007 397.429C520.594 398.825 522.333 400.057 524.136 401.187C526.053 402.025 528.085 402.571 530.129 403.066C530.078 403.332 529.964 403.853 529.913 404.107C645.943 404.234 761.974 404.043 878.005 404.208L877.471 403.231C880.201 402.774 882.905 402.215 885.635 401.707L885.267 400.209C885.686 400.273 886.536 400.399 886.955 400.463C887.946 399.46 888.961 398.47 890.002 397.492C890.929 396.502 891.881 395.524 892.872 394.572C893.062 394.102 893.443 393.175 893.633 392.706C895.766 390.281 897.176 387.399 897.404 384.148C897.76 384.136 898.484 384.098 898.852 384.085C899.448 374.982 899.398 365.853 899.347 356.75C899.245 351.951 899.334 346.923 897.112 342.543C897.074 342.099 897.023 341.223 896.985 340.791L895.919 340.931C895.094 338.607 894.332 336.169 892.465 334.468C891.539 333.427 890.675 332.361 889.812 331.294C888.542 330.456 887.311 329.605 886.105 328.729C880.861 325.327 874.285 325.911 868.317 325.911C756.997 325.936 645.664 325.898 534.344 325.936C530.929 326.355 526.701 325.936 524.2 328.768ZM555.547 435.974C555.508 455.501 555.737 475.015 555.42 494.542L554.518 494.44C553.718 498.858 550.519 501.804 547.142 504.407C545.542 504.915 544.044 505.638 542.444 506.095L542.838 507.174C541.022 507.2 539.207 507.225 537.391 507.251L537.797 508.393C530.954 508.139 524.162 508.977 517.407 509.866L517.382 511.085C516.023 511.034 514.665 510.983 513.306 510.933L513.751 512.202C511.465 512.659 509.18 513.18 506.895 513.624L507.06 514.843C506.311 514.894 504.8 514.983 504.038 515.021C502.87 516.163 501.435 516.963 500.026 517.763C497.817 519.185 495.57 520.594 493.602 522.346C493.335 522.359 492.789 522.372 492.523 522.384C491.405 523.641 490.085 524.695 488.688 525.622C487.381 526.854 486.098 528.11 484.829 529.367C483.673 530.751 482.366 531.97 481.058 533.189C480.182 534.382 479.331 535.601 478.443 536.795C476.894 538.344 475.878 540.324 474.71 542.152C472.221 544.742 471.13 548.247 469.847 551.51L468.946 551.294C468.54 553.566 467.994 555.814 467.613 558.112L466.331 557.921C466.369 558.886 466.445 560.829 466.483 561.806C466.165 561.806 465.518 561.832 465.188 561.832C464.629 566.072 463.994 570.313 463.753 574.591L462.712 574.274C462.699 595.705 462.788 617.149 462.661 638.58C469.619 639.431 476.64 638.834 483.623 638.999C637.843 638.936 792.051 639.101 946.272 638.923C946.234 616.286 946.386 593.648 946.158 571.024L945.167 574.464C945.015 570.224 944.406 566.047 943.822 561.87L942.73 561.806C942.527 560.029 942.311 558.251 942.044 556.499C940.927 554.937 940.305 553.122 939.746 551.319L938.756 551.51C938.692 550.773 938.578 549.3 938.515 548.577C937.093 546.406 935.76 544.197 934.338 542.051C933.462 540.616 932.497 539.245 931.252 538.128C931.214 537.861 931.138 537.328 931.113 537.061C929.995 535.817 928.929 534.535 927.951 533.214C926.669 531.894 925.387 530.586 924.13 529.291C922.822 528.098 921.565 526.866 920.308 525.66C918.899 524.683 917.591 523.603 916.436 522.384C916.169 522.397 915.636 522.41 915.357 522.423C914.405 520.899 912.843 520.137 911.345 519.363C909.301 517.738 907.015 516.468 904.819 515.084C904.095 515.021 902.635 514.894 901.899 514.83L902.051 513.726C898.75 512.875 895.373 512.151 892.313 510.59C884.772 508.152 876.709 508.444 868.889 508.33C868.914 508.012 868.965 507.378 868.99 507.06C868.216 507.022 866.667 506.959 865.892 506.921C864.724 505.346 862.858 504.826 861.106 504.28L861.436 503.213L859.76 503.569L860.014 502.566C857.945 502.096 856.446 500.763 855.532 498.884C852.79 496.865 853.031 493.069 852.714 490.047C852.739 472.031 852.663 454.016 852.765 436.012C753.696 435.847 654.615 435.911 555.547 435.974ZM462.687 670.892C462.737 759.003 462.737 847.115 462.687 935.227C509.853 935.696 557.019 935.303 604.186 935.43C681.633 935.43 759.067 935.43 836.513 935.43C873.104 935.303 909.707 935.684 946.297 935.239C946.247 847.115 946.285 758.991 946.272 670.866C918.175 670.587 890.079 670.828 861.982 670.752C728.888 670.841 595.781 670.549 462.687 670.892ZM462.725 966.612C462.699 979.854 462.737 993.096 462.712 1006.34L463.74 1005.89C463.918 1010.78 464.718 1015.62 465.378 1020.46L466.28 1018.36C466.343 1019.34 466.445 1021.27 466.508 1022.25C467.232 1023.83 467.905 1025.43 468.54 1027.1C470.139 1030.49 471.752 1033.88 473.212 1037.34C476.36 1040.99 478.747 1045.23 482.099 1048.74C482.975 1049.76 483.839 1050.8 484.689 1051.88L485.743 1051.51L485.4 1052.67C490.123 1056.2 494.567 1060.09 499.62 1063.19C501.664 1064.35 503.848 1065.24 506.07 1066.06L505.828 1067.13C506.819 1067.11 508.774 1067.1 509.751 1067.09L509.485 1068.47C511.288 1068.73 513.091 1069.02 514.906 1069.3C514.868 1069.65 514.792 1070.36 514.754 1070.72C516.887 1070.76 519.032 1070.86 521.178 1070.91L521.127 1072.03C539.435 1073.98 557.857 1072.75 576.229 1073.09C666.384 1073.09 756.527 1073.09 846.683 1073.09C860.433 1072.99 874.221 1073.59 887.92 1072.05L887.793 1070.77C888.784 1070.85 890.751 1071 891.742 1071.08C891.78 1070.78 891.856 1070.17 891.907 1069.87C894.433 1069.41 896.973 1068.9 899.512 1068.44L899.258 1067.41C902.229 1066.68 905.174 1065.67 907.688 1063.86C909.669 1062.47 911.992 1061.67 913.998 1060.28C915.712 1058.72 917.515 1057.26 919.229 1055.7C919.508 1055.7 920.054 1055.71 920.334 1055.71C921.159 1054.66 922.022 1053.64 922.898 1052.63C923.292 1052.3 924.079 1051.64 924.473 1051.31C925.387 1050.41 926.326 1049.54 927.304 1048.71C927.342 1048.43 927.431 1047.87 927.482 1047.59C931.024 1044.82 932.662 1040.48 935.798 1037.35C937.08 1034.5 938.223 1031.57 939.645 1028.77C941.105 1025.55 942.514 1022.26 943.009 1018.73L943.834 1019.36C944.342 1013.45 945.523 1007.62 946.221 1001.74C946.386 990.036 946.208 978.318 946.272 966.624C908.831 966.256 871.377 966.573 833.936 966.459C710.199 966.561 586.462 966.269 462.725 966.612Z" fill="#FEFEFD"/>
<path d="M531.27 707.788C568.825 707.877 606.393 707.585 643.949 707.94L643.987 709.045C646.615 709.108 649.23 709.108 651.871 709.21L651.388 710.314C654.816 710.543 658.219 711.317 661.304 712.853C661.749 712.777 662.637 712.638 663.069 712.561C663.082 712.904 663.094 713.603 663.107 713.958C665.062 714.491 667.005 715.075 668.96 715.685C670.801 717.754 673.467 718.605 676.019 719.481L675.676 720.268C677.441 721.081 679.028 722.261 680.615 723.404C683.091 726.07 685.643 728.673 688.334 731.136C688.944 732.723 689.845 734.208 690.277 735.897C690.696 735.833 691.547 735.719 691.978 735.656C692.511 737.839 693.095 740.023 693.68 742.22L694.987 741.826C694.962 742.855 694.886 744.886 694.848 745.914L696.13 745.597C696.727 749.964 697.425 754.345 697.704 758.763L698.695 758.331C698.669 763.499 698.695 768.666 698.695 773.833L697.717 773.732C697.514 778.087 696.828 782.403 696.181 786.72L694.873 786.441C694.924 787.431 695.025 789.437 695.089 790.427L693.997 790.44C692.753 794.363 690.544 797.854 688.169 801.194C686.773 802.704 685.516 804.342 684.297 805.993C682.812 806.653 681.593 807.681 680.552 808.913C679.511 809.865 678.457 810.817 677.39 811.757C676.997 811.719 676.184 811.655 675.778 811.617L676.146 813.001C674.369 813.534 672.617 814.093 670.852 814.626L671.106 815.883L669.519 815.464C669.519 815.743 669.493 816.302 669.493 816.594C668.439 816.962 666.332 817.711 665.278 818.08C665.418 821.076 665.38 824.58 667.868 826.738C667.995 827.272 668.274 828.338 668.401 828.884C669.506 831.22 670.318 833.696 670.991 836.21L672.185 836.07C672.172 837.048 672.147 838.99 672.134 839.968L673.391 839.561C673.81 841.098 674.318 842.609 674.788 844.157C675.143 844.818 675.867 846.125 676.222 846.786C677.086 849.058 678.038 851.318 679.409 853.349C679.485 854.099 679.625 855.597 679.688 856.346L680.59 856.143C681.225 857.831 681.923 859.507 682.685 861.17C684.5 864.776 685.198 868.877 687.522 872.241C687.395 872.698 687.128 873.613 687.001 874.07L688.626 873.956C689.02 875.695 689.414 877.447 689.807 879.212L691.166 878.932C691.178 879.542 691.216 880.773 691.229 881.395C692.918 884.316 693.946 887.566 695.127 890.727L696.079 890.461C696.523 892.657 697.146 894.841 697.628 897.05L698.796 896.961C698.872 898.218 699.012 900.732 699.075 902.001C688.474 901.824 677.86 902.103 667.246 901.824C666.713 899.792 666.637 897.443 664.77 896.136C664.732 895.374 664.643 893.838 664.605 893.076L663.602 893.292C662.447 890.257 661.203 887.261 660.276 884.151L659.717 884.366C658.701 881.345 657.572 878.361 656.556 875.365C656.365 875.339 655.985 875.289 655.807 875.263C655.197 873.283 654.575 871.327 653.598 869.537C652.201 866.934 651.63 863.938 649.674 861.678C649.598 860.98 649.446 859.571 649.37 858.872C649.154 858.847 648.71 858.809 648.481 858.784C647.783 856.93 647.034 855.165 646.247 853.375C644.71 849.858 643.796 846.036 641.549 842.875C641.612 842.609 641.739 842.088 641.803 841.821C640.521 839.612 639.365 837.352 638.083 835.181C638.032 834.432 637.956 832.947 637.905 832.21L636.864 832.439C636.305 830.636 635.836 828.77 634.503 827.398C634.388 826.675 634.185 825.227 634.084 824.504C609.847 824.275 585.61 824.39 561.385 824.44C561.372 850.214 561.372 875.987 561.385 901.76C551.317 902.128 541.236 901.925 531.168 901.9C531.232 837.187 531.041 772.487 531.27 707.788ZM560.395 738.03C560.484 756.77 560.446 775.509 560.42 794.249C576.278 794.63 592.148 794.312 608.006 794.414C620.499 794.274 633.004 794.782 645.485 793.957L645.231 792.801C647.072 792.763 648.913 792.801 650.779 792.789L650.436 791.811C652.48 791.278 654.537 790.719 656.391 789.653C658.219 788.574 659.87 787.19 661.799 786.263C662.498 783.8 664.631 782.632 665.824 780.778C666.281 778.899 666.776 777.02 667.297 775.179L668.287 775.23C668.516 769.174 668.465 763.13 668.3 757.074L667.36 757.252C666.979 755.183 666.433 753.177 665.304 751.399C663.996 749.698 662.942 747.819 661.711 746.079C658.27 743.743 654.829 741.255 650.677 740.404L650.766 739.744C646.297 738.906 641.866 737.624 637.27 737.827C611.649 737.941 586.016 737.611 560.395 738.03Z" fill="#FEFEFD"/>
<path d="M731.38 764.654C736.801 764.413 742.235 763.778 747.669 764.261C754.042 764.883 760.441 763.461 766.802 764.388C768.529 764.248 769.773 765.2 770.611 766.66C771.792 768.006 773.011 769.352 774.204 770.736C775.931 772.805 777.632 774.887 779.41 776.931C780.476 778.379 781.708 779.699 783.066 780.905C786.164 785.374 789.77 789.45 793.274 793.602C795.115 795.582 796.727 797.753 798.53 799.785C799.888 802.933 803.024 803.924 806.16 802.883C807.151 800.851 808.255 798.883 809.919 797.334C811.239 795.976 812.572 794.63 813.956 793.348C814.184 792.662 814.641 791.316 814.857 790.631C815.492 790.453 816.749 790.11 817.384 789.932C818.006 788.206 818.768 786.504 820.533 785.654C820.545 785.4 820.596 784.867 820.609 784.6C821.713 783.343 822.78 782.086 823.859 780.817C825.624 778.811 827.325 776.741 829.077 774.735C830.27 773.326 831.477 771.929 832.772 770.622C833.686 769.39 834.613 768.158 835.489 766.902C835.996 766.622 837.025 766.051 837.533 765.759L836.999 764.565C849.531 763.537 862.125 764.324 874.682 764.07C873.793 766.47 873.019 769.098 871 770.85C869.134 772.78 867.508 774.925 865.718 776.919C863.382 779.496 861.198 782.2 858.761 784.689C858.748 784.943 858.723 785.476 858.71 785.743C857.605 786.746 856.59 787.85 855.701 789.044L854.634 788.726L855.079 789.755C853.936 790.948 852.895 792.243 851.816 793.487C850 795.506 848.324 797.639 846.636 799.759C845.633 800.775 844.643 801.816 843.627 802.806L843.728 804.279L842.687 804.178C841.786 805.638 840.453 806.704 839.044 807.644C838.32 809.078 837.634 810.526 836.974 811.986L836.161 811.592C835.298 813.382 833.825 814.753 832.772 816.417C831.464 817.635 830.27 818.956 829.09 820.302C827.261 822.46 825.636 824.847 823.313 826.523C823.237 827.996 823.199 829.481 823.173 830.979C823.656 830.966 824.633 830.941 825.116 830.928C828.049 836.426 833 840.374 836.695 845.313C837.875 846.697 839.069 848.094 840.275 849.49C841.24 850.76 842.268 852.029 843.475 853.134L843.068 854.137L844.465 853.68C845.023 854.848 845.569 856.054 846.103 857.273C846.509 857.565 847.321 858.174 847.74 858.466C848.667 859.609 849.581 860.79 850.419 862.034C851.676 863.291 852.895 864.611 854.089 865.957C855.853 868.166 857.555 870.464 859.789 872.255C859.941 872.864 860.246 874.095 860.386 874.718C861.071 874.971 862.417 875.505 863.09 875.759C863.788 877.409 864.728 878.945 866.302 879.948C866.29 880.228 866.277 880.786 866.264 881.066C867.508 882.145 868.575 883.427 869.578 884.786C870.809 886.144 872.028 887.553 873.082 889.102C873.552 889.509 874.491 890.321 874.961 890.727C876.028 892.2 877.183 893.622 878.44 894.981C879.506 896.2 880.56 897.456 881.652 898.688C881.754 899.513 881.957 901.176 882.046 902.002C870.225 901.799 858.392 902.129 846.585 901.849C844.782 901.938 844.046 899.881 842.789 898.993C841.951 897.698 841.177 896.365 840.351 895.108C838.942 893.914 837.672 892.594 836.492 891.223C834.701 889.204 833 887.109 831.324 885.014C830.169 883.605 828.937 882.272 827.757 880.913C826.741 879.618 825.7 878.349 824.595 877.155C824.506 876.927 824.341 876.482 824.253 876.254C823.148 874.984 822.145 873.677 821.155 872.369C817.866 869.233 815.111 865.64 812.28 862.136C811.074 860.764 809.83 859.444 808.56 858.187C807.494 856.689 806.732 854.95 805.348 853.756C803.761 853.528 802.174 853.528 800.599 853.49C800.003 854.886 799.419 856.295 798.847 857.717L797.413 857.222L797.857 858.327C796.372 859.127 795.47 860.51 794.645 861.932C793.363 863.215 792.131 864.561 790.988 865.983C789.224 868.039 787.484 870.109 785.681 872.128C783.256 875.225 780.565 878.082 778.28 881.294C776.147 883.808 773.988 886.309 771.944 888.912C770.091 890.867 768.415 892.987 766.65 895.019C765.495 896.53 764.2 897.914 762.612 898.967C762.435 899.678 762.067 901.1 761.889 901.811C749.155 902.103 736.42 901.862 723.686 901.964C723.876 901.202 724.257 899.653 724.448 898.878C726.009 897.749 727.355 896.377 728.498 894.841C730.224 892.759 731.977 890.689 733.665 888.582C734.782 887.172 736.052 885.916 737.461 884.811C738.21 883.288 739.099 881.827 740.559 880.875C740.597 880.621 740.661 880.088 740.686 879.821C742.248 878.831 743.175 877.27 743.886 875.606C744.559 875.403 745.904 874.984 746.577 874.768C746.653 874.108 746.818 872.762 746.907 872.089C748.139 871.366 748.926 870.236 749.383 868.903C750.107 869.868 751.389 871.023 752.214 869.411L752.443 868.42C752.557 865.843 754.233 863.862 755.883 862.085L755.63 861.133L756.62 861.31C757.597 860.193 758.6 859.089 759.591 857.997C759.629 857.743 759.705 857.235 759.73 856.981C762.092 854.442 764.39 851.839 766.599 849.186C768.389 847.154 770.103 845.059 771.881 843.028C773.049 841.657 774.268 840.324 775.461 838.965C776.439 837.632 777.454 836.337 778.724 835.258C778.749 834.991 778.787 834.445 778.813 834.179C780.006 833.201 780.997 832.058 781.796 830.738C782.253 830.763 783.155 830.814 783.612 830.84C783.599 829.367 783.599 827.894 783.587 826.447C782.063 825.317 779.727 824.682 779.498 822.524C777.378 822.257 777.277 819.768 775.905 818.537C774.001 816.594 772.312 814.461 770.535 812.417C769.545 811.11 768.554 809.789 767.335 808.71L767.729 807.732L766.624 808.063C765.444 806.501 764.225 804.977 762.993 803.479C762.092 802.26 761.19 801.042 760.327 799.835C759.083 798.502 757.889 797.144 756.747 795.76C754.995 793.703 753.23 791.672 751.452 789.679C750.386 788.206 749.231 786.822 747.809 785.717C746.463 784.054 745.777 781.858 743.962 780.651C742.083 777.884 739.747 775.522 737.715 772.894C735.862 770.85 734.262 768.565 732.129 766.813C731.938 766.267 731.57 765.2 731.38 764.654Z" fill="#FEFEFD"/>
</g>
<defs>
<clipPath id="clip0_617_389">
<rect width="1401" height="1401" rx="700.5" fill="white"/>
</clipPath>
</defs>
</svg>
