<svg width="17" height="17" viewBox="0 0 17 17" fill="none" xmlns="http://www.w3.org/2000/svg">
<path d="M1.7 0.899902C1 0.899902 0.5 1.39991 0.5 2.09991V15.6999C0.5 16.3999 1 16.8999 1.7 16.8999H11.1C11.6 16.9999 12.2 16.7999 12.6 16.3999L13.7 15.2999C13.9 15.0999 13.9 14.8999 13.7 14.6999C13.5 14.4999 13.3 14.4999 13.1 14.6999L12 15.7999C11.6 16.1999 11 16.1999 10.6 15.7999C10.2 15.3999 10.2 14.7999 10.6 14.3999L11.7 13.2999C11.9 13.0999 11.9 12.8999 11.7 12.6999C11.5 12.4999 11.3 12.4999 11.1 12.6999L10 13.7999C9.4 14.3999 9.3 15.3999 9.8 16.0999H1.7C1.5 16.0999 1.3 15.8999 1.3 15.6999V1.99991C1.3 1.79991 1.5 1.59991 1.7 1.59991H9.3V4.3999C9.3 5.0999 9.8 5.59991 10.5 5.59991H13.3V10.4999L12.2 11.5999C12 11.7999 12 11.9999 12.2 12.1999C12.4 12.3999 12.6 12.3999 12.8 12.1999L13.9 11.0999C14.3 10.6999 14.9 10.6999 15.3 11.0999C15.7 11.4999 15.7 12.0999 15.3 12.4999L14.2 13.5999C14 13.7999 14 13.9999 14.2 14.1999C14.4 14.3999 14.6 14.3999 14.8 14.1999L15.9 13.0999C16.6 12.3999 16.6 11.2999 15.9 10.5999C15.4 10.0999 14.8 9.99991 14.2 10.0999V5.2999C14.2 5.1999 14.2 5.09991 14.1 4.99991L10.1 0.999908C10 0.899908 9.9 0.899902 9.8 0.899902H1.7Z" fill="#FF7900"/>
<path d="M3.9 4.7998C3.7 4.7998 3.5 4.99983 3.5 5.19983C3.5 5.39983 3.7 5.59982 3.9 5.59982H7.5C7.7 5.59982 7.9 5.39983 7.9 5.19983C7.9 4.99983 7.7 4.7998 7.5 4.7998H3.9Z" fill="#FF7900"/>
<path d="M3.9 7.19971C3.7 7.19971 3.5 7.3997 3.5 7.5997C3.5 7.7997 3.7 7.99969 3.9 7.99969H10.5C10.7 7.99969 10.9 7.7997 10.9 7.5997C10.9 7.3997 10.7 7.19971 10.5 7.19971H3.9Z" fill="#FF7900"/>
<path d="M3.9 9.6001C3.7 9.6001 3.5 9.80009 3.5 10.0001C3.5 10.2001 3.7 10.4001 3.9 10.4001H10.5C10.7 10.4001 10.9 10.2001 10.9 10.0001C10.9 9.80009 10.7 9.6001 10.5 9.6001H3.9Z" fill="#FF7900"/>
<path d="M3.9 12C3.7 12 3.5 12.2 3.5 12.4C3.5 12.6 3.7 12.8 3.9 12.8H8.9C9.1 12.8 9.3 12.6 9.3 12.4C9.3 12.2 9.1 12 8.9 12H3.9Z" fill="#FF7900"/>
<path d="M13.8008 12.1001C13.7008 12.1001 13.6008 12.1001 13.5008 12.2001L11.7008 14.0001C11.5008 14.2001 11.5008 14.4001 11.7008 14.6001C11.9008 14.8001 12.1008 14.8001 12.3008 14.6001L14.1008 12.8001C14.3008 12.6001 14.3008 12.4001 14.1008 12.2001C14.0008 12.1001 13.9008 12.1001 13.8008 12.1001Z" fill="#FF7900"/>
</svg>
