<svg width="42" height="41" viewBox="0 0 42 41" fill="none" xmlns="http://www.w3.org/2000/svg">
<path d="M33.7147 39.8888C37.3283 39.8888 40.2575 37.2773 40.2575 34.0555C40.2575 30.8338 37.3283 28.2222 33.7147 28.2222C30.1011 28.2222 27.1719 30.8338 27.1719 34.0555C27.1719 37.2773 30.1011 39.8888 33.7147 39.8888Z" stroke="#3C8B24" stroke-width="2" stroke-linecap="round" stroke-linejoin="round"/>
<path d="M33.7147 12.6667C37.3283 12.6667 40.2575 10.055 40.2575 6.83333C40.2575 3.61168 37.3283 1 33.7147 1C30.1011 1 27.1719 3.61168 27.1719 6.83333C27.1719 10.055 30.1011 12.6667 33.7147 12.6667Z" stroke="#3C8B24" stroke-width="2" stroke-linecap="round" stroke-linejoin="round"/>
<path d="M7.54279 26.2778C11.1563 26.2778 14.0856 23.6662 14.0856 20.4444C14.0856 17.2227 11.1563 14.6111 7.54279 14.6111C3.92932 14.6111 1 17.2227 1 20.4444C1 23.6662 3.92932 26.2778 7.54279 26.2778Z" stroke="#3C8B24" stroke-width="2" stroke-linecap="round" stroke-linejoin="round"/>
<path d="M28.2626 9.75L12.9961 17.5278" stroke="#3C8B24" stroke-width="2"/>
<path d="M12.9961 23.3613L28.2626 31.1391" stroke="#3C8B24" stroke-width="2"/>
</svg>
