<svg width="1844" height="1844" viewBox="0 0 1844 1844" fill="none" xmlns="http://www.w3.org/2000/svg">
<rect width="1844" height="1844" fill="white"/>
<path fill-rule="evenodd" clip-rule="evenodd" d="M1539.81 888.392C1540.55 902.119 1540.85 915.766 1540.71 929.319L1541.88 929.332L1610.55 930.124L1613.71 930.161C1613.87 915.012 1613.54 899.758 1612.7 884.414C1607.24 784.422 1580.88 690.531 1538.09 606.749L1535.05 608.302L1473.9 639.547L1473.06 639.975C1511.34 714.934 1534.92 798.934 1539.81 888.392ZM973.665 1541C1042.3 1535.05 1107.49 1518.06 1167.58 1491.89L1167.68 1492.12L1194.89 1554.93L1196.61 1558.9C1129.45 1588.13 1056.59 1607.1 979.888 1613.74L979.606 1610.44L973.753 1542.03L973.665 1541ZM1331.72 1387.93L1331.25 1387.39C1399.79 1326.66 1454.64 1251.12 1490.99 1166.12L1491.85 1166.49L1554.99 1193.5L1558.13 1194.85C1517.48 1289.84 1456.17 1374.26 1379.55 1442.14L1377.01 1439.26L1331.72 1387.93ZM436.43 1312.6C382.839 1246.37 342.492 1168.75 319.677 1083.56L319.065 1083.72L252.761 1101.58L249.173 1102.55C274.678 1197.77 319.782 1284.53 379.691 1358.54L381.983 1356.68L435.712 1313.18L436.43 1312.6ZM780.032 1527.63C708.123 1511.09 640.746 1481.99 580.486 1442.65L580.125 1443.21L542.47 1501.19L540.722 1503.88C607.997 1547.78 683.206 1580.27 763.469 1598.75L764.349 1594.98L779.924 1528.1L780.032 1527.63ZM299.252 890.523C302.57 824.04 316.44 760.082 339.294 700.399L338.984 700.281L276.557 676.543L271.041 674.446C245.529 741.11 230.044 812.545 226.339 886.798L229.918 886.981L298.496 890.484L299.252 890.523ZM1230.9 301.699C1297.47 335.171 1358.07 379.086 1410.43 431.412L1407.99 433.853L1359.49 482.465L1358.87 483.092C1312.03 436.269 1257.81 396.97 1198.26 367.012L1198.48 366.576L1229.17 305.152L1230.9 301.699ZM1024.04 235.876C977.854 228.897 930.267 226.502 881.789 229.147C825.971 232.193 772.055 241.753 720.738 257.05L721.839 260.705L741.646 326.454L741.8 326.965C787.677 313.303 835.873 304.764 885.766 302.041C929.189 299.672 971.812 301.821 1013.18 308.081L1013.2 307.964L1023.41 240.06L1024.04 235.876ZM566.698 411.013L566.637 410.925L527.482 354.515L525.065 351.033C470.153 389.039 421.094 434.714 379.358 486.417L383.581 489.815L435.617 531.682L436.236 532.181C473.605 485.902 517.531 445.023 566.698 411.013Z" fill="#EE7600"/>
<circle cx="921.5" cy="922.5" r="536.5" fill="#EE7600"/>
<path d="M862.244 510.03C870.3 503.26 884.841 508.504 886.032 519.135C887.463 536.822 887.51 554.746 885.937 572.433C883.792 586.973 860.814 587.926 856.857 573.911C855.141 559.704 855.76 545.307 855.856 531.006C856.237 523.759 855.188 514.606 862.244 510.03Z" fill="white"/>
<path d="M757.506 539.017C765.419 535.013 773.237 540.59 778.529 546.216C789.065 556.99 800.935 566.762 809.373 579.396C814.188 592.267 797.074 605.711 786.252 596.701C773.857 586.356 762.511 574.724 751.88 562.615C744.777 555.559 748.496 542.497 757.506 539.017Z" fill="white"/>
<path d="M972.606 539.299C984.619 532.578 999.779 547.499 992.962 559.703C981.664 573.624 968.697 586.447 954.872 597.841C942.477 605.23 926.555 588.736 934.802 576.865C946.148 563.279 958.781 550.407 972.606 539.299Z" fill="white"/>
<path d="M809.9 660.626C809.566 626.779 841.03 596.745 874.925 599.463C906.15 600.512 933.276 628.781 932.656 660.102C933.037 709.014 932.942 757.973 932.608 806.885C948.864 799.973 967.504 796.064 984.428 803.119C1001.78 808.792 1013.79 823.523 1021.71 839.35C1037.92 831.436 1056.7 826.622 1074.29 833.01C1092.79 838.206 1105.75 853.604 1114.14 870.146C1134.26 859.086 1159.96 856.989 1179.88 869.67C1198.19 880.539 1209.82 901.324 1209.49 922.586C1209.78 979.65 1209.78 1036.71 1209.49 1093.73C1209.06 1153.22 1186.18 1212.1 1146.18 1256.15C1100.75 1307.02 1033.39 1337.38 965.121 1337.38C883.363 1336.43 803.702 1291.81 759.939 1222.78C720.752 1158.9 680.946 1095.35 641.616 1031.57C632.177 1017.26 631.223 997.908 640.377 983.225C661.543 954.431 700.92 936.697 735.817 950.141C768.806 962.488 785.73 996.097 809.757 1019.69C809.947 900.037 809.566 780.332 809.9 660.626ZM857.524 633.024C845.94 638.935 839.838 651.998 840.601 664.679C840.314 796.779 841.03 928.926 840.267 1061.03C841.22 1073.37 823.963 1081.48 815.429 1072.13C788.781 1044.77 765.898 1013.83 738.915 986.848C716.795 967.112 681.804 977.791 666.358 1000.48C662.973 1007.73 668.456 1014.36 671.602 1020.46C709.263 1081.34 746.829 1142.31 784.061 1203.42C815.382 1254.2 868.441 1290.76 926.935 1302.44C997.586 1317.5 1074 1289.9 1122.2 1236.84C1158.86 1197.23 1179.27 1143.4 1178.79 1089.44C1178.5 1032.28 1179.69 975.073 1178.26 917.962C1176.55 892.982 1141.08 882.398 1125.4 901.562C1108.42 923.015 1123.68 953.144 1114.76 977.028C1108.52 987.802 1089.88 985.18 1087.45 972.833C1083.87 942.132 1090.07 910.668 1084.4 880.205C1075.91 854.844 1035.82 854.891 1027.24 880.205C1021.71 910.668 1027.81 942.084 1024.28 972.785C1021.28 988.755 994.535 986.419 994.773 970.02C993.295 933.455 995.297 896.843 994.106 860.278C994.535 844.546 980.805 830.578 965.216 830.102C950.152 828.958 934.944 840.78 933.466 856.035C931.035 895.508 934.992 935.219 931.702 974.644C926.506 988.66 902.765 985.657 902.575 970.401C901.192 866.952 902.765 763.36 901.86 659.864C902.765 638.173 876.355 621.773 857.524 633.024Z" fill="white"/>
<path d="M709.359 632.453C727.379 627.829 746.734 630.356 765.231 630.642C780.915 630.403 783.966 655.002 769.521 659.817C750.595 661.962 731.383 661.629 712.457 660.056C700.539 656.575 698.346 638.508 709.359 632.453Z" fill="white"/>
<path d="M971.32 632.07C989.626 628.304 1008.79 630.02 1027.38 630.783C1042.21 631.069 1045.07 653.951 1031.86 659.481C1013.03 662.199 993.773 661.484 974.847 660.149C961.785 657.765 959.545 637.838 971.32 632.07Z" fill="white"/>
</svg>
