<svg width="17" height="17" viewBox="0 0 17 17" fill="none" xmlns="http://www.w3.org/2000/svg">
<path d="M14.6 8.79999V8.29999C14.7 8.29999 14.9 8.2 14.9 8V6.39999C14.9 6.29999 14.8 6.09998 14.6 6.09998H13.2L13.1 5.89999C13 5.39999 12.8 4.99998 12.6 4.59998L12.5 4.39999L13.5 3.39999C13.6 3.29999 13.6 3.1 13.5 3L12.4 1.89999C12.3 1.79999 12.1 1.79999 12 1.89999L11 2.89999L10.8 2.79999C10.4 2.59999 10 2.39999 9.5 2.29999L9.29999 2.19998V0.799988C9.29999 0.699988 9.2 0.5 9 0.5H7.39999C7.29999 0.5 7.09998 0.599988 7.09998 0.799988V2.19998L6.89999 2.29999C6.39999 2.39999 5.99998 2.59999 5.59998 2.79999L5.39999 2.89999L4.39999 1.89999C4.29999 1.79999 4.1 1.79999 4 1.89999L2.89999 3C2.89999 3 2.79999 3.09998 2.79999 3.19998C2.79999 3.29998 2.79999 3.29999 2.89999 3.39999L3.89999 4.39999L3.79999 4.59998C3.59999 4.99998 3.39999 5.39999 3.29999 5.89999L3.19998 6.09998H1.79999C1.69999 6.09998 1.5 6.19999 1.5 6.39999V8C1.5 8.1 1.59999 8.29999 1.79999 8.29999V8.79999C1.39999 8.79999 1 8.4 1 8V6.39999C1 5.99999 1.39999 5.59998 1.79999 5.59998H2.79999C2.89999 5.19998 3.09998 4.9 3.19998 4.5L2.5 3.79999C2.4 3.69999 2.29999 3.39998 2.29999 3.19998C2.29999 2.99998 2.4 2.79998 2.5 2.59998L3.59998 1.5C3.89998 1.2 4.39998 1.2 4.69998 1.5L5.39999 2.19998C5.69999 1.99998 6.1 1.89999 6.5 1.79999V0.799988C6.5 0.399988 6.89999 0 7.29999 0H8.89999C9.29999 0 9.69998 0.399988 9.69998 0.799988V1.79999C10.1 1.89999 10.4 2.09998 10.8 2.19998L11.5 1.5C11.8 1.2 12.3 1.2 12.6 1.5L13.7 2.59998C13.8 2.69998 13.9 2.99998 13.9 3.19998C13.9 3.39998 13.8 3.59999 13.7 3.79999L13 4.5C13.2 4.8 13.3 5.19998 13.4 5.59998H14.4C14.8 5.59998 15.2 5.99999 15.2 6.39999V8C15.4 8.4 15 8.79999 14.6 8.79999Z" fill="#FF7900"/>
<path d="M11.9 7.20027H11.4C11.4 5.40027 9.99998 4.00029 8.19998 4.00029C6.39998 4.00029 5 5.40027 5 7.20027H4.5C4.5 5.10027 6.19998 3.50029 8.19998 3.50029C10.3 3.40029 11.9 5.10027 11.9 7.20027Z" fill="#FF7900"/>
<path d="M8.19962 9.30011C7.29962 9.30011 6.59961 8.6001 6.59961 7.7001C6.59961 6.8001 7.29962 6.1001 8.19962 6.1001C9.09962 6.1001 9.79962 6.8001 9.79962 7.7001C9.79962 8.6001 9.09962 9.30011 8.19962 9.30011ZM8.19962 6.6001C7.59962 6.6001 7.09961 7.1001 7.09961 7.7001C7.09961 8.3001 7.59962 8.80011 8.19962 8.80011C8.79962 8.80011 9.29962 8.3001 9.29962 7.7001C9.29962 7.1001 8.79962 6.6001 8.19962 6.6001Z" fill="#FF7900"/>
<path d="M12.6996 10.3001C11.7996 10.3001 11.0996 9.6001 11.0996 8.7001C11.0996 7.8001 11.7996 7.1001 12.6996 7.1001C13.5996 7.1001 14.2996 7.8001 14.2996 8.7001C14.2996 9.6001 13.5996 10.3001 12.6996 10.3001ZM12.6996 7.7001C12.0996 7.7001 11.5996 8.20011 11.5996 8.80011C11.5996 9.40011 12.0996 9.90012 12.6996 9.90012C13.2996 9.90012 13.7996 9.40011 13.7996 8.80011C13.7996 8.20011 13.2996 7.7001 12.6996 7.7001Z" fill="#FF7900"/>
<path d="M3.69962 10.3001C2.79962 10.3001 2.09961 9.6001 2.09961 8.7001C2.09961 7.8001 2.79962 7.1001 3.69962 7.1001C4.59962 7.1001 5.29962 7.8001 5.29962 8.7001C5.29962 9.6001 4.59962 10.3001 3.69962 10.3001ZM3.69962 7.7001C3.09962 7.7001 2.59961 8.20011 2.59961 8.80011C2.59961 9.40011 3.09962 9.90012 3.69962 9.90012C4.29962 9.90012 4.79962 9.40011 4.79962 8.80011C4.79962 8.20011 4.29962 7.7001 3.69962 7.7001Z" fill="#FF7900"/>
<path d="M15.2 11C14.8 10.7 14.3 10.6 13.9 10.6H11.8C11.7 10.6 11.5 10.6 11.4 10.6C11.2 10.3 11 10.1 10.7 9.89999L10.6 9.79999C10.2 9.59999 9.79999 9.5 9.39999 9.5H7.29999C6.49999 9.5 5.69999 9.89998 5.29999 10.6C5.19999 10.6 4.99999 10.6 4.89999 10.6H2.79999C2.29999 10.6 1.8 10.7 1.5 11C0.8 11.4 0.5 12.2 0.5 13V14.1C0.5 14.8 0.899976 15.5 1.59998 15.8C1.79998 15.9 2.09999 16 2.39999 16H5.09998V15.5H2.69998V12.6H2.19998V15.5C2.09998 15.5 1.99999 15.4 1.89999 15.4C1.39999 15.2 1.09998 14.7 1.09998 14.2V13.1C1.09998 12.5 1.39999 11.9 1.89999 11.6C2.19999 11.4 2.59999 11.3 2.89999 11.3H5H5.09998C4.99998 11.6 5 11.8 5 12.1V14.8C5 15.5 5.59999 16.1 6.29999 16.1H7.09998V11.8H6.59998V15.5H6.29999C5.89999 15.5 5.5 15.1 5.5 14.7V12C5.5 11 6.29999 10.1 7.39999 10.1H9.5C9.8 10.1 10.2 10.2 10.5 10.4H10.6C10.8 10.6 11.1 10.8 11.2 11.1C11.3 11.4 11.4 11.7 11.4 12V14.7C11.4 15.1 11 15.5 10.6 15.5H10.3V11.8H9.79999V16.1H10.6C11.3 16.1 11.9 15.5 11.9 14.8V12.1C11.9 11.8 11.9 11.6 11.8 11.3H11.9H14C14.4 11.3 14.7 11.4 15 11.6C15.5 11.9 15.8 12.5 15.8 13.1V14.2C15.8 14.7 15.5 15.2 15 15.4C14.9 15.4 14.8 15.5 14.7 15.5V12.6H14.2V15.5H11.8V16H14.5C14.8 16 15 15.9 15.3 15.8C16 15.5 16.4 14.8 16.4 14.1V13C16.2 12.2 15.8 11.5 15.2 11Z" fill="#FF7900"/>
</svg>
