<svg width="56" height="56" viewBox="0 0 56 56" fill="none" xmlns="http://www.w3.org/2000/svg">
<path d="M38.1658 24.2418V13.6441C38.1658 13.3408 38.0258 13.0604 37.8275 12.8387L25.9458 0.361921C25.7239 0.128625 25.4087 0 25.0937 0H6.2558C2.7779 0 0 2.83609 0 6.31421V41.9358C0 45.4139 2.7779 48.2035 6.25569 48.2035H21.1255C23.9381 52.872 29.0505 55.9999 34.8744 55.9999C43.7213 55.9999 50.946 48.8102 50.946 39.9517C50.958 32.2134 45.402 25.7475 38.1658 24.2419V24.2418ZM26.2611 4.09696L34.2326 12.4885H29.0621C27.5214 12.4885 26.261 11.2165 26.261 9.67595L26.2611 4.09696ZM6.25569 45.869C4.07334 45.869 2.3345 44.1182 2.3345 41.9359V6.31421C2.3345 4.11993 4.07334 2.3345 6.25569 2.3345H23.9266V9.67573C23.9266 12.5118 26.226 14.8229 29.0621 14.8229H35.8313V23.9382C35.4814 23.9266 35.2012 23.8915 34.8978 23.8915C30.8244 23.8915 27.0779 25.4557 24.2534 27.9068H9.43062C8.78848 27.9068 8.26337 28.4319 8.26337 29.0736C8.26337 29.7158 8.78837 30.2408 9.43062 30.2408H22.0826C21.2537 31.4081 20.565 32.5753 20.0285 33.8592H9.43051C8.78837 33.8592 8.26327 34.3843 8.26327 35.0264C8.26327 35.6681 8.78826 36.1936 9.43051 36.1936H19.2695C18.9777 37.3609 18.826 38.6563 18.826 39.9518C18.826 42.0524 19.2344 44.1302 19.9698 45.881H6.25569V45.869ZM34.8863 53.6773C27.3231 53.6773 21.1721 47.5263 21.1721 39.9632C21.1721 32.4001 27.3113 26.2491 34.8863 26.2491C42.4609 26.2491 48.6 32.4001 48.6 39.9632C48.6 47.5263 42.4493 53.6773 34.8863 53.6773Z" fill="#3C8B24"/>
<path d="M9.43092 24.3936H21.254C21.8962 24.3936 22.4213 23.8682 22.4213 23.2263C22.4213 22.5843 21.8963 22.0592 21.254 22.0592H9.43092C8.78878 22.0592 8.26367 22.5842 8.26367 23.2263C8.26367 23.8682 8.78867 24.3936 9.43092 24.3936ZM35.715 31.3496C35.4933 31.1163 35.19 30.9762 34.8631 30.9762C34.5363 30.9762 34.2329 31.1163 34.0112 31.3496L27.1714 38.691C26.7279 39.158 26.763 39.9048 27.23 40.3368C27.697 40.7803 28.4553 40.7452 28.8988 40.2787L33.731 35.1081V47.8533C33.731 48.4954 34.256 49.0205 34.8981 49.0205C35.5399 49.0205 36.0654 48.4955 36.0654 47.8533V35.1081L40.8621 40.2787C41.0957 40.5235 41.3992 40.6521 41.7145 40.6521C41.9943 40.6521 42.2745 40.547 42.5079 40.3368C42.9749 39.8932 43.0099 39.158 42.5664 38.691L35.715 31.3496Z" fill="#3C8B24"/>
</svg>
