<svg width="1912" height="404" viewBox="0 0 1912 404" fill="none" xmlns="http://www.w3.org/2000/svg">
<path d="M329.49 399.111C361.245 321.612 443.757 198.54 934.231 235.631C1558.39 282.832 1504.79 473.851 1911.1 370.68M307.751 372.89C339.336 295.399 421.504 172.343 910.891 209.486C1533.67 256.753 1480.43 447.755 1885.67 344.635M271.257 347.375C303.012 269.877 385.524 146.805 875.998 183.895C1500.16 231.096 1446.56 422.115 1852.86 318.944M235.122 322.525C266.707 245.035 348.874 121.979 838.262 159.122C1461.04 206.389 1407.8 397.391 1813.04 294.271M191.609 298.029C223.194 220.539 305.362 97.4832 794.749 134.626C1417.53 181.893 1364.29 372.895 1769.53 269.775M147.737 272.869C179.492 195.37 262.004 72.2978 752.478 109.389C1376.64 156.589 1323.04 347.609 1729.34 244.437M107.913 248.196C139.498 170.705 221.666 47.6495 711.053 84.7924C1333.83 132.059 1280.6 323.061 1685.83 219.941M68.0887 223.523C99.8438 146.024 182.356 22.9517 672.83 60.0426C1296.99 107.243 1243.39 298.263 1649.7 195.091M35.2838 197.831C66.8688 120.341 149.037 -2.71474 638.424 34.4282C1261.2 81.6953 1207.97 272.697 1613.2 169.577M2.58993 172.347C34.2992 95.0869 116.662 -27.6083 605.95 9.35126C1228.6 56.3849 1175.06 246.816 1580.43 143.949" stroke="url(#paint0_linear_410_444)" stroke-width="5"/>
<defs>
<linearGradient id="paint0_linear_410_444" x1="266.364" y1="165.562" x2="1211.25" y2="407.901" gradientUnits="userSpaceOnUse">
<stop stop-color="white" stop-opacity="0.04"/>
<stop offset="1" stop-color="white" stop-opacity="0.1"/>
</linearGradient>
</defs>
</svg>
