<svg width="29" height="13" viewBox="0 0 29 13" fill="none" xmlns="http://www.w3.org/2000/svg">
<path d="M9.79961 9.49318C8.89961 8.63017 7.8996 7.68868 6.8996 6.66876C6.9996 6.5903 7.19961 6.59034 7.29961 6.51188C8.09961 5.88424 8.2996 5.09965 7.8996 4.3151C7.2996 3.29518 6.39961 2.51065 5.29961 1.883C5.09961 1.80455 4.99961 1.64762 4.79961 1.56916C4.79961 1.56916 4.79961 1.49075 4.59961 1.41229C4.89961 1.33384 5.09961 1.25537 5.29961 1.25537C6.09961 1.25537 6.7996 1.41229 7.3996 1.80457C7.7996 2.03993 8.0996 2.27527 8.4996 2.51064C9.9996 3.76592 11.8996 4.07976 13.9996 4.00131C16.2996 3.92285 18.1996 3.21672 20.1996 2.35372C20.6996 2.11835 21.1996 1.88301 21.6996 1.64765C22.2996 1.41228 22.9996 1.1769 23.6996 1.33381C18.9996 4.00129 14.3996 6.74724 9.79961 9.49318Z" fill="#DCDCDC"/>
<path d="M14.4 0.941473C9.99999 0.941473 5.50001 0.941473 1.10001 0.941473C0.900006 0.941473 0.7 0.941473 0.5 0.941473C0.2 0.941473 0 0.784582 0 0.47076C0 0.235395 0.2 0.0784553 0.5 0C0.6 0 0.700003 0 0.800003 0C9.9 0 18.9 0 28 0C28.6 0 28.7 0.0784553 28.8 0.392276C28.8 0.706098 28.6 0.863037 28.1 0.863037C26.6 0.863037 25.1 0.863037 23.6 0.863037C20.5 0.941492 17.5 0.941473 14.4 0.941473Z" fill="#DCDCDC"/>
<path d="M3.09961 8.47297C4.19961 7.84532 5.2996 7.2961 6.3996 6.66846C7.5996 7.84529 8.79961 9.02212 10.0996 10.1989C9.09961 10.905 8.0996 11.5327 6.9996 12.3172C5.6996 11.062 4.49961 9.80671 3.09961 8.47297Z" fill="#19BAD7"/>
</svg>
